STARTFONT 2.3
FONT -FontForge-Pacifico-Book-R-Normal--20-200-72-72-P-117-ISO10646-1
SIZE 20 72 72  4
FONTBOUNDINGBOX 46 38 -12 -9
COMMENT "Generated by fontforge, http://fontforge.sourceforge.net"
COMMENT "Copyright 2018 The Pacifico Project Authors (https://github.com/googlefonts/Pacifico)"
STARTPROPERTIES 41
FOUNDRY "FontForge"
FAMILY_NAME "Pacifico"
WEIGHT_NAME "Book"
SLANT "R"
SETWIDTH_NAME "Normal"
ADD_STYLE_NAME ""
PIXEL_SIZE 20
POINT_SIZE 200
RESOLUTION_X 72
RESOLUTION_Y 72
SPACING "P"
AVERAGE_WIDTH 117
CHARSET_REGISTRY "ISO10646"
CHARSET_ENCODING "1"
FONTNAME_REGISTRY ""
CHARSET_COLLECTIONS "ISO8859-2 ISO8859-5 ISO8859-9 ISO8859-4 ISO10646-1"
BITS_PER_PIXEL 4
FONT_NAME "Pacifico-Regular"
FACE_NAME "Pacifico Regular"
COPYRIGHT "Copyright 2018 The Pacifico Project Authors (https://github.com/googlefonts/Pacifico)"
FONT_VERSION "3.001"
FONT_ASCENT 16
FONT_DESCENT 4
UNDERLINE_POSITION -2
UNDERLINE_THICKNESS 1
X_HEIGHT 8
CAP_HEIGHT 15
DEFAULT_CHAR 1
RAW_ASCENT 800
RAW_DESCENT 200
NORM_SPACE 5
RELATIVE_WEIGHT 40
RELATIVE_SETWIDTH 50
SUPERSCRIPT_X 0
SUPERSCRIPT_Y 7
SUPERSCRIPT_SIZE 12
SUBSCRIPT_X 0
SUBSCRIPT_Y 1
SUBSCRIPT_SIZE 12
AVG_LOWERCASE_WIDTH 94
AVG_UPPERCASE_WIDTH 163
ENDPROPERTIES
CHARS 1514
STARTCHAR NULL.dup1
ENCODING 0
SWIDTH 0 0
DWIDTH 0 0
BBX 1 1 0 0
BITMAP
00
ENDCHAR
STARTCHAR nonmarkingreturn
ENCODING 13
SWIDTH 265 0
DWIDTH 5 0
BBX 1 1 0 0
BITMAP
00
ENDCHAR
STARTCHAR space
ENCODING 32
SWIDTH 265 0
DWIDTH 5 0
BBX 1 1 0 0
BITMAP
00
ENDCHAR
STARTCHAR exclam
ENCODING 33
SWIDTH 340 0
DWIDTH 7 0
BBX 8 16 0 0
BITMAP
00004EE3
0000CFF2
0001FFD0
0004FF80
0008FF40
000BFE00
000EF900
003FF400
006FE000
009F9000
009E3000
00000000
09EB1000
4FFF5000
4FFF4000
0BEA0000
ENDCHAR
STARTCHAR quotedbl
ENCODING 34
SWIDTH 510 0
DWIDTH 10 0
BBX 9 6 2 10
BITMAP
0BF706ED10
4FFA0DFF10
6FF70FFD00
8FF32FF900
AFE04FF500
8E703EC100
ENDCHAR
STARTCHAR numbersign
ENCODING 35
SWIDTH 700 0
DWIDTH 14 0
BBX 14 12 0 0
BITMAP
00000460005500
00003FF305FF00
00008FE00AFC00
05FFFFFFFFFFF7
05FFFFFFFFFFF7
0018FF21AFD110
000AFC00DFA000
011EF912FF7100
3FFFFFFFFFFFA0
2EFFFFFFFFFF90
00DF901FF70000
00CD201DB10000
ENDCHAR
STARTCHAR dollar
ENCODING 36
SWIDTH 524 0
DWIDTH 10 0
BBX 10 17 0 -3
BITMAP
0000016000
000005F200
000007F000
0018DFFD60
01DFEEFFF6
05FE2D9AFA
07FE0F73C4
03FFCF5000
006FFFD600
0002BFFFB0
08808E8FF4
3FF2AC0EF6
1EFCDCAFF2
05EFFFFD40
0016FA4000
0003F40000
0003E20000
ENDCHAR
STARTCHAR percent
ENCODING 37
SWIDTH 896 0
DWIDTH 18 0
BBX 17 15 1 0
BITMAP
018A92000008700000
1DFFFE20009FE00000
9FA5FF815CFF900000
EF42FFFFFFFE100000
FF309FFEEFF7000000
DF81CF41EFC0000000
5FFFF908FF40000000
04AA602FFA029B8100
000000BFE13EFFFD10
000005FF60CF71DF70
00000DFC02FF109F90
00007FF304FE009F80
0002EF9002FF21DF40
0007FE1000BFEDFB00
0005E500001AEE9100
ENDCHAR
STARTCHAR ampersand
ENCODING 38
SWIDTH 851 0
DWIDTH 17 0
BBX 17 20 0 -2
BITMAP
000000001000000000
000004BFFE70000000
00004FFFFFF7000000
0000DFD31AFD000000
0004FF5005FF000000
0005FF3007FE000000
0004FF602EF8000000
0001EFB4DFD1000000
00009FFFFD20000000
00019FFFA100000000
002DFFFFB000005940
02EFF6BFF80005FF60
09FF501DFF603EFC00
0EFC0003EFF7EFE200
1FFC00005FFFFD2000
0CFF93237EFFF50000
03EFFFFFFFFFFE2000
0018CEFDA61BFFD100
000000000001DFF300
000000000000165000
ENDCHAR
STARTCHAR quotesingle
ENCODING 39
SWIDTH 290 0
DWIDTH 6 0
BBX 4 6 2 10
BITMAP
0BF7
4FFA
6FF7
8FF3
AFE0
8E70
ENDCHAR
STARTCHAR parenleft
ENCODING 40
SWIDTH 613 0
DWIDTH 12 0
BBX 14 21 1 -3
BITMAP
00000017CEFC70
000003DFFFFFFA
00003EFE7239F8
0001DFE3000010
0008FF60000000
001EFC00000000
008FF500000000
00DFE000000000
03FF9000000000
07FF4000000000
0AFF1000000000
0DFD0000000000
0FFB0000000000
2FF90000000000
2FF80000000000
3FF80000000000
1FF90000000000
0EFC00008E2000
08FF724BFF2000
01DFFFFFE50000
0019DFD9200000
ENDCHAR
STARTCHAR parenright
ENCODING 41
SWIDTH 613 0
DWIDTH 12 0
BBX 14 21 -2 -3
BITMAP
0000018DFEA200
00004EFFFFFE20
0001EFC525FFA0
0001EA0000AFF1
00000000007FF3
00000000006FF4
00000000006FF4
00000000007FF3
00000000009FF2
0000000000BFF0
0000000000EFC0
0000000002FF90
0000000007FF50
000000000CFE10
000000003FF900
00000000AFF300
00000004FFA000
0100002DFE2000
6FA425DFF50000
8FFFFFFE400000
06CEEC81000000
ENDCHAR
STARTCHAR asterisk
ENCODING 42
SWIDTH 520 0
DWIDTH 10 0
BBX 9 8 2 10
BITMAP
0000CC0000
0DB1FD0000
1DFAF89E50
018FFFFE40
6EFFFE7000
7E8BDCFA00
001FD2DA00
001D900000
ENDCHAR
STARTCHAR plus
ENCODING 43
SWIDTH 700 0
DWIDTH 14 0
BBX 12 12 1 0
BITMAP
000000640000
000006FC0000
000008FB0000
00000AF90000
00000CF70000
2DFFFFFFFFF6
4FFFFFFFFFF6
02335FF43320
00005FF00000
00006FD00000
00008FB00000
00006E500000
ENDCHAR
STARTCHAR comma
ENCODING 44
SWIDTH 257 0
DWIDTH 5 0
BBX 4 7 0 -3
BITMAP
0273
1EFD
3FFD
4FF9
5FF2
8FA0
8D20
ENDCHAR
STARTCHAR hyphen
ENCODING 45
SWIDTH 403 0
DWIDTH 8 0
BBX 7 4 1 4
BITMAP
03568810
BFFFFF50
AFEDC910
01000000
ENDCHAR
STARTCHAR period
ENCODING 46
SWIDTH 257 0
DWIDTH 5 0
BBX 5 4 0 0
BITMAP
0BEB00
5FFF30
6FFF20
1CE800
ENDCHAR
STARTCHAR slash
ENCODING 47
SWIDTH 509 0
DWIDTH 10 0
BBX 12 18 0 0
BITMAP
000000001BC0
000000008FF1
00000002EFA0
00000009FF20
0000003FF800
000000BFE100
000004FF6000
00000DFD0000
00006FF50000
0001EFB00000
0008FF300000
002EFA000000
00AFE2000000
03FF80000000
0BFE10000000
5FF600000000
BFD000000000
8E4000000000
ENDCHAR
STARTCHAR zero
ENCODING 48
SWIDTH 543 0
DWIDTH 11 0
BBX 10 12 1 0
BITMAP
0000010000
004CFFD500
06FFFFFF50
2EFA13EFC0
8FF1008FF1
CFB0006FF2
EF90007FF1
FF80008FE0
DFA000DF90
AFF529FF30
2EFFFFF700
03BEEB4000
ENDCHAR
STARTCHAR one
ENCODING 49
SWIDTH 376 0
DWIDTH 8 0
BBX 6 12 1 0
BITMAP
002572
4CFFF9
CFFFF7
467FF5
008FF3
00AFF1
00CFD0
00EFB0
01FF90
03FF80
04FF60
02ED20
ENDCHAR
STARTCHAR two
ENCODING 50
SWIDTH 560 0
DWIDTH 11 0
BBX 10 12 1 0
BITMAP
0000010000
007DFFE810
09FFFFFFA0
2FF812DFF0
5FF100AFF1
1A8000DFC0
000008FF40
00008FF600
003CFE5000
3AFFB31110
EFFFFFFFF4
DFFFFFFFE2
ENDCHAR
STARTCHAR three
ENCODING 51
SWIDTH 520 0
DWIDTH 10 0
BBX 10 12 0 0
BITMAP
0000010000
003BEFFD70
04FFFFFFF7
0BFD204FFA
09E4003FF7
000026DFB1
0003FFFA10
000179EFD1
3D80005FF6
6FF523AFF6
2EFFFFFFD1
03ADFEC810
ENDCHAR
STARTCHAR four
ENCODING 52
SWIDTH 577 0
DWIDTH 12 0
BBX 10 12 1 0
BITMAP
0003720000
002EF70000
00BFE10000
04FF603EC0
0CFD00AFC0
3FF500EF90
AFD002FF60
FFFFFFFFFD
CFFFFFFFFC
022229FE10
000009FD00
000006E700
ENDCHAR
STARTCHAR five
ENCODING 53
SWIDTH 518 0
DWIDTH 10 0
BBX 10 12 0 0
BITMAP
0000111110
03CFFFFFFD
06FFFFFFFB
00BFA00000
00EF600000
03FFFEB600
03FFFFFFC0
000235CFF5
0BC1002FF7
1FFA329FF4
0BFFFFFFB0
017CEEC700
ENDCHAR
STARTCHAR six
ENCODING 54
SWIDTH 541 0
DWIDTH 11 0
BBX 10 12 1 0
BITMAP
0000010000
002AEFFB20
04EFFFFFD0
1EFC316FF4
7FE2010460
CFCAFFD500
EFFFFFFF40
FFF514FF90
EFD000EFA0
AFF528FF60
2EFFFFFC00
03AEFD8100
ENDCHAR
STARTCHAR seven
ENCODING 55
SWIDTH 497 0
DWIDTH 10 0
BBX 10 12 1 0
BITMAP
0111111110
DFFFFFFFF4
DFFFFFFFF3
00002CFE40
0002DFC100
000CFD1000
007FF40000
00EFD00000
04FF800000
07FF500000
08FF200000
03EB000000
ENDCHAR
STARTCHAR eight
ENCODING 56
SWIDTH 512 0
DWIDTH 10 0
BBX 10 12 0 0
BITMAP
0000011000
0029EFFD70
01DFFFFFF7
05FF611CFB
06FF200CF8
02EFD7DFB1
005FFFFD20
05FE79FFD1
1EF5003FF7
3FF9226FF6
0DFFFFFFD1
018DEEC810
ENDCHAR
STARTCHAR nine
ENCODING 57
SWIDTH 541 0
DWIDTH 11 0
BBX 11 12 0 0
BITMAP
000001100000
0018EFFC4000
00CFFFFFF400
05FF813EFC00
08FF000CFF00
07FF726FFF10
02EFFFFFFF00
003BED9BFD00
0760001EF800
2FF824CFE100
0CFFFFFE4000
019DFD920000
ENDCHAR
STARTCHAR colon
ENCODING 58
SWIDTH 257 0
DWIDTH 5 0
BBX 5 10 0 0
BITMAP
02DE70
09FFE0
0AFFD0
04DE50
000000
000000
0BEB00
5FFF30
6FFF20
1CE800
ENDCHAR
STARTCHAR semicolon
ENCODING 59
SWIDTH 257 0
DWIDTH 5 0
BBX 5 13 0 -3
BITMAP
02DE70
09FFE0
0AFFD0
04DE50
000000
000000
027300
1EFD00
3FFD00
4FF900
5FF200
8FA000
8D2000
ENDCHAR
STARTCHAR less
ENCODING 60
SWIDTH 700 0
DWIDTH 14 0
BBX 12 9 1 1
BITMAP
000000000165
00000016BFFD
00027CFFFFB4
06CFFFEA5100
4FFFB5100000
2EFFFB510000
016BFFFFA500
000027CFFFD1
000000038DC0
ENDCHAR
STARTCHAR equal
ENCODING 61
SWIDTH 700 0
DWIDTH 14 0
BBX 12 7 1 2
BITMAP
0BFFFFFFFFFB
0EFFFFFFFFFA
011111111110
000000000000
5EFFFFFFFFE3
7FFFFFFFFFE2
011111111110
ENDCHAR
STARTCHAR greater
ENCODING 62
SWIDTH 700 0
DWIDTH 14 0
BBX 12 9 1 1
BITMAP
037200000000
0CFFC6100000
04BFFFFB5100
00027CFFFE92
00000038FFF9
000015AEFFF4
016BFFFFB610
5FFFFA510000
7EA510000000
ENDCHAR
STARTCHAR question
ENCODING 63
SWIDTH 476 0
DWIDTH 10 0
BBX 10 16 1 0
BITMAP
005BEED920
07FFFFFFE1
1FF923CFF5
3FF2008FF5
0AB000DFE1
00000AFF60
0000BFF600
000BFE4000
006FE20000
00CF400000
00DB000000
0000000000
2CE7000000
9FFE000000
AFFD000000
3DE5000000
ENDCHAR
STARTCHAR at
ENCODING 64
SWIDTH 1015 0
DWIDTH 20 0
BBX 20 21 0 -6
BITMAP
00000000000110000000
000000049CFFFEC71000
000003CFFFFFFFFFE500
00007FFF9420126DFF40
0007FFC200000001BFD0
004FFB10000000002FF5
00DFE10017DE42000BF8
05FF6001CFFFFF200AF9
0AFE100BFF77FF100AF9
0EFA004FF708FD000DF7
2FF8009FE00CFA003FF3
3FF600BFB01FF800AFD0
3FF600BFD19FF918FF40
1FF8006FFFFCFFFFF700
0DFD0008EE808EEB4000
07FF6000000000000000
01DFF500000000016400
002EFFB5210136BFFC00
0001BFFFFFFFFFFFB300
0000049DFFFFEB720000
00000000011000000000
ENDCHAR
STARTCHAR A
ENCODING 65
SWIDTH 786 0
DWIDTH 16 0
BBX 18 16 1 0
BITMAP
00000027BDEFEC9400
00001AFFFFFFFFFB00
0004EFFD8544589300
004FFF700008A40000
01EFF500004FF90000
09FF8000007FF50000
2FFE000000BFF10000
6FF9000000EFD00000
AFF4000004FFA00000
CFF2000009FF700000
DFF100001EFF500000
CFF300007FFF400020
9FF80002EFFF4005F4
3FFF847EE9FFB48FE1
07FFFFFF52EFFFFE30
005BEEB4004CEE9200
ENDCHAR
STARTCHAR B
ENCODING 66
SWIDTH 827 0
DWIDTH 17 0
BBX 18 17 0 -1
BITMAP
000037ACEEFEDA6000
028EFFFFFFFFFFFD30
4FFFE96432236CFFD1
7FA40210000000CFF4
01009FF1000000AFF5
0000EFD0000003EFE1
0003FF9000148EFF50
0007FF507FFFFFA300
000AFF10AFFFE70000
000EFD00024BFF9000
001FFB000001EFF100
004FF8000000DFF200
006FF6000006FFD000
008FF62235AFFF4000
00AFFFFFFFFFD40000
00BFFFFEDC94000000
008EB0000000000000
ENDCHAR
STARTCHAR C
ENCODING 67
SWIDTH 686 0
DWIDTH 14 0
BBX 16 16 1 0
BITMAP
000006BEFEB40000
0002DFFFFFFF4000
003EFF9425FFC000
01DFF50000AFF000
09FF700000BFE000
1FFD000000CF9000
5FF9000000140000
8FF5000000000000
AFF4000000000000
AFF4000000000000
9FF6000000000000
5FFB000000000000
0EFF700000000360
04FFFB522248CFF3
004DFFFFFFFFFF80
00016ADEFEC96100
ENDCHAR
STARTCHAR D
ENCODING 68
SWIDTH 836 0
DWIDTH 17 0
BBX 16 16 1 0
BITMAP
0026ADEFEC830000
2AFFFFFFFFFFA100
EFFC853348EFFC10
DA300000001CFF80
000AFD000002FFE1
001FFB000000BFF3
005FF70000009FF5
009FF3000000AFF4
00CFE0000000CFF3
01FFB0000001FFE0
04FF80000006FFA0
07FF6000002EFF30
09FF400003DFF800
0BFF5346AFFF9000
0CFFFFFFFFD50000
06CEFFEC95000000
ENDCHAR
STARTCHAR E
ENCODING 69
SWIDTH 686 0
DWIDTH 14 0
BBX 17 16 0 0
BITMAP
0000049DEFEB600000
0002CFFFFFFFF90000
000DFFB5324DFF2000
005FFB000007FF3000
006FF9000008FE1000
001EFF620002730000
0002AFFFF700000000
0019EFFFF600000000
03EFFA521000000000
0DFF40000000000000
4FFB00000000000000
5FF900000000000000
3FFE10000000005910
0BFFD7322247AEFF20
01BFFFFFFFFFFFE700
00038CEEFEDB851000
ENDCHAR
STARTCHAR F
ENCODING 70
SWIDTH 712 0
DWIDTH 14 0
BBX 19 16 0 0
BITMAP
0000159BDEEFFEEDCB50
0019FFFFFFFFFFFFFF90
00AFF953FFC111234510
02FF6001FFB000000000
03FF3003FF9000000000
01EF8005FF8000000000
00472006FF6000000000
000009FFFFFFFFC00000
00000AFFFFFFFFB00000
0000001CFF2111000000
0000000EFD0000000000
0000002FFA0000000000
CA00008FF50000000000
EFA328FFD00000000000
5FFFFFFE400000000000
03AEFD92000000000000
ENDCHAR
STARTCHAR G
ENCODING 71
SWIDTH 811 0
DWIDTH 16 0
BBX 18 25 1 -9
BITMAP
000005ADFEC8100000
0002CFFFFFFFC00000
003EFFA423BFF50000
01DFF500002FF80000
09FF7000003FF70000
1FFD0000003FF30000
5FF900000003200000
8FF500000000000000
AFF400000111110000
AFF400008FFFFE0000
9FF600008FFFFF0000
5FFB00000009FD0010
0EFF6000000BFB06E5
04FFFA52237EFABFE3
004DFFFFFFFFFFFB20
00016BDFECAFFE6000
0000000002DFF20000
000000004EFFC00000
00000004EDCF900000
0000002ED2EF400000
000000CF33FE000000
000003FB09F9000000
000006FB5FF2000000
000004FFFF70000000
0000008EE700000000
ENDCHAR
STARTCHAR H
ENCODING 72
SWIDTH 873 0
DWIDTH 17 0
BBX 21 18 -1 0
BITMAP
0000000000000000010000
0000000000000001AFE400
0004BEE90000000CFFFC00
00AFFFFF7000008FE3CF00
0AFB44FFB00001EF70BF00
3FA000EFC00006FF10DD00
191000EFC0000BFC03F800
000000FFB0001FF81CE100
000002FF90004FF9DE3000
000016FF71128FFFC20000
000DFFFFFFFFFFF4000000
000DFFFFFECAEFE0000000
00000FFC0000CFE0000000
00004FF90000CFF0000000
00007FF500009FF30006E0
0000BFF100005FFC339FC0
0000FFC000000BFFFFFD20
0000CE400000018DFD7000
ENDCHAR
STARTCHAR I
ENCODING 73
SWIDTH 495 0
DWIDTH 10 0
BBX 13 16 -1 0
BITMAP
0009EFFFFFFC10
000DFFFFFFFC00
000013FFB11000
000004FF900000
000006FF600000
000009FF300000
00000BFF100000
00000EFD000000
00001FFB000000
00004FF8000000
00006FF6000000
00009FF4000000
0000BFF1000000
0011EFF1100000
1CFFFFFFFA0000
3EFFFFFFF80000
ENDCHAR
STARTCHAR J
ENCODING 74
SWIDTH 743 0
DWIDTH 15 0
BBX 15 19 1 -3
BITMAP
00048BDEFFEDA700
03CFFFFFFFFFFF40
1EFD742223AFF800
6FE1000000BFF200
8FD0000000DFF000
6FF2000000EFD000
1CC1000001FFA000
0000000007FF7000
00000018EFFF5000
000006EFFEFF1000
0001AFF91CFD0000
000BFE401FF80000
006FF4006FF30000
00DFB000CFC00000
00FF8005FF500000
00EFB14EFA000000
009FFFFFC1000000
0019EFE810000000
0000010000000000
ENDCHAR
STARTCHAR K
ENCODING 75
SWIDTH 937 0
DWIDTH 19 0
BBX 22 16 0 0
BITMAP
00028CEFED9300003EE200
007FFFFFFFFC0000CFF200
04FFA422EFE40004FFB000
09FD0001FFB0000CFF3000
09FC0004FF80007FF90000
04FF1006FF6006FFB00000
00540009FF55BFF9000000
000002EFFFFFFC40000000
000002FFFFFFC300000000
0000001FFB6EFE30000000
0000003FF906FFC0000000
1810006FF600DFF4000061
6FA000BFF2006FFC0007F4
5FF727FFB0000DFFA59FD1
0BFFFFFE200004FFFFFD20
007DFEA20000004CED9100
ENDCHAR
STARTCHAR L
ENCODING 76
SWIDTH 673 0
DWIDTH 13 0
BBX 17 16 -1 0
BITMAP
000000028CEFD91000
0000005EFFFFFFD100
000005FFE6229FF700
00001EFE20000FFA00
00006FF900001FF900
00009FF400001FF400
0000BFF20000012000
0000CFF00000000000
0000DFE00000000000
0000EFC00000000000
0000FFA00000000000
0001FF800000000040
08DFFFC620000008F0
9FFFFFFFFC7324AFB0
BFFFFCCFFFFFFFFB10
3CFE81016ADEEC7000
ENDCHAR
STARTCHAR M
ENCODING 77
SWIDTH 1232 0
DWIDTH 25 0
BBX 28 16 0 0
BITMAP
003AEE70007DFC40007DFD500000
07FFFFF21BFFFFE11CFFFFF20000
6FD56FF4AF926FF5AF82AFF70000
ED103FF7F7001FF9F7006FF80000
72004FFCC0002FFEC0007FF60000
00006FFF50004FFF5000AFF30000
00008FFE00006FFE0000DFF00000
0000AFF900009FF80002FFC00000
0000DFF40000CFF40005FF800000
0001FFF00000EFF10009FF500000
0003FFC00002FFC0000CFF200000
0006FF800005FF90000EFE000010
0008FF600008FF60000EFD0004F2
000AFF30000AFF40000CFF627FE1
000BFF10000BFF100006FFFFFE30
0007FA000007FA0000006CED9100
ENDCHAR
STARTCHAR N
ENCODING 78
SWIDTH 884 0
DWIDTH 18 0
BBX 21 16 0 0
BITMAP
003AEE90003AEEC4000000
06FFFFF406FFFFFF200000
6FD56FF64FC42AFF700000
ED103FF6DB1005FF800000
72004FFAE10006FF700000
00006FFE700009FF400000
00008FFE10000DFF100000
0000BFF900001FFC000000
0000DFF400005FF9000000
0000FFF100008FF5000000
0003FFC00000BFF2000000
0006FF800000DFF0000100
0008FF600000EFE0004F30
000AFF300000BFF627FE10
000BFF1000005FFFFFE300
0007FA00000005CED91000
ENDCHAR
STARTCHAR O
ENCODING 79
SWIDTH 816 0
DWIDTH 16 0
BBX 15 16 1 0
BITMAP
000005BEFEB60000
0003CFFFFFFFB100
003EFF9424CFFB00
01EFF400001CFF50
09FF70000005FFA0
1EFE00000001FFD0
5FF900000000FFE0
8FF600000001FFD0
AFF400000002FFC0
BFF400000006FF80
9FF50000000AFF40
7FF80000003FFC00
2FFE200002DFF300
08FFD5237EFF6000
009FFFFFFFE40000
0004ADFEC7100000
ENDCHAR
STARTCHAR P
ENCODING 80
SWIDTH 805 0
DWIDTH 16 0
BBX 17 19 0 -3
BITMAP
00000017BEFEC71000
000007EFFFFFFFD200
0000AFFA4235DFFC00
0008FE4000001EFF40
004FF505ED0009FF60
00CFA00CFF0008FF50
03FF200EFD000CFF30
08FC002FFA005FFB00
0BF8005FF728FFE200
0EF54EEFFFFFFC2000
0FF43EFFFEDA500000
1FF300DFE000000000
1FF301FFB000000000
0FF404FF8000000000
0CF806FF6000000000
07FE3BFF3000000000
01DFFFFE0000000000
002DFFF60000000000
000046300000000000
ENDCHAR
STARTCHAR Q
ENCODING 81
SWIDTH 816 0
DWIDTH 16 0
BBX 17 23 1 -7
BITMAP
000005BEFEB5000000
0002CFFFFFFFB10000
003EFF9424CFFB0000
01DFF400000CFF5000
08FF70000005FFA000
1EFE00000001FFD000
5FF900000000FFE000
8FF600000001FFD000
AFF400000002FFC000
BFF400000006FF8000
AFF50000000AFF4000
7FF90000003FFC0000
3FFE200002DFF40000
09FFE6348EFF700000
00BFFFFFFFF6000000
0005BFFFF920000000
000001AFFC00000000
0000000DFF70000010
00000006FFE1000990
00000000DFFA12AF50
000000004FFFFFFA00
0000000004CFFD6000
000000000001100000
ENDCHAR
STARTCHAR R
ENCODING 82
SWIDTH 880 0
DWIDTH 18 0
BBX 20 16 1 0
BITMAP
0000039CEFEC71000000
0002BFFFFFFFFD200000
003EFE84236DFFC00000
01DFB1153002FFF20000
09FD00CFD000DFF20000
1FF401FFB000EFE00000
6FD004FF8008FF700000
AF8007FF74AFFA000000
CF60DFFFFFFC50000000
DF50CFFFFFE500000000
DF500EFC4DFF50000000
CF602FF904FFD1000010
8FA05FF700BFF80005F2
3FF5AFF4003FFF627FD1
08FFFFE00007FFFFFD20
006CED4000006DFD8100
ENDCHAR
STARTCHAR S
ENCODING 83
SWIDTH 693 0
DWIDTH 14 0
BBX 14 16 0 0
BITMAP
000028CEFEB710
0006FFFFFFFFD1
004FFD63239FF9
00BFF200000CFC
00DFE000000CFB
00BFF6000009E5
005FFFA3000000
0006FFFFC61000
000029EFFFE600
00000005CFFF60
0BE3000006FFE0
4FF5000000BFF1
4FF6000000DFE0
1FFE63225CFF90
06FFFFFFFFFA10
0029CEFED94000
ENDCHAR
STARTCHAR T
ENCODING 84
SWIDTH 697 0
DWIDTH 14 0
BBX 18 16 0 0
BITMAP
000269BDEFFFFFFFD9
019FFFFFFFFFFFFFFE
0BFE8432DFF2112331
3FF40001FFC0000000
4FF20004FF90000000
1FF70007FF60000000
05A2000AFF30000000
0000000DFF00000000
0000001FFC00000000
0000003FFA00000000
0000006FF700000000
0000008FF500000000
000000BFF300000000
000000DFF100000000
000000FFE000000000
000000BF8000000000
ENDCHAR
STARTCHAR U
ENCODING 85
SWIDTH 890 0
DWIDTH 18 0
BBX 21 16 0 0
BITMAP
003AEEB2000000BE500000
06FFFFFA000002FFA00000
6FE63FFD000004FF900000
ED200FFD000007FF700000
72001FFB00000AFF400000
00005FF900000DFF200000
00008FF500002FFE000000
0000CFF100007FFB000000
0000FFD00000CFF9000000
0003FF900003FFF7000000
0007FF60000BEFF4000000
000AFF30005FAFF3000310
000BFF3004EA9FF3006F50
000AFFC7AFE28FFC7AFE20
0004FFFFFE404FFFFFE400
00006CEE920005CEE92000
ENDCHAR
STARTCHAR V
ENCODING 86
SWIDTH 763 0
DWIDTH 15 0
BBX 17 16 2 0
BITMAP
08F9000019EE900000
0FFD0000CFFFF70000
2FFB0005FD3CFB0000
4FF90008F709FC0000
6FF70009F60BFB0000
7FF60008F90EF80000
8FF50004FE6FF40000
8FF40000AFFFF32100
8FF500001AFFFFFF10
7FF5000009FFCEFC00
5FF700003FF8000000
3FFA0001DFD1000000
0EFE201CFE40000000
09FFDAEFF400000000
02EFFFFE4000000000
003CFD910000000000
ENDCHAR
STARTCHAR W
ENCODING 87
SWIDTH 1217 0
DWIDTH 24 0
BBX 26 16 2 0
BITMAP
08E90000004EE100019EE91000
1FFD000000BFF3000BFFFF8000
2FFB000000EFF1004FD3BFD000
4FF9000002FFE0007F808FD000
6FF7000006FFC0008F709FC000
7FF600000AFFB0007FA0CF9000
8FF400000EFFA0002FF6FF5000
8FF400004FFFA00009FFFF4210
8FF400009FFFA000009FFFFFF2
8FF40001EFFFA000007FFCEFD1
6FF60007FEBFB00002EFA00000
4FF8002EF79FD0000CFE100000
1FFD00BFD16FF401AFF5000000
0AFFCDFF402FFEADFF60000000
03FFFFF7000AFFFFF600000000
005DFC400001AEEA3000000000
ENDCHAR
STARTCHAR X
ENCODING 88
SWIDTH 712 0
DWIDTH 14 0
BBX 18 16 -1 0
BITMAP
0007DFD8000004DE40
01CFFFFF90003FFE20
0BF925EFF202EFE300
0960007FF82DFF4000
0000001FFDCFF50000
0000000BFFFF600000
00000007FFF7000000
00000008FFC0000000
0000007FFFF1000000
000006FFFFF5000000
00005FFD5FF9000000
0004FFE20EFD000001
003EFE300AFF3000AB
03EFF50004FFC33BF9
1DFF700000AFFFFFA0
2EE800000018DFC600
ENDCHAR
STARTCHAR Y
ENCODING 89
SWIDTH 851 0
DWIDTH 17 0
BBX 20 23 0 -7
BITMAP
003AEEB2000000AE7000
06FFFFFA000002FFB000
5FE63FFD000004FF9000
EE200FFD000007FF7000
83002FFC00000AFF5000
00004FF900000DFF2000
00008FF600003FFF0000
0000BFF200008FFD0000
0000EFE00001EFFB0000
0001FFB00008EFF80000
0002FFB0004FAFF60000
0000FFE427FC6FF40010
00009FFFFFD27FF9BEF2
000008DFD837DFFFFFB0
000000003AFDFFD63000
00000019FC41FF900000
000001CF7004FF600000
00000AF90009FF100000
00001FF5002EFA000000
00002FF913CFE2000000
00000DFFFFFF50000000
000002BFFEA300000000
00000000100000000000
ENDCHAR
STARTCHAR Z
ENCODING 90
SWIDTH 721 0
DWIDTH 14 0
BBX 17 16 0 0
BITMAP
00028BDFFEDCA75000
008FFFFFFFFFFFF700
06FFA532224CFFD400
0BFB0000004FFD1000
0BF9000001DFF40000
08FE000009FF900000
007500004FFD100000
00000001EFF3000000
0000000BFF80000000
0000009FFC00000000
000006FFE200000000
00003FFF5000000040
08DFFFFC10000009E0
8FFFFFFFFC7324BFA0
9FFFFDCFFFFFFFFB10
2BEE91016ADEEC6000
ENDCHAR
STARTCHAR bracketleft
ENCODING 91
SWIDTH 405 0
DWIDTH 8 0
BBX 9 20 1 -2
BITMAP
000BEFFFB0
005FFFFFC0
007FF41100
00AFF10000
00CFE00000
00EFC00000
01FF900000
04FF700000
06FF500000
08FF300000
0AFF100000
0CFE000000
0EFB000000
2FF9000000
4FF7000000
6FF5000000
8FF4000000
9FFFFF8000
6FFFFF8000
0011110000
ENDCHAR
STARTCHAR backslash
ENCODING 92
SWIDTH 509 0
DWIDTH 10 0
BBX 8 18 2 0
BITMAP
6E500000
CFB00000
9FF10000
5FF50000
1FFA0000
0BFE0000
07FF4000
02FF8000
00DFD000
008FF200
004FF700
000EFB00
000AFF10
0005FF50
0001FF90
0000BFE0
00007FF2
00001DB0
ENDCHAR
STARTCHAR bracketright
ENCODING 93
SWIDTH 405 0
DWIDTH 8 0
BBX 9 20 -1 -2
BITMAP
007EFFFE50
009FFFFF90
000115FF80
000005FF60
000007FF40
000009FF20
00000BFF00
00000DFD00
00001FFA00
00003FF800
00005FF600
00007FF400
00009FF200
0000CFE000
0000EFC000
0001FFA000
0003FF7000
BFFFFF5000
CFFFFC1000
0111100000
ENDCHAR
STARTCHAR asciicircum
ENCODING 94
SWIDTH 700 0
DWIDTH 14 0
BBX 11 10 1 1
BITMAP
000003DA0000
00000DFF2000
00007FFF7000
0002EF8FC000
000AFA0EF200
004FF20AF700
00CF8005FC00
06FE1001FF20
1EF60000BF70
2EA000004E50
ENDCHAR
STARTCHAR underscore
ENCODING 95
SWIDTH 354 0
DWIDTH 7 0
BBX 8 3 -1 -2
BITMAP
01111110
5FFFFFF6
4FFFFFF5
ENDCHAR
STARTCHAR grave
ENCODING 96
SWIDTH 600 0
DWIDTH 12 0
BBX 5 6 2 10
BITMAP
4E8000
8FF200
2EF900
04FE10
007F80
000A90
ENDCHAR
STARTCHAR a
ENCODING 97
SWIDTH 470 0
DWIDTH 9 0
BBX 12 9 0 0
BITMAP
0003AEB21000
006FFFFFA000
03FFC4DF9000
0BFD11FF6000
2FF704FF3001
4FF408FF009E
3FF74EFF3AFB
0DFFFDDFFFC1
03CEB24DE810
ENDCHAR
STARTCHAR b
ENCODING 98
SWIDTH 473 0
DWIDTH 9 0
BBX 12 18 1 0
BITMAP
0002BEA00000
001EFFF50000
009F98F80000
02FF16F70000
08FB08F50000
0DF70DE10000
2FF45F800000
5FF1CD100000
8FE6F4000000
BFDEFF900000
CFFECFF80000
DFF27FFE1250
DFB03FFFFFF1
DF9007FFFEA0
BFB007FC1000
7FF54EF60000
1EFFFFB00000
02BEE9100000
ENDCHAR
STARTCHAR c
ENCODING 99
SWIDTH 368 0
DWIDTH 7 0
BBX 10 9 0 0
BITMAP
0029EE8000
02DFFFF400
0BFE3BF500
2FF70BE200
4FF4011002
5FF40001BD
2FFC326DFA
09FFFFFFA0
007DFEA400
ENDCHAR
STARTCHAR d
ENCODING 100
SWIDTH 515 0
DWIDTH 10 0
BBX 13 18 0 0
BITMAP
000000004DE500
00000002EFFE00
00000009F9CF20
0000000EF29F20
0000004FE0AF10
0000008FB0DD00
000000BF91F900
000000DF76F400
000001FF6CD000
0003BEFF7F6000
006FFFFFDE1000
04FFB6FFF70000
0CFC04FFD00000
2FF603FF500020
4FF402FF300BC0
3FF83CFF93BF90
0DFFFFAFFFFA00
03CEC409ED6000
ENDCHAR
STARTCHAR e
ENCODING 101
SWIDTH 393 0
DWIDTH 8 0
BBX 11 9 0 0
BITMAP
0029EEA10000
02EFFFF80000
0BFD39FA0000
2FF50AF70000
4FF7CFC00210
4FFFC6006F60
1FFC325BFE30
08FFFFFFD400
006CEEC71000
ENDCHAR
STARTCHAR f
ENCODING 102
SWIDTH 371 0
DWIDTH 7 0
BBX 9 24 1 -6
BITMAP
00003CE700
0003EFFF20
000DF7BF40
006FE09F40
00CF80BF20
03FF41ED00
08FE05F700
0CFB0CE100
1FF86F5000
4FF7E90000
6FFEB00000
9FFC100000
BFD1000000
CFA8FFFF60
DF9FFFFD30
EF8DB11000
EF8AE00000
EF97F10000
DF96F20000
CFA5F30000
AFB5F30000
7FD8F10000
2FFFB00000
07EC200000
ENDCHAR
STARTCHAR g
ENCODING 103
SWIDTH 479 0
DWIDTH 10 0
BBX 12 18 0 -9
BITMAP
0003AEB21000
006FFFFF9000
03FFC4DF8000
0BFD11FF5000
2FF704FF3012
4FF408FF05EB
3FF74EFEBFF6
0DFFFFFFFD30
03CEACFF8000
0001BFF60000
002CFFF20000
01DFAFD00000
0BF58F900000
6F80DF400000
DF14FE000000
FF3DF7000000
DFFFC0000000
4DEA10000000
ENDCHAR
STARTCHAR h
ENCODING 104
SWIDTH 502 0
DWIDTH 10 0
BBX 12 18 1 0
BITMAP
0002BEA00000
001DFFF50000
009FA8F80000
01FF26F80000
07FC08F50000
0CF80DE10000
1FF45F700000
4FF2DD000000
6FEAF3000000
9FFF67EE2000
BFF8AFFF5000
CFA6FFFF3000
DF9EB6FF0000
DFEF29FC0022
EFF90BF902E9
EFF40DFA4DF5
EFD00CFFFF60
AE5004DEB300
ENDCHAR
STARTCHAR i
ENCODING 105
SWIDTH 246 0
DWIDTH 5 0
BBX 8 13 0 0
BITMAP
008ED300
01FFF600
00AFC100
00000000
01DE2000
05FF2000
09FE0000
0CFB0000
0EF80021
1FF603E7
0FF94EF3
0BFFFF50
02CEB300
ENDCHAR
STARTCHAR j
ENCODING 106
SWIDTH 254 0
DWIDTH 5 0
BBX 13 22 -5 -9
BITMAP
0000002CE90000
0000008FFE0000
0000003DE60000
00000000000000
0000002DE20000
0000006FF20000
0000008FF00000
0000009FD00000
000000BFA00200
000000DF819F30
000000FF9DFC10
000002FFFF8000
000004FFD30000
00002DFD000000
0004EFFA000000
005FCDF6000000
03FC2FF2000000
0DE25FC0000000
5F90BF70000000
8F96FE10000000
6FFFF600000000
0AED6000000000
ENDCHAR
STARTCHAR k
ENCODING 107
SWIDTH 525 0
DWIDTH 11 0
BBX 12 18 1 0
BITMAP
0002BEA00000
001DFFF60000
009FA8F80000
01FF26F80000
07FC08F40000
0CF80DE00000
1FF45F600000
4FF2DB000000
6FEBE2000000
9FFF47EE6000
BFF5BFFFF200
CF97F77FF300
DFAE907FE100
DFEE28FF6005
DFF99FE4009F
DFF49FF52AFB
BFD03FFFFFC1
6E7004CED810
ENDCHAR
STARTCHAR l
ENCODING 108
SWIDTH 326 0
DWIDTH 7 0
BBX 9 18 1 0
BITMAP
0002BE9000
001DFFF400
009F98F700
01EF26F800
07FC07F700
0CF709F400
1FF40DF100
5FF13FA000
7FD09F4000
AFB2FB0000
CFA9F40000
DFCFB00000
DFFE200000
CFF5000300
BFC0008F10
6FE439FC00
1EFFFFC100
03CFD81000
ENDCHAR
STARTCHAR m
ENCODING 109
SWIDTH 744 0
DWIDTH 15 0
BBX 17 9 1 0
BITMAP
1CE219EB019ED10000
6FE1CFFE1CFFF20000
9FB9FFFC9FFFF10000
CFAF7AFBF99FC00000
EFED0BFFD0BF900310
FFF70DFF70EF603E60
FFF20FFF21FF85EF30
DFC00EFB00EFFFE500
7E5008E5006EEA3000
ENDCHAR
STARTCHAR n
ENCODING 110
SWIDTH 496 0
DWIDTH 10 0
BBX 12 9 1 0
BITMAP
1CE208ED1000
6FE1BFFF3000
9FB8FFFF1000
CFAF98FD0000
EFEE1AFA0021
FFF70DF703E7
FFF20FF95EF3
DFC00EFFFF50
7E5006EEB300
ENDCHAR
STARTCHAR o
ENCODING 111
SWIDTH 451 0
DWIDTH 9 0
BBX 12 9 0 0
BITMAP
002AEEB20000
03EFFFFE2000
0CFD4EFF7121
2FF60BFFFFFA
4FF302DFFFD5
4FF400DF6000
1FFB28FE0000
08FFFFF50000
007DFC500000
ENDCHAR
STARTCHAR p
ENCODING 112
SWIDTH 481 0
DWIDTH 10 0
BBX 16 18 -3 -9
BITMAP
00006E94CE910000
0000BFDEFFF80000
0000BFFA2CFC0000
0000BFD00AFD0000
0000BFB00CFA0020
0001DFB04FF506F2
0007FFB2DFD28FD1
001EFFEFFFFFFD20
008FDFFD89ED9100
01EACF9000000000
06F4DF7000000000
0BE0EF5000000000
0EB1FF3000000000
3F83FE0000000000
5F66FB0000000000
5F9BF60000000000
2FFFD00000000000
08EC300000000000
ENDCHAR
STARTCHAR q
ENCODING 113
SWIDTH 500 0
DWIDTH 10 0
BBX 13 18 0 -8
BITMAP
0000000AF60000
0003AEDFF50000
005FFFFFF10000
03FFC4BFC00000
0BFD10EF800000
2FF704FF400000
4FF409FF4EFF80
3FF74FFB9FFF50
0DFFFFF88F2100
03CE8FF67F1000
00004FF37F1000
00006FF28F0000
00006FF19E0000
00007FF0AC0000
00006FF1D90000
00004FFAF50000
00000EFFE00000
000005ED300000
ENDCHAR
STARTCHAR r
ENCODING 114
SWIDTH 455 0
DWIDTH 9 0
BBX 11 9 1 0
BITMAP
1CE208ED1000
6FE1BFFF3000
9FB8FEFF1000
CFAF97FE19C0
EFEE17FFFFA0
FFF702EFF900
FFF200021000
DFC000000000
7E5000000000
ENDCHAR
STARTCHAR s
ENCODING 115
SWIDTH 427 0
DWIDTH 9 0
BBX 13 9 -1 0
BITMAP
00002CF2000000
0000AFC0000000
0002FFB0000000
000AFFF6000000
005F9CFF301700
02EE12FFA1CF10
1DF59AEFEEFC00
2D56FFFFFFE200
0001BFFFE91000
ENDCHAR
STARTCHAR t
ENCODING 116
SWIDTH 393 0
DWIDTH 8 0
BBX 11 17 0 0
BITMAP
000008EC1000
00008FFF8000
0003FD6FA000
000AF73F9000
001FF26F6000
006FD0CE1000
00AFA7F70000
00DFCF900000
CFFFFFFFD000
DFFFFFFF8000
04FF51100000
03FF30000000
03FF40000100
01FF70003E60
00CFE426EF30
005FFFFFE500
0005CFEA2000
ENDCHAR
STARTCHAR u
ENCODING 117
SWIDTH 462 0
DWIDTH 9 0
BBX 11 9 1 0
BITMAP
0BF303EA0000
4FF10AF90000
8FD00EF60000
CFA05FF30000
EF70CFE00130
FF66FFC01CB0
FFEFDFD3CF80
CFFE6FFFF900
3DD41BEC5000
ENDCHAR
STARTCHAR v
ENCODING 118
SWIDTH 449 0
DWIDTH 9 0
BBX 11 9 1 0
BITMAP
BE401BE70000
FF609FFB0000
FF70CFF81420
EF70AFFFFFA0
EF82FFDFFC30
DF9BFA000000
BFEFE2000000
8FFF60000000
2CE700000000
ENDCHAR
STARTCHAR w
ENCODING 119
SWIDTH 700 0
DWIDTH 14 0
BBX 16 9 1 0
BITMAP
BE4008E401BE7000
FF601FF609FFB000
FF708FF70BFF8142
EF71EFF809FFFFFA
EF87FFF82FFDFFC3
DFADFAFABFB00000
BFEFA8FEFE200000
8FFF35FFF6000000
2CE600BE70000000
ENDCHAR
STARTCHAR x
ENCODING 120
SWIDTH 529 0
DWIDTH 11 0
BBX 14 9 0 0
BITMAP
009EE706DE8000
04FFFFCFFFC000
03E98FFE4E7000
00004FF8000000
05505FF6000060
6FC08FF50009F2
9FC3EFFC22AFC0
7FFFFDFFFFFC10
1AED608DFD7000
ENDCHAR
STARTCHAR y
ENCODING 121
SWIDTH 479 0
DWIDTH 10 0
BBX 13 18 -1 -9
BITMAP
000BF303EA0000
004FF10AFA0000
008FD00EF70000
00CFA05FF50000
00EF70CFF20120
00FF66FFE05EB0
00FFEFEFDAFF50
00CFFEAFFFC300
003DD4BFF70000
00001AFF500000
0001CFFF100000
001CFAFD000000
00BF59F9000000
07F80DF4000000
0DF14FD0000000
1FE3DF60000000
0EFFFC00000000
04DEA100000000
ENDCHAR
STARTCHAR z
ENCODING 122
SWIDTH 445 0
DWIDTH 9 0
BBX 11 9 1 0
BITMAP
9FFFFFFF5000
AFFFFFFF5000
0129FFD60000
04DFD5000000
3FFA10000420
AFF100006F70
AFF8225BFE20
4FFFFFFFD300
03AEFEB71000
ENDCHAR
STARTCHAR braceleft
ENCODING 123
SWIDTH 490 0
DWIDTH 10 0
BBX 11 20 1 -2
BITMAP
0000029DFE50
00002EFFFF60
00009FF72100
0000DFC00000
0001FFA00000
0002FF800000
0004FF600000
0007FF400000
025EFD000000
BFFFD3000000
BFFFD1000000
017FF7000000
002FF8000000
004FF7000000
006FF4000000
008FF2000000
009FF1000000
007FF8210000
002EFFFF5000
0003BEFD3000
ENDCHAR
STARTCHAR bar
ENCODING 124
SWIDTH 326 0
DWIDTH 7 0
BBX 7 24 0 -6
BITMAP
0001CE30
0004FF40
0005FF20
0007FF00
0009FD00
000CFB00
000EF900
001FF600
004FF400
006FF200
008FE000
00BFC000
00DFA000
00FF7000
03FF5000
05FF2000
07FF0000
0AFD0000
0CFB0000
0EF90000
1FF70000
3FF50000
5FF30000
3EB00000
ENDCHAR
STARTCHAR braceright
ENCODING 125
SWIDTH 490 0
DWIDTH 10 0
BBX 11 20 -1 -2
BITMAP
007EFEA20000
009FFFFC0000
00013BFF3000
000006FF4000
000007FF3000
000009FF1000
00000BFE0000
00000BFF4000
000004EFFF80
000005EFFF80
00002FFC4100
00007FF40000
00009FF10000
0000BFF00000
0000CFD00000
0000EFB00000
0001FF900000
013BFF400000
AFFFFB000000
8EEC71000000
ENDCHAR
STARTCHAR asciitilde
ENCODING 126
SWIDTH 700 0
DWIDTH 14 0
BBX 12 5 1 3
BITMAP
002750000063
04FFFD5009FA
1EFBCFFD8FF5
6FD107EFFFC0
2610002AEB10
ENDCHAR
STARTCHAR uni00A0
ENCODING 160
SWIDTH 265 0
DWIDTH 5 0
BBX 1 1 0 0
BITMAP
00
ENDCHAR
STARTCHAR exclamdown
ENCODING 161
SWIDTH 340 0
DWIDTH 7 0
BBX 8 17 -1 -8
BITMAP
0001BE80
0007FFF1
0008FFF1
0003DE70
00000000
0004D500
000BF600
001FF400
006FF100
00AFD000
00EFA000
04FF7000
09FF4000
0DFF1000
2FFC0000
6FF80000
5ED20000
ENDCHAR
STARTCHAR cent
ENCODING 162
SWIDTH 466 0
DWIDTH 9 0
BBX 9 14 0 -3
BITMAP
0000052000
00000F6000
00001F4000
0018DFE900
01DFFFEF60
09FC7D7F80
0EF59B7D20
1FF3B90000
0FF5D70990
0BFDF8AF80
02DFFFFB10
0019F84000
0006E00000
0007B00000
ENDCHAR
STARTCHAR sterling
ENCODING 163
SWIDTH 525 0
DWIDTH 11 0
BBX 11 12 0 0
BITMAP
000000110000
00018EFFC400
001CFFFFFF30
007FF814FF70
00CFB0005A20
01FF81110000
4FFFFFFE0000
5FFFFFFB0000
03FF40000000
06FF31111100
6FFFFFFFFE10
6FFFFFFFFC00
ENDCHAR
STARTCHAR currency
ENCODING 164
SWIDTH 700 0
DWIDTH 14 0
BBX 10 9 2 1
BITMAP
6E68DEA5DA
3EFFFFFFF6
07FC329FB0
0CF2000CF2
0ED00009F3
0DF1000CF2
07FB218FC0
2DFFFFFFE4
6E89EEB6DA
ENDCHAR
STARTCHAR yen
ENCODING 165
SWIDTH 497 0
DWIDTH 10 0
BBX 11 12 0 0
BITMAP
065000002730
4FF40001DFA0
1EFC0009FE20
07FF404FF600
01EFB1DFA000
006FFBFD1000
000DFFF40000
0DFFFFFFE100
0237FF532000
2EFFFFFFD000
023BFF331000
0008FA000000
ENDCHAR
STARTCHAR brokenbar
ENCODING 166
SWIDTH 326 0
DWIDTH 7 0
BBX 7 24 0 -6
BITMAP
0001CE30
0004FF40
0006FF10
0008FE00
000AFC00
000DFA00
000FF800
002FF600
004FF300
006FF100
00163000
00000000
00000000
00461000
02FF5000
04FF3000
07FF1000
09FE0000
0BFC0000
0DF90000
0FF70000
3FF50000
5FF30000
4EB00000
ENDCHAR
STARTCHAR section
ENCODING 167
SWIDTH 607 0
DWIDTH 12 0
BBX 11 16 1 0
BITMAP
0002AEFD9200
003EFFFFFC00
00BFD426FF20
00DF7001FF20
00BFD200A800
007FFFA40000
04FEBFFFB100
0AF9029FF800
09FD2009FA00
03FFFA5DF600
003BFFFF9000
195028FFB000
8FB0007FE000
8FE423BFD000
3FFFFFFF5000
03ADFDA40000
ENDCHAR
STARTCHAR dieresis
ENCODING 168
SWIDTH 600 0
DWIDTH 12 0
BBX 8 3 2 10
BITMAP
1BE50AE7
4FF91FFB
1DE40CE5
ENDCHAR
STARTCHAR copyright
ENCODING 169
SWIDTH 647 0
DWIDTH 13 0
BBX 13 12 1 6
BITMAP
0003ADED930000
007FA535AF7000
05F519EE56F500
0DA0BB28C0BD00
3F54F205705F20
5F37E000003F40
3F46E000005F30
1E82F714B09E00
07F35DEB34F700
00AE72027E9000
0006CFFFC50000
00000121000000
ENDCHAR
STARTCHAR ordfeminine
ENCODING 170
SWIDTH 393 0
DWIDTH 8 0
BBX 8 8 1 9
BITMAP
0019DC51
01DFDDF7
0AFB0DF6
2FF21FF3
5FD04FF1
6FD0AFF0
3FFCEFE0
07EC5EB0
ENDCHAR
STARTCHAR guillemotleft
ENCODING 171
SWIDTH 615 0
DWIDTH 12 0
BBX 12 7 0 1
BITMAP
0004DC002AE3
02AFFC17EFE3
3EFE70CFFA10
6FF701FFB000
1BFF808FFB10
009FFB05EFD2
0005EA002CD1
ENDCHAR
STARTCHAR logicalnot
ENCODING 172
SWIDTH 700 0
DWIDTH 14 0
BBX 12 7 1 0
BITMAP
011111111110
2EFFFFFFFFF5
3EFFFFFFFFF8
000000000FF6
000000002FF4
000000005FF2
000000003EB0
ENDCHAR
STARTCHAR uni00AD
ENCODING 173
SWIDTH 403 0
DWIDTH 8 0
BBX 7 4 1 4
BITMAP
03568810
BFFFFF50
AFEDC910
01000000
ENDCHAR
STARTCHAR registered
ENCODING 174
SWIDTH 647 0
DWIDTH 13 0
BBX 13 12 1 6
BITMAP
0003ADED930000
007FA535AF7000
05F58EEC46F500
0DA05F29D0BD00
3F505D2BA05F20
5F308FF7003F40
3F40B9BB005F30
1E80D64F409E00
07F3920864F700
00AE72027E9000
0006CFFFC50000
00000121000000
ENDCHAR
STARTCHAR macron
ENCODING 175
SWIDTH 600 0
DWIDTH 12 0
BBX 8 3 2 10
BITMAP
00111110
1EFFFFF3
0DFFFFE2
ENDCHAR
STARTCHAR degree
ENCODING 176
SWIDTH 385 0
DWIDTH 8 0
BBX 6 7 2 10
BITMAP
000100
19FFB1
9FFFFB
FD22EF
FE34EE
BFFFF8
1AEE80
ENDCHAR
STARTCHAR plusminus
ENCODING 177
SWIDTH 700 0
DWIDTH 14 0
BBX 10 11 2 0
BITMAP
00003DA000
00008FC000
0233BFB331
3FFFFFFFFE
3EFFFFFFFA
0000FF4000
0002FF2000
0002EB0000
1333333320
EFFFFFFFF2
DFFFFFFFD1
ENDCHAR
STARTCHAR uni00B2
ENCODING 178
SWIDTH 450 0
DWIDTH 9 0
BBX 8 10 1 7
BITMAP
018DFD70
0AFECFF6
2FE10AFB
2FA00AFB
03102FF6
0001CFC0
002CFC10
08EF9100
AFFFEEEC
AFFFFFFC
ENDCHAR
STARTCHAR uni00B3
ENCODING 179
SWIDTH 450 0
DWIDTH 9 0
BBX 8 10 1 7
BITMAP
007DFEA2
0AFEBEFC
0FE107FF
07500BFB
0007DFB1
000CFFA1
15003DFA
8F500AFC
5FFBCFF7
06CEEC60
ENDCHAR
STARTCHAR acute
ENCODING 180
SWIDTH 600 0
DWIDTH 12 0
BBX 5 6 5 10
BITMAP
007E60
01EFA0
07FF30
0DF600
5F9000
7B0000
ENDCHAR
STARTCHAR uni00B5
ENCODING 181
SWIDTH 462 0
DWIDTH 9 0
BBX 12 14 0 -5
BITMAP
00BF303EA000
05FF10AF9000
09FD00EF6000
0CFA05FF3000
0EF70CFE0013
1FF66FFC01CB
3FFEFDFD3CF8
4FFFE6FFFF90
5FFD41BEC500
6FF000000000
6FF000000000
6FF000000000
7FF000000000
4EA000000000
ENDCHAR
STARTCHAR paragraph
ENCODING 182
SWIDTH 739 0
DWIDTH 15 0
BBX 12 16 2 0
BITMAP
005ADEFFEC91
1CFFFFFFFFFC
AFFFFFF82FFF
EFFFFFF40FFD
EFFFFFF12FFA
8FFFFFE04FF7
07EFFFB07FF5
0015FF809FF2
0005FF60CFE0
0007FF30FFC0
000AFF12FF90
000DFE05FF70
000FFC07FF50
002FFA09FF30
004FF80BFF10
001DE307FA00
ENDCHAR
STARTCHAR periodcentered
ENCODING 183
SWIDTH 257 0
DWIDTH 5 0
BBX 4 4 1 3
BITMAP
6ED3
EFF9
FFF8
8EC2
ENDCHAR
STARTCHAR cedilla
ENCODING 184
SWIDTH 600 0
DWIDTH 12 0
BBX 6 6 1 -5
BITMAP
07FE91
09FFFA
0015FD
0126FC
BFFFF5
8EFC50
ENDCHAR
STARTCHAR uni00B9
ENCODING 185
SWIDTH 450 0
DWIDTH 9 0
BBX 6 10 2 7
BITMAP
038CE6
AFFFF8
AA6FF6
002FF4
005FF2
007FF0
008FD0
00AFB0
00CF90
009E40
ENDCHAR
STARTCHAR ordmasculine
ENCODING 186
SWIDTH 408 0
DWIDTH 8 0
BBX 8 8 1 9
BITMAP
006DEC30
07FFEFE1
1EF40DF6
4FE00AF8
5FD00BF7
2FF43FF2
0AFFFF80
018CB500
ENDCHAR
STARTCHAR guillemotright
ENCODING 187
SWIDTH 615 0
DWIDTH 12 0
BBX 12 7 0 1
BITMAP
09E5005E9000
0AFF906FFC20
008FFB14EFE3
0006FF603EFB
007EFE34DFF6
0CFFA27FFD40
1DD4008E7000
ENDCHAR
STARTCHAR onequarter
ENCODING 188
SWIDTH 955 0
DWIDTH 19 0
BBX 17 17 2 0
BITMAP
038CE6000000000000
AFFFF8000000000000
AA6FF6000000000000
002FF40001CB000000
005FF20009FD000000
007FF0004FF5000000
008FD000DFB0000000
00AFB008FE25E80000
00CF902FF71EF50000
009E40BFC07FC3E900
000006FF31EF58FA00
00001EF806FD0BF700
0000AFD00CF70EF400
0003FF401FFFFFFF70
0002E8000BEEEFFD50
0000000000004FE000
0000000000003E9000
ENDCHAR
STARTCHAR onehalf
ENCODING 189
SWIDTH 1024 0
DWIDTH 20 0
BBX 18 17 2 0
BITMAP
038CE6000000000000
AFFFF8000000000000
AA6FF6000000000000
002FF40001CB000000
005FF20009FD000000
007FF0004FF5000000
008FD000DFB0000000
00AFB008FE23AEEB30
00CF902FF72EFCDFE1
009E40BFC08F801FF5
000006FF309F401FF5
00001EF80013008FE1
0000AFD0000004FF60
0003FF4000005FF800
0002E800003BFE5000
0000000002FFFEEEE7
0000000002EFFFFFF6
ENDCHAR
STARTCHAR threequarters
ENCODING 190
SWIDTH 1035 0
DWIDTH 21 0
BBX 20 17 1 0
BITMAP
007DFEA2000000000000
0AFEBEFC000000000000
0FE107FF000000000000
07500BFB00005E600000
0007DFB10001EF700000
000CFFA1000AFD100000
15003DFA004FF4000000
8F500AFC01DFA0BE2000
5FFBCFF708FE16FE1000
06CEEC603FF60DF68E30
00000000CFB05FD1EF40
00000007FF20CF72FF10
0000002EF703FF15FD00
0000009FC007FFFFFFE1
0000007E3003DEEFFEC1
000000000000000AF800
0000000000000008E400
ENDCHAR
STARTCHAR questiondown
ENCODING 191
SWIDTH 476 0
DWIDTH 10 0
BBX 10 17 -1 -8
BITMAP
000000BEA0
000006FFF3
000006FFF2
000002CE80
0000000000
000003D500
00000AF600
00004FF200
0004EF9000
006FFB0000
06FFC10000
3FFD100100
AFF4007F70
DFF1009FA0
CFF724EF70
6FFFFFFD10
05BEFD9100
ENDCHAR
STARTCHAR Agrave
ENCODING 192
SWIDTH 786 0
DWIDTH 16 0
BBX 18 23 1 0
BITMAP
000000640000000000
000006FF7000000000
000003EFFA10000000
00000018EFC2000000
0000000018E5000000
000000000000000000
000000000000000000
00000027BDEFEC9400
00001AFFFFFFFFFB00
0004EFFD8544589300
004FFF700008A40000
01EFF500004FF90000
09FF8000007FF50000
2FFE000000BFF10000
6FF9000000EFD00000
AFF4000004FFA00000
CFF2000009FF700000
DFF100001EFF500000
CFF300007FFF400020
9FF80002EFFF4005F4
3FFF847EE9FFB48FE1
07FFFFFF52EFFFFE30
005BEEB4004CEE9200
ENDCHAR
STARTCHAR Aacute
ENCODING 193
SWIDTH 786 0
DWIDTH 16 0
BBX 18 23 1 0
BITMAP
000000000000006500
0000000000001BFF20
000000000002DFFC10
00000000004EFD6000
00000000009D600000
000000000000000000
000000000000000000
00000027BDEFEC9400
00001AFFFFFFFFFB00
0004EFFD8544589300
004FFF700008A40000
01EFF500004FF90000
09FF8000007FF50000
2FFE000000BFF10000
6FF9000000EFD00000
AFF4000004FFA00000
CFF2000009FF700000
DFF100001EFF500000
CFF300007FFF400020
9FF80002EFFF4005F4
3FFF847EE9FFB48FE1
07FFFFFF52EFFFFE30
005BEEB4004CEE9200
ENDCHAR
STARTCHAR Acircumflex
ENCODING 194
SWIDTH 786 0
DWIDTH 16 0
BBX 18 23 1 0
BITMAP
0000000001AFC10000
000000000BFDF70000
000000007FC3FD0000
00000003FF40EF5000
00000005E8007E4000
000000000000000000
000000000000000000
00000027BDEFEC9400
00001AFFFFFFFFFB00
0004EFFD8544589300
004FFF700008A40000
01EFF500004FF90000
09FF8000007FF50000
2FFE000000BFF10000
6FF9000000EFD00000
AFF4000004FFA00000
CFF2000009FF700000
DFF100001EFF500000
CFF300007FFF400020
9FF80002EFFF4005F4
3FFF847EE9FFB48FE1
07FFFFFF52EFFFFE30
005BEEB4004CEE9200
ENDCHAR
STARTCHAR Atilde
ENCODING 195
SWIDTH 786 0
DWIDTH 16 0
BBX 18 22 1 0
BITMAP
00000000AEA1006300
00000009FFFE59F900
0000001FE4AFFFF200
000000063005DE5000
000000000000000000
000000000000000000
00000027BDEFEC9400
00001AFFFFFFFFFB00
0004EFFD8544589300
004FFF700008A40000
01EFF500004FF90000
09FF8000007FF50000
2FFE000000BFF10000
6FF9000000EFD00000
AFF4000004FFA00000
CFF2000009FF700000
DFF100001EFF500000
CFF300007FFF400020
9FF80002EFFF4005F4
3FFF847EE9FFB48FE1
07FFFFFF52EFFFFE30
005BEEB4004CEE9200
ENDCHAR
STARTCHAR Adieresis
ENCODING 196
SWIDTH 786 0
DWIDTH 16 0
BBX 18 21 1 0
BITMAP
00000001CE50BE7000
00000005FF93FFB000
00000002DE31CE5000
000000000000000000
000000000000000000
00000027BDEFEC9400
00001AFFFFFFFFFB00
0004EFFD8544589300
004FFF700008A40000
01EFF500004FF90000
09FF8000007FF50000
2FFE000000BFF10000
6FF9000000EFD00000
AFF4000004FFA00000
CFF2000009FF700000
DFF100001EFF500000
CFF300007FFF400020
9FF80002EFFF4005F4
3FFF847EE9FFB48FE1
07FFFFFF52EFFFFE30
005BEEB4004CEE9200
ENDCHAR
STARTCHAR Aring
ENCODING 197
SWIDTH 786 0
DWIDTH 16 0
BBX 18 25 1 0
BITMAP
000000000001000000
0000000004DFC20000
000000001EFFFB0000
000000004F91DF0000
000000004FA3EE0000
000000001EFFF90000
0000000004DE910000
000000000000000000
000000000000000000
00000027BDEFEC9400
00001AFFFFFFFFFB00
0004EFFD8544589300
004FFF700008A40000
01EFF500004FF90000
09FF8000007FF50000
2FFE000000BFF10000
6FF9000000EFD00000
AFF4000004FFA00000
CFF2000009FF700000
DFF100001EFF500000
CFF300007FFF400020
9FF80002EFFF4005F4
3FFF847EE9FFB48FE1
07FFFFFF52EFFFFE30
005BEEB4004CEE9200
ENDCHAR
STARTCHAR AE
ENCODING 198
SWIDTH 1015 0
DWIDTH 20 0
BBX 22 16 1 0
BITMAP
00000049DFA05DFFFFFF60
00003CFFFFC2FFFFFFFF50
0004EFFD8517FF52111100
005FFF71000CFE00000000
01EFF500001FFB00000000
0AFF8000005FF800000000
2FFD0000009FF500000000
7FF8000000EFFFFFFFE100
AFF4000003FFFFFFFFD100
CFF2000008FFA111110000
DFF100000EFF8000000000
CFF300006FFF9000000000
9FF70001EFFFE100000045
3FFE624DF89FFD53237DFB
07FFFFFFB01BFFFFFFFFD3
004BEEC600006BEFEDA500
ENDCHAR
STARTCHAR Ccedilla
ENCODING 199
SWIDTH 686 0
DWIDTH 14 0
BBX 16 21 1 -5
BITMAP
000006BEFEB40000
0002CFFFFFFF4000
003EFF9425FFC000
01DFF50000AFF000
09FF700000BFE000
1EFD000000CF9000
5FF9000000140000
8FF5000000000000
AFF4000000000000
BFF4000000000000
9FF6000000000000
6FFB000000000000
1EFF700000000360
05FFFB522248CFF3
005EFFFFFFFFFF90
0001CFFFFEDA7200
00007BEF90000000
0000003FD0000000
0000128FC0000000
000CFFFF50000000
0009FEC400000000
ENDCHAR
STARTCHAR Egrave
ENCODING 200
SWIDTH 686 0
DWIDTH 14 0
BBX 17 23 0 0
BITMAP
000036100000000000
0000EFD20000000000
00009FFE4000000000
000004CFF600000000
00000004BC00000000
000000000000000000
000000000000000000
0000049DEFEB600000
0002CFFFFFFFF90000
000DFFB5324DFF2000
005FFB000007FF3000
006FF9000008FE1000
001EFF620002730000
0002AFFFF700000000
0019EFFFF600000000
03EFFA521000000000
0DFF40000000000000
4FFB00000000000000
5FF900000000000000
3FFE10000000005910
0BFFD7322247AEFF20
01BFFFFFFFFFFFE700
00038CEEFEDB851000
ENDCHAR
STARTCHAR Eacute
ENCODING 201
SWIDTH 686 0
DWIDTH 14 0
BBX 17 23 0 0
BITMAP
000000000000271000
000000000005EF9000
00000000008FFF5000
000000000AFF920000
000000002E92000000
000000000000000000
000000000000000000
0000049DEFEB600000
0002CFFFFFFFF90000
000DFFB5324DFF2000
005FFB000007FF3000
006FF9000008FE1000
001EFF620002730000
0002AFFFF700000000
0019EFFFF600000000
03EFFA521000000000
0DFF40000000000000
4FFB00000000000000
5FF900000000000000
3FFE10000000005910
0BFFD7322247AEFF20
01BFFFFFFFFFFFE700
00038CEEFEDB851000
ENDCHAR
STARTCHAR Ecircumflex
ENCODING 202
SWIDTH 686 0
DWIDTH 14 0
BBX 17 23 0 0
BITMAP
000000005DE5000000
00000003FDFE100000
0000001DF5BF600000
000000AFB07FC00000
000000CD202DA00000
000000000000000000
000000000000000000
0000049DEFEB600000
0002CFFFFFFFF90000
000DFFB5324DFF2000
005FFB000007FF3000
006FF9000008FE1000
001EFF620002730000
0002AFFFF700000000
0019EFFFF600000000
03EFFA521000000000
0DFF40000000000000
4FFB00000000000000
5FF900000000000000
3FFE10000000005910
0BFFD7322247AEFF20
01BFFFFFFFFFFFE700
00038CEEFEDB851000
ENDCHAR
STARTCHAR Edieresis
ENCODING 203
SWIDTH 686 0
DWIDTH 14 0
BBX 17 21 0 0
BITMAP
0000007EB05ED10000
000000DFF1BFF40000
0000008E906EB00000
000000000000000000
000000000000000000
0000049DEFEB600000
0002CFFFFFFFF90000
000DFFB5324DFF2000
005FFB000007FF3000
006FF9000008FE1000
001EFF620002730000
0002AFFFF700000000
0019EFFFF600000000
03EFFA521000000000
0DFF40000000000000
4FFB00000000000000
5FF900000000000000
3FFE10000000005910
0BFFD7322247AEFF20
01BFFFFFFFFFFFE700
00038CEEFEDB851000
ENDCHAR
STARTCHAR Igrave
ENCODING 204
SWIDTH 495 0
DWIDTH 10 0
BBX 13 23 -1 0
BITMAP
00163000000000
007FF600000000
003EFF90000000
00018EFC100000
0000018E400000
00000000000000
00000000000000
0009EFFFFFFC10
000DFFFFFFFC00
000013FFB11000
000004FF900000
000006FF600000
000009FF300000
00000BFF100000
00000EFD000000
00001FFB000000
00004FF8000000
00006FF6000000
00009FF4000000
0000BFF1000000
0011EFF1100000
1CFFFFFFFA0000
3EFFFFFFF80000
ENDCHAR
STARTCHAR Iacute
ENCODING 205
SWIDTH 495 0
DWIDTH 10 0
BBX 14 23 -1 0
BITMAP
00000000000640
0000000001CFF1
000000003DFFB0
00000005EFC500
0000000AC50000
00000000000000
00000000000000
0009EFFFFFFC10
000DFFFFFFFC00
000013FFB11000
000004FF900000
000006FF600000
000009FF300000
00000BFF100000
00000EFD000000
00001FFB000000
00004FF8000000
00006FF6000000
00009FF4000000
0000BFF1000000
0011EFF1100000
1CFFFFFFFA0000
3EFFFFFFF80000
ENDCHAR
STARTCHAR Icircumflex
ENCODING 206
SWIDTH 495 0
DWIDTH 10 0
BBX 13 23 -1 0
BITMAP
0000001BFB0000
000000BFDF6000
000008FB4FC000
00004FF31FF300
00006E7009E300
00000000000000
00000000000000
0009EFFFFFFC10
000DFFFFFFFC00
000013FFB11000
000004FF900000
000006FF600000
000009FF300000
00000BFF100000
00000EFD000000
00001FFB000000
00004FF8000000
00006FF6000000
00009FF4000000
0000BFF1000000
0011EFF1100000
1CFFFFFFFA0000
3EFFFFFFF80000
ENDCHAR
STARTCHAR Idieresis
ENCODING 207
SWIDTH 495 0
DWIDTH 10 0
BBX 13 21 -1 0
BITMAP
00002DE41BE600
00006FF84FFA00
00003ED31DE400
00000000000000
00000000000000
0009EFFFFFFC10
000DFFFFFFFC00
000013FFB11000
000004FF900000
000006FF600000
000009FF300000
00000BFF100000
00000EFD000000
00001FFB000000
00004FF8000000
00006FF6000000
00009FF4000000
0000BFF1000000
0011EFF1100000
1CFFFFFFFA0000
3EFFFFFFF80000
ENDCHAR
STARTCHAR Eth
ENCODING 208
SWIDTH 821 0
DWIDTH 16 0
BBX 16 16 0 0
BITMAP
000009DFFEC82000
00005FFFFFFFF800
0000AFF4238EFF90
0001FFC00002EFF4
0005FF7000006FFA
0009FF2000001FFE
5DFFFFFFEB000EFF
9FFFFFFFFC000EFF
017FF71110001FFE
008FF40000005FFA
00BFF1000000BFF5
00DFE0000005FFC0
00FFD000006FFE30
02FFC2246CFFE400
03FFFFFFFFFB2000
009CEFFEB8300000
ENDCHAR
STARTCHAR Ntilde
ENCODING 209
SWIDTH 884 0
DWIDTH 18 0
BBX 21 22 0 0
BITMAP
000000008EB30054000000
00000006FFFF77FC000000
0000000DF58FFFF5000000
000000055003CE70000000
0000000000000000000000
0000000000000000000000
003AEE90003AEEC4000000
06FFFFF406FFFFFF200000
6FD56FF64FC42AFF700000
ED103FF6DB1005FF800000
72004FFAE10006FF700000
00006FFE700009FF400000
00008FFE10000DFF100000
0000BFF900001FFC000000
0000DFF400005FF9000000
0000FFF100008FF5000000
0003FFC00000BFF2000000
0006FF800000DFF0000100
0008FF600000EFE0004F30
000AFF300000BFF627FE10
000BFF1000005FFFFFE300
0007FA00000005CED91000
ENDCHAR
STARTCHAR Ograve
ENCODING 210
SWIDTH 816 0
DWIDTH 16 0
BBX 15 23 1 0
BITMAP
0001730000000000
0009FE5000000000
0005FFF800000000
000029FFB1000000
00000029E3000000
0000000000000000
0000000000000000
000005BEFEB60000
0003CFFFFFFFB100
003EFF9424CFFB00
01EFF400001CFF50
09FF70000005FFA0
1EFE00000001FFD0
5FF900000000FFE0
8FF600000001FFD0
AFF400000002FFC0
BFF400000006FF80
9FF50000000AFF40
7FF80000003FFC00
2FFE200002DFF300
08FFD5237EFF6000
009FFFFFFFE40000
0004ADFEC7100000
ENDCHAR
STARTCHAR Oacute
ENCODING 211
SWIDTH 816 0
DWIDTH 16 0
BBX 15 23 1 0
BITMAP
0000000000016300
00000000002CFE00
0000000004EFFA00
000000006FFC4000
00000000CB400000
0000000000000000
0000000000000000
000005BEFEB60000
0003CFFFFFFFB100
003EFF9424CFFB00
01EFF400001CFF50
09FF70000005FFA0
1EFE00000001FFD0
5FF900000000FFE0
8FF600000001FFD0
AFF400000002FFC0
BFF400000006FF80
9FF50000000AFF40
7FF80000003FFC00
2FFE200002DFF300
08FFD5237EFF6000
009FFFFFFFE40000
0004ADFEC7100000
ENDCHAR
STARTCHAR Ocircumflex
ENCODING 212
SWIDTH 816 0
DWIDTH 16 0
BBX 15 23 1 0
BITMAP
00000002CFA00000
0000001DFDF40000
0000009FA6FB0000
000005FF22FF2000
000007E600AD2000
0000000000000000
0000000000000000
000005BEFEB60000
0003CFFFFFFFB100
003EFF9424CFFB00
01EFF400001CFF50
09FF70000005FFA0
1EFE00000001FFD0
5FF900000000FFE0
8FF600000001FFD0
AFF400000002FFC0
BFF400000006FF80
9FF50000000AFF40
7FF80000003FFC00
2FFE200002DFF300
08FFD5237EFF6000
009FFFFFFFE40000
0004ADFEC7100000
ENDCHAR
STARTCHAR Otilde
ENCODING 213
SWIDTH 816 0
DWIDTH 16 0
BBX 15 22 1 0
BITMAP
000002BE81017200
00000CFFFD4CF600
00004FD3CFFFD100
0000172007ED3000
0000000000000000
0000000000000000
000005BEFEB60000
0003CFFFFFFFB100
003EFF9424CFFB00
01EFF400001CFF50
09FF70000005FFA0
1EFE00000001FFD0
5FF900000000FFE0
8FF600000001FFD0
AFF400000002FFC0
BFF400000006FF80
9FF50000000AFF40
7FF80000003FFC00
2FFE200002DFF300
08FFD5237EFF6000
009FFFFFFFE40000
0004ADFEC7100000
ENDCHAR
STARTCHAR Odieresis
ENCODING 214
SWIDTH 816 0
DWIDTH 16 0
BBX 15 21 1 0
BITMAP
000003DE31CE4000
000008FF66FF8000
000004ED22DD3000
0000000000000000
0000000000000000
000005BEFEB60000
0003CFFFFFFFB100
003EFF9424CFFB00
01EFF400001CFF50
09FF70000005FFA0
1EFE00000001FFD0
5FF900000000FFE0
8FF600000001FFD0
AFF400000002FFC0
BFF400000006FF80
9FF50000000AFF40
7FF80000003FFC00
2FFE200002DFF300
08FFD5237EFF6000
009FFFFFFFE40000
0004ADFEC7100000
ENDCHAR
STARTCHAR multiply
ENCODING 215
SWIDTH 700 0
DWIDTH 14 0
BBX 10 9 2 1
BITMAP
0260000055
0DFA0008FF
08FF91AFF7
00AFFEFE50
000CFFE300
005FFFF600
08FFACFF50
8FF701DFF2
8E50002DC1
ENDCHAR
STARTCHAR Oslash
ENCODING 216
SWIDTH 816 0
DWIDTH 16 0
BBX 15 20 1 -2
BITMAP
000000000BD20000
000000001FF20000
000005BEFFF50000
0002CFFFFFFFC100
003EFF83EFEFFB00
01DFE303FE1DFF50
08FF6007FA06FFB0
1EFD000BF602FFD0
5FF9001FF200FFE0
8FF6005FC001FFD0
AFF4009F8002FFC0
BFF400DF4005FF80
AFF502FE000AFF40
7FF906FB002FFC00
2FFE2BF701DFF300
09FFDEF56DFF6000
009FFFFFFFE40000
0004DFFEC7100000
0000DF5000000000
0000CD1000000000
ENDCHAR
STARTCHAR Ugrave
ENCODING 217
SWIDTH 890 0
DWIDTH 18 0
BBX 21 23 0 0
BITMAP
0000017300000000000000
000009FF50000000000000
000005FFF8000000000000
00000029FFB10000000000
0000000029E30000000000
0000000000000000000000
0000000000000000000000
003AEEB2000000BE500000
06FFFFFA000002FFA00000
6FE63FFD000004FF900000
ED200FFD000007FF700000
72001FFB00000AFF400000
00005FF900000DFF200000
00008FF500002FFE000000
0000CFF100007FFB000000
0000FFD00000CFF9000000
0003FF900003FFF7000000
0007FF60000BEFF4000000
000AFF30005FAFF3000310
000BFF3004EA9FF3006F50
000AFFC7AFE28FFC7AFE20
0004FFFFFE404FFFFFE400
00006CEE920005CEE92000
ENDCHAR
STARTCHAR Uacute
ENCODING 218
SWIDTH 890 0
DWIDTH 18 0
BBX 21 23 0 0
BITMAP
0000000000000163000000
0000000000002CFE000000
000000000004EFFA000000
00000000006FFC50000000
0000000000CC4000000000
0000000000000000000000
0000000000000000000000
003AEEB2000000BE500000
06FFFFFA000002FFA00000
6FE63FFD000004FF900000
ED200FFD000007FF700000
72001FFB00000AFF400000
00005FF900000DFF200000
00008FF500002FFE000000
0000CFF100007FFB000000
0000FFD00000CFF9000000
0003FF900003FFF7000000
0007FF60000BEFF4000000
000AFF30005FAFF3000310
000BFF3004EA9FF3006F50
000AFFC7AFE28FFC7AFE20
0004FFFFFE404FFFFFE400
00006CEE920005CEE92000
ENDCHAR
STARTCHAR Ucircumflex
ENCODING 219
SWIDTH 890 0
DWIDTH 18 0
BBX 21 23 0 0
BITMAP
0000000002CFA000000000
000000001DFDF500000000
000000009FA6FB00000000
00000005FF22FF20000000
00000007E600AE20000000
0000000000000000000000
0000000000000000000000
003AEEB2000000BE500000
06FFFFFA000002FFA00000
6FE63FFD000004FF900000
ED200FFD000007FF700000
72001FFB00000AFF400000
00005FF900000DFF200000
00008FF500002FFE000000
0000CFF100007FFB000000
0000FFD00000CFF9000000
0003FF900003FFF7000000
0007FF60000BEFF4000000
000AFF30005FAFF3000310
000BFF3004EA9FF3006F50
000AFFC7AFE28FFC7AFE20
0004FFFFFE404FFFFFE400
00006CEE920005CEE92000
ENDCHAR
STARTCHAR Udieresis
ENCODING 220
SWIDTH 890 0
DWIDTH 18 0
BBX 21 21 0 0
BITMAP
00000003DE31CE50000000
00000008FF65FF90000000
00000004ED22DD30000000
0000000000000000000000
0000000000000000000000
003AEEB2000000BE500000
06FFFFFA000002FFA00000
6FE63FFD000004FF900000
ED200FFD000007FF700000
72001FFB00000AFF400000
00005FF900000DFF200000
00008FF500002FFE000000
0000CFF100007FFB000000
0000FFD00000CFF9000000
0003FF900003FFF7000000
0007FF60000BEFF4000000
000AFF30005FAFF3000310
000BFF3004EA9FF3006F50
000AFFC7AFE28FFC7AFE20
0004FFFFFE404FFFFFE400
00006CEE920005CEE92000
ENDCHAR
STARTCHAR Yacute
ENCODING 221
SWIDTH 851 0
DWIDTH 17 0
BBX 20 30 0 -7
BITMAP
00000000000000550000
0000000000001AFF4000
000000000002CFFD1000
00000000003EFD700000
00000000008D60000000
00000000000000000000
00000000000000000000
003AEEB2000000AE7000
06FFFFFA000002FFB000
5FE63FFD000004FF9000
EE200FFD000007FF7000
83002FFC00000AFF5000
00004FF900000DFF2000
00008FF600003FFF0000
0000BFF200008FFD0000
0000EFE00001EFFB0000
0001FFB00008EFF80000
0002FFB0004FAFF60000
0000FFE427FC6FF40010
00009FFFFFD27FF9BEF2
000008DFD837DFFFFFB0
000000003AFDFFD63000
00000019FC41FF900000
000001CF7004FF600000
00000AF90009FF100000
00001FF5002EFA000000
00002FF913CFE2000000
00000DFFFFFF50000000
000002BFFEA300000000
00000000100000000000
ENDCHAR
STARTCHAR Thorn
ENCODING 222
SWIDTH 776 0
DWIDTH 16 0
BBX 16 21 0 -3
BITMAP
00000004DE200000
0000000AFF200000
0000000CFF000000
0000000EFD000000
0000017FFFED8200
00006EFFFFFFFF50
0007FFDFF84AFFF2
005FF48FF400BFF7
00DF60BFF2006FF9
05FD00DFE0008FF7
0AF900FFC001DFF2
0DF503FFA02BFF80
0FF38DFFDDFFF900
1FF2BFFFFFEA4000
2FF10BFF42000000
1FF20DFE00000000
0EF51FFB00000000
09FA6FF800000000
02FFFFF400000000
005FFFB000000000
0002540000000000
ENDCHAR
STARTCHAR germandbls
ENCODING 223
SWIDTH 596 0
DWIDTH 12 0
BBX 15 20 0 -4
BITMAP
0000000100000000
000019EFFB300000
0003EFFFFFE10000
001EFC315FF60000
009FE1000FF60000
00EF70009FE10000
05FF203CFD300000
08FE03EFA1000000
0BFB0AFF00000000
0CFA08FF91000000
0DF901EFFEBA8400
0EF82DFDEFFEFF50
0FF8AF903FF72510
0FF7DFA25FF70000
1FF79FFFFFE20000
1FF718DFD9200000
2FF7000000000000
2FF7000000000000
2FF7000000000000
1DD4000000000000
ENDCHAR
STARTCHAR agrave
ENCODING 224
SWIDTH 470 0
DWIDTH 9 0
BBX 12 16 0 0
BITMAP
002DA0000000
006FF4000000
001DFB000000
0002EF300000
00005FA00000
000008B00000
000000000000
0003AEB21000
006FFFFFA000
03FFC4DF9000
0BFD11FF6000
2FF704FF3001
4FF408FF009E
3FF74EFF3AFB
0DFFFDDFFFC1
03CEB24DE810
ENDCHAR
STARTCHAR aacute
ENCODING 225
SWIDTH 470 0
DWIDTH 9 0
BBX 12 16 0 0
BITMAP
00000005E800
0000000DFC00
0000005FF500
000000CF8000
000003FB0000
000005D10000
000000000000
0003AEB21000
006FFFFFA000
03FFC4DF9000
0BFD11FF6000
2FF704FF3001
4FF408FF009E
3FF74EFF3AFB
0DFFFDDFFFC1
03CEB24DE810
ENDCHAR
STARTCHAR acircumflex
ENCODING 226
SWIDTH 470 0
DWIDTH 9 0
BBX 12 17 0 0
BITMAP
000000560000
000009FF6000
00003FEFB000
0000CF6FE000
0006FD0DF300
000EF50BF700
001EA007E500
000000000000
0003AEB21000
006FFFFFA000
03FFC4DF9000
0BFD11FF6000
2FF704FF3001
4FF408FF009E
3FF74EFF3AFB
0DFFFDDFFFC1
03CEB24DE810
ENDCHAR
STARTCHAR atilde
ENCODING 227
SWIDTH 470 0
DWIDTH 9 0
BBX 12 14 0 0
BITMAP
0007EB200530
005FFFE66FA0
00CF58FFFF30
0045003CE600
000000000000
0003AEB21000
006FFFFFA000
03FFC4DF9000
0BFD11FF6000
2FF704FF3001
4FF408FF009E
3FF74EFF3AFB
0DFFFDDFFFC1
03CEB24DE810
ENDCHAR
STARTCHAR adieresis
ENCODING 228
SWIDTH 470 0
DWIDTH 9 0
BBX 12 13 0 0
BITMAP
000AE708E900
002FFB0EFD00
000CE50AE700
000000000000
0003AEB21000
006FFFFFA000
03FFC4DF9000
0BFD11FF6000
2FF704FF3001
4FF408FF009E
3FF74EFF3AFB
0DFFFDDFFFC1
03CEB24DE810
ENDCHAR
STARTCHAR aring
ENCODING 229
SWIDTH 470 0
DWIDTH 9 0
BBX 12 17 0 0
BITMAP
000000100000
00002CFD4000
0000CFFFE000
0002FC1BF200
0002FC3CF200
0000DFFFC000
00003CEB2000
000000000000
0003AEB21000
006FFFFFA000
03FFC4DF9000
0BFD11FF6000
2FF704FF3001
4FF408FF009E
3FF74EFF3AFB
0DFFFDDFFFC1
03CEB24DE810
ENDCHAR
STARTCHAR ae
ENCODING 230
SWIDTH 653 0
DWIDTH 13 0
BBX 16 9 0 0
BITMAP
00039DE77DEB2000
006FFFFFFFFFB000
05FFC59FE46FD000
0CFC00EF807FA000
2FF603FF9AFD2012
4FF407FFFD7103E9
2FF83EFFE424AFF5
0CFFFF7FFFFFFE60
02BED503AEFD8200
ENDCHAR
STARTCHAR ccedilla
ENCODING 231
SWIDTH 368 0
DWIDTH 7 0
BBX 10 15 0 -6
BITMAP
0019EE7000
01DFFFF300
09FE4BF600
1FF80BF300
4FF5057000
5FF3000038
4FF50002DD
0EFD427EF5
04EFFFFC30
008FFF7000
00005FC000
00005FD000
0AFFFF7000
09FFE70000
0011000000
ENDCHAR
STARTCHAR egrave
ENCODING 232
SWIDTH 393 0
DWIDTH 8 0
BBX 11 16 0 0
BITMAP
01DC10000000
03FF60000000
00BFD0000000
001DF5000000
0003FC000000
00006D000000
000000000000
0029EEA10000
02EFFFF80000
0BFD39FA0000
2FF50AF70000
4FF7CFC00210
4FFFC6006F60
1FFC325BFE30
08FFFFFFD400
006CEEC71000
ENDCHAR
STARTCHAR eacute
ENCODING 233
SWIDTH 393 0
DWIDTH 8 0
BBX 11 16 0 0
BITMAP
0000003EA000
000000BFE000
000003FF7000
000009FA0000
00001FD10000
00003D200000
000000000000
0029EEA10000
02EFFFF80000
0BFD39FA0000
2FF50AF70000
4FF7CFC00210
4FFFC6006F60
1FFC325BFE30
08FFFFFFD400
006CEEC71000
ENDCHAR
STARTCHAR ecircumflex
ENCODING 234
SWIDTH 393 0
DWIDTH 8 0
BBX 11 17 0 0
BITMAP
000005710000
00006FF80000
0001EEFD0000
000AF8DF2000
003FE1BF5000
00CF709F9000
00DC105E7000
000000000000
0029EEA10000
02EFFFF80000
0BFD39FA0000
2FF50AF70000
4FF7CFC00210
4FFFC6006F60
1FFC325BFE30
08FFFFFFD400
006CEEC71000
ENDCHAR
STARTCHAR edieresis
ENCODING 235
SWIDTH 393 0
DWIDTH 8 0
BBX 11 13 0 0
BITMAP
008E906EB000
00EFD0CFF100
00AE708E9000
000000000000
0029EEA10000
02EFFFF80000
0BFD39FA0000
2FF50AF70000
4FF7CFC00210
4FFFC6006F60
1FFC325BFE30
08FFFFFFD400
006CEEC71000
ENDCHAR
STARTCHAR igrave
ENCODING 236
SWIDTH 246 0
DWIDTH 5 0
BBX 9 16 -1 0
BITMAP
1CC1000000
3FF7000000
0BFD000000
01DF500000
003FC00000
0005D00000
0000000000
001DE20000
005FF20000
009FE00000
00CFB00000
00EF800210
01FF603E70
00FF94EF30
00BFFFF500
002CEB3000
ENDCHAR
STARTCHAR iacute
ENCODING 237
SWIDTH 246 0
DWIDTH 5 0
BBX 8 16 0 0
BITMAP
00003EA0
0000BFE0
0002FF70
0009FA00
001FD100
003E3000
00000000
01DE2000
05FF2000
09FE0000
0CFB0000
0EF80021
1FF603E7
0FF94EF3
0BFFFF50
02CEB300
ENDCHAR
STARTCHAR icircumflex
ENCODING 238
SWIDTH 246 0
DWIDTH 5 0
BBX 8 17 0 0
BITMAP
00047100
006FF900
01EEFD00
09F8DF20
3FE1BF60
CF809F90
DC105E70
00000000
01DE2000
05FF2000
09FE0000
0CFB0000
0EF80021
1FF603E7
0FF94EF3
0BFFFF50
02CEB300
ENDCHAR
STARTCHAR idieresis
ENCODING 239
SWIDTH 246 0
DWIDTH 5 0
BBX 8 13 0 0
BITMAP
8E906EB0
EFE0CFF1
AE708E90
00000000
01DE2000
05FF2000
09FE0000
0CFB0000
0EF80021
1FF603E7
0FF94EF3
0BFFFF50
02CEB300
ENDCHAR
STARTCHAR eth
ENCODING 240
SWIDTH 451 0
DWIDTH 9 0
BBX 11 18 0 0
BITMAP
001CE4000000
0009FE319F30
0000BFDDFD10
00006FFFA100
002CFFFF1000
003EA4FF6000
000000CFA000
000000AFD000
0000008FF000
002AEEDFF100
03EFFFFFF100
0CFD43BFF000
2FF6008FD000
4FF300AFA000
4FF401EF6000
1FFB2AFE1000
09FFFFF50000
007DFC500000
ENDCHAR
STARTCHAR ntilde
ENCODING 241
SWIDTH 496 0
DWIDTH 10 0
BBX 12 14 1 0
BITMAP
005EC3004400
03FFFF85FC00
0AF76EFFF500
036002BE7000
000000000000
1CE208ED1000
6FE1BFFF3000
9FB8FFFF1000
CFAF98FD0000
EFEE1AFA0021
FFF70DF703E7
FFF20FF95EF3
DFC00EFFFF50
7E5006EEB300
ENDCHAR
STARTCHAR ograve
ENCODING 242
SWIDTH 451 0
DWIDTH 9 0
BBX 12 16 0 0
BITMAP
02DB00000000
04FF50000000
00CFC0000000
002EF4000000
0004FB000000
00007C000000
000000000000
002AEEB20000
03EFFFFE2000
0CFD4EFF7121
2FF60BFFFFFA
4FF302DFFFD5
4FF400DF6000
1FFB28FE0000
08FFFFF50000
007DFC500000
ENDCHAR
STARTCHAR oacute
ENCODING 243
SWIDTH 451 0
DWIDTH 9 0
BBX 12 16 0 0
BITMAP
0000004E9000
000000CFD000
000004FF6000
00000AF90000
00002FC00000
00004D200000
000000000000
002AEEB20000
03EFFFFE2000
0CFD4EFF7121
2FF60BFFFFFA
4FF302DFFFD5
4FF400DF6000
1FFB28FE0000
08FFFFF50000
007DFC500000
ENDCHAR
STARTCHAR ocircumflex
ENCODING 244
SWIDTH 451 0
DWIDTH 9 0
BBX 12 17 0 0
BITMAP
000005600000
00007FF70000
0002FEFC0000
000BF6EF1000
005FD0CF4000
00DF60AF8000
01DB006E6000
000000000000
002AEEB20000
03EFFFFE2000
0CFD4EFF7121
2FF60BFFFFFA
4FF302DFFFD5
4FF400DF6000
1FFB28FE0000
08FFFFF50000
007DFC500000
ENDCHAR
STARTCHAR otilde
ENCODING 245
SWIDTH 451 0
DWIDTH 9 0
BBX 12 14 0 0
BITMAP
006EC3005400
04FFFF75FC00
0BF67FFFF400
045003CE7000
000000000000
002AEEB20000
03EFFFFE2000
0CFD4EFF7121
2FF60BFFFFFA
4FF302DFFFD5
4FF400DF6000
1FFB28FE0000
08FFFFF50000
007DFC500000
ENDCHAR
STARTCHAR odieresis
ENCODING 246
SWIDTH 451 0
DWIDTH 9 0
BBX 12 13 0 0
BITMAP
009E807EA000
01FFC0DFF000
00BE609E8000
000000000000
002AEEB20000
03EFFFFE2000
0CFD4EFF7121
2FF60BFFFFFA
4FF302DFFFD5
4FF400DF6000
1FFB28FE0000
08FFFFF50000
007DFC500000
ENDCHAR
STARTCHAR divide
ENCODING 247
SWIDTH 700 0
DWIDTH 14 0
BBX 12 11 1 0
BITMAP
000008EA0000
00000FFF0000
00000AE90000
000000000000
011111111110
2EFFFFFFFFF7
3EFFFFFFFFE5
000000000000
00008EA00000
0000FFF00000
0000AE900000
ENDCHAR
STARTCHAR oslash
ENCODING 248
SWIDTH 459 0
DWIDTH 9 0
BBX 12 15 0 -3
BITMAP
000004400000
00000D900000
00000F600000
003BEFB30000
03EFFFFE2000
0CFC9DDF9000
2FF4BA8FEACB
4FF2D77FFFFB
4FF4F5AFC640
1FFCF6EF4000
09FFFFFA0000
008EFD700000
000D90000000
001F60000000
000610000000
ENDCHAR
STARTCHAR ugrave
ENCODING 249
SWIDTH 462 0
DWIDTH 9 0
BBX 11 16 1 0
BITMAP
06E600000000
0AFE10000000
03FF70000000
006FD0000000
0009F5000000
0000B7000000
000000000000
0BF303EA0000
4FF10AF90000
8FD00EF60000
CFA05FF30000
EF70CFE00130
FF66FFC01CB0
FFEFDFD3CF80
CFFE6FFFF900
3DD41BEC5000
ENDCHAR
STARTCHAR uacute
ENCODING 250
SWIDTH 462 0
DWIDTH 9 0
BBX 11 16 1 0
BITMAP
0000008E4000
000002FF8000
000009FE1000
00001FF40000
00007F700000
00009A000000
000000000000
0BF303EA0000
4FF10AF90000
8FD00EF60000
CFA05FF30000
EF70CFE00130
FF66FFC01CB0
FFEFDFD3CF80
CFFE6FFFF900
3DD41BEC5000
ENDCHAR
STARTCHAR ucircumflex
ENCODING 251
SWIDTH 462 0
DWIDTH 9 0
BBX 11 17 1 0
BITMAP
000017400000
0000CFF20000
0007FEF60000
002EF6FA0000
00AF83FE0000
03FE11FF2000
05E700BD1000
000000000000
0BF303EA0000
4FF10AF90000
8FD00EF60000
CFA05FF30000
EF70CFE00130
FF66FFC01CB0
FFEFDFD3CF80
CFFE6FFFF900
3DD41BEC5000
ENDCHAR
STARTCHAR udieresis
ENCODING 252
SWIDTH 462 0
DWIDTH 9 0
BBX 11 13 1 0
BITMAP
02DE30BE5000
06FF74FF9000
03ED21DE4000
000000000000
0BF303EA0000
4FF10AF90000
8FD00EF60000
CFA05FF30000
EF70CFE00130
FF66FFC01CB0
FFEFDFD3CF80
CFFE6FFFF900
3DD41BEC5000
ENDCHAR
STARTCHAR yacute
ENCODING 253
SWIDTH 479 0
DWIDTH 10 0
BBX 13 25 -1 -9
BITMAP
000000008E4000
00000002FF8000
00000009FE1000
0000001FF40000
0000007F700000
0000009A000000
00000000000000
000BF303EA0000
004FF10AFA0000
008FD00EF70000
00CFA05FF50000
00EF70CFF20120
00FF66FFE05EB0
00FFEFEFDAFF50
00CFFEAFFFC300
003DD4BFF70000
00001AFF500000
0001CFFF100000
001CFAFD000000
00BF59F9000000
07F80DF4000000
0DF14FD0000000
1FE3DF60000000
0EFFFC00000000
04DEA100000000
ENDCHAR
STARTCHAR thorn
ENCODING 254
SWIDTH 508 0
DWIDTH 10 0
BBX 13 22 0 -7
BITMAP
002DE200000000
007FF200000000
00AFD000000000
00DF9000000000
01FF6000000000
04FF3000000000
07FE05CE800000
09FC6FFFF30000
0BFBF95FF60000
0DFFC02FF50000
0FFF405FF30240
2FFD00CFD02DA0
3FF82BFF64DF60
4FFEFFFFFFF700
5FFFD85DEC4000
6FF10000000000
6FF00000000000
7FE00000000000
7FE00000000000
8FF00000000000
7FE00000000000
27300000000000
ENDCHAR
STARTCHAR ydieresis
ENCODING 255
SWIDTH 479 0
DWIDTH 10 0
BBX 13 22 -1 -9
BITMAP
0002DE30BE5000
0006FF74FF9000
0003ED21DE4000
00000000000000
000BF303EA0000
004FF10AFA0000
008FD00EF70000
00CFA05FF50000
00EF70CFF20120
00FF66FFE05EB0
00FFEFEFDAFF50
00CFFEAFFFC300
003DD4BFF70000
00001AFF500000
0001CFFF100000
001CFAFD000000
00BF59F9000000
07F80DF4000000
0DF14FD0000000
1FE3DF60000000
0EFFFC00000000
04DEA100000000
ENDCHAR
STARTCHAR Amacron
ENCODING 256
SWIDTH 786 0
DWIDTH 16 0
BBX 18 21 1 0
BITMAP
000000001111110000
00000001EFFFFF2000
00000001EFFFFE1000
000000000000000000
000000000000000000
00000027BDEFEC9400
00001AFFFFFFFFFB00
0004EFFD8544589300
004FFF700008A40000
01EFF500004FF90000
09FF8000007FF50000
2FFE000000BFF10000
6FF9000000EFD00000
AFF4000004FFA00000
CFF2000009FF700000
DFF100001EFF500000
CFF300007FFF400020
9FF80002EFFF4005F4
3FFF847EE9FFB48FE1
07FFFFFF52EFFFFE30
005BEEB4004CEE9200
ENDCHAR
STARTCHAR amacron
ENCODING 257
SWIDTH 470 0
DWIDTH 9 0
BBX 12 13 0 0
BITMAP
000011111000
000CFFFFF400
000CFFFFE300
000000000000
0003AEB21000
006FFFFFA000
03FFC4DF9000
0BFD11FF6000
2FF704FF3001
4FF408FF009E
3FF74EFF3AFB
0DFFFDDFFFC1
03CEB24DE810
ENDCHAR
STARTCHAR Abreve
ENCODING 258
SWIDTH 786 0
DWIDTH 16 0
BBX 18 22 1 0
BITMAP
000000037100027100
0000000DFB325EF500
00000007FFFFFFC000
000000005CEEC71000
000000000000000000
000000000000000000
00000027BDEFEC9400
00001AFFFFFFFFFB00
0004EFFD8544589300
004FFF700008A40000
01EFF500004FF90000
09FF8000007FF50000
2FFE000000BFF10000
6FF9000000EFD00000
AFF4000004FFA00000
CFF2000009FF700000
DFF100001EFF500000
CFF300007FFF400020
9FF80002EFFF4005F4
3FFF847EE9FFB48FE1
07FFFFFF52EFFFFE30
005BEEB4004CEE9200
ENDCHAR
STARTCHAR abreve
ENCODING 259
SWIDTH 470 0
DWIDTH 9 0
BBX 12 15 0 0
BITMAP
002710000620
009F90009F80
007FF626FF50
001DFFFFFA00
00029EFC6000
000000000000
0003AEB21000
006FFFFFA000
03FFC4DF9000
0BFD11FF6000
2FF704FF3001
4FF408FF009E
3FF74EFF3AFB
0DFFFDDFFFC1
03CEB24DE810
ENDCHAR
STARTCHAR Aogonek
ENCODING 260
SWIDTH 786 0
DWIDTH 16 0
BBX 18 21 1 -5
BITMAP
00000027BDEFECA400
00001AFFFFFFFFFB00
0004EFFC6322368200
004FFF60001AC50000
01EFF400004FF80000
09FF7000008FF50000
2FFD000000BFF10000
6FF8000000EFD00000
AFF4000004FFA00000
CFF2000009FF700000
DFF100000EFF500000
CFF300006FFF400020
9FF70002EFFF4004F4
3FFE625DFBFFA26EE2
07FFFFFF63FFFFFE30
005BEEB4004DFFB200
00000000003EE50000
0000000000AF700000
0000000000BF912100
00000000005FFFF800
000000000005ACA200
ENDCHAR
STARTCHAR aogonek
ENCODING 261
SWIDTH 470 0
DWIDTH 9 0
BBX 12 14 0 -5
BITMAP
0003AEB21000
006FFFFFA000
03FFC4DF9000
0BFD11FF6000
2FF704FF3001
4FF408FF008E
3FF74EFF39FB
0DFFFDDFFFC1
03CEB29FF810
000006FD3000
00000DF20000
00000EF51300
000009FFFF30
0000006AA600
ENDCHAR
STARTCHAR Cacute
ENCODING 262
SWIDTH 686 0
DWIDTH 14 0
BBX 16 23 1 0
BITMAP
0000000000017300
00000000002DFE00
0000000004EFF900
000000007FFB4000
00000000CB400000
0000000000000000
0000000000000000
000006BEFEB40000
0002DFFFFFFF4000
003EFF9425FFC000
01DFF50000AFF000
09FF700000BFE000
1FFD000000CF9000
5FF9000000140000
8FF5000000000000
AFF4000000000000
AFF4000000000000
9FF6000000000000
5FFB000000000000
0EFF700000000360
04FFFB522248CFF3
004DFFFFFFFFFF80
00016ADEFEC96100
ENDCHAR
STARTCHAR cacute
ENCODING 263
SWIDTH 368 0
DWIDTH 7 0
BBX 10 16 0 0
BITMAP
0000004E80
000000CFD0
000004FF50
00000BF900
00002FC000
00004D2000
0000000000
0029EE8000
02DFFFF400
0BFE3BF500
2FF70BE200
4FF4011002
5FF40001BD
2FFC326DFA
09FFFFFFA0
007DFEA400
ENDCHAR
STARTCHAR Ccircumflex
ENCODING 264
SWIDTH 686 0
DWIDTH 14 0
BBX 16 23 1 0
BITMAP
00000003CF900000
0000001DFDF40000
000000AF97FA0000
000006FE12FF1000
000008E500BD1000
0000000000000000
0000000000000000
000006BEFEB40000
0002DFFFFFFF4000
003EFF9425FFC000
01DFF50000AFF000
09FF700000BFE000
1FFD000000CF9000
5FF9000000140000
8FF5000000000000
AFF4000000000000
AFF4000000000000
9FF6000000000000
5FFB000000000000
0EFF700000000360
04FFFB522248CFF3
004DFFFFFFFFFF80
00016ADEFEC96100
ENDCHAR
STARTCHAR ccircumflex
ENCODING 265
SWIDTH 368 0
DWIDTH 7 0
BBX 10 17 0 0
BITMAP
0000056000
00008FF700
0002FEFC00
000BF6EF10
005FD0CF40
00DF60AF80
01EB006E50
0000000000
0029EE8000
02DFFFF400
0BFE3BF500
2FF70BE200
4FF4011002
5FF40001BD
2FFC326DFA
09FFFFFFA0
007DFEA400
ENDCHAR
STARTCHAR Cdotaccent
ENCODING 266
SWIDTH 686 0
DWIDTH 14 0
BBX 16 21 1 0
BITMAP
00000005EE600000
0000000DFFB00000
00000007ED400000
0000000000000000
0000000000000000
000006BEFEB40000
0002DFFFFFFF4000
003EFF9425FFC000
01DFF50000AFF000
09FF700000BFE000
1FFD000000CF9000
5FF9000000140000
8FF5000000000000
AFF4000000000000
AFF4000000000000
9FF6000000000000
5FFB000000000000
0EFF700000000360
04FFFB522248CFF3
004DFFFFFFFFFF80
00016ADEFEC96100
ENDCHAR
STARTCHAR cdotaccent
ENCODING 267
SWIDTH 368 0
DWIDTH 7 0
BBX 10 13 0 0
BITMAP
0001BEB000
0005FFF200
0002CE9000
0000000000
0029EE8000
02DFFFF400
0BFE3BF500
2FF70BE200
4FF4011002
5FF40001BD
2FFC326DFA
09FFFFFFA0
007DFEA400
ENDCHAR
STARTCHAR Ccaron
ENCODING 268
SWIDTH 686 0
DWIDTH 14 0
BBX 16 23 1 0
BITMAP
000000DB004E7000
000000DF41DF5000
0000007FA9FA0000
0000000DFFD10000
00000004ED300000
0000000000000000
0000000000000000
000006BEFEB40000
0002DFFFFFFF4000
003EFF9425FFC000
01DFF50000AFF000
09FF700000BFE000
1FFD000000CF9000
5FF9000000140000
8FF5000000000000
AFF4000000000000
AFF4000000000000
9FF6000000000000
5FFB000000000000
0EFF700000000360
04FFFB522248CFF3
004DFFFFFFFFFF80
00016ADEFEC96100
ENDCHAR
STARTCHAR ccaron
ENCODING 269
SWIDTH 368 0
DWIDTH 7 0
BBX 10 17 0 0
BITMAP
0006400262
003FE00CF6
001FF15FD1
000CF3CF50
0009F9FB00
0005FFF300
0000CE6000
0000000000
0029EE8000
02DFFFF400
0BFE3BF500
2FF70BE200
4FF4011002
5FF40001BD
2FFC326DFA
09FFFFFFA0
007DFEA400
ENDCHAR
STARTCHAR Dcaron
ENCODING 270
SWIDTH 836 0
DWIDTH 17 0
BBX 16 23 1 0
BITMAP
00000AD202DB0000
00000AF80BF90000
000003FD5FD10000
000000AFEF300000
0000002DE5000000
0000000000000000
0000000000000000
0026ADEFEC830000
2AFFFFFFFFFFA100
EFFC853348EFFC10
DA300000001CFF80
000AFD000002FFE1
001FFB000000BFF3
005FF70000009FF5
009FF3000000AFF4
00CFE0000000CFF3
01FFB0000001FFE0
04FF80000006FFA0
07FF6000002EFF30
09FF400003DFF800
0BFF5346AFFF9000
0CFFFFFFFFD50000
06CEFFEC95000000
ENDCHAR
STARTCHAR dcaron
ENCODING 271
SWIDTH 470 0
DWIDTH 9 0
BBX 14 19 0 0
BITMAP
00000000000581
00000000001FF4
00000000002FF2
00000002DE5FB0
00000007FF4E50
0000000AFE0000
0000000CFB0000
0000000EF80000
0000001FF50000
0000003FF20000
0003BEDFE00000
006FFFFFB00000
03FFC4DF800000
0BFD11FF500000
2FF704FF300100
4FF408FF009E00
3FF74EFF3AFB00
0DFFFDDFFFC100
03CEB24DE81000
ENDCHAR
STARTCHAR Dcroat
ENCODING 272
SWIDTH 821 0
DWIDTH 16 0
BBX 16 16 0 0
BITMAP
000009DFFEC82000
00005FFFFFFFF800
0000AFF4238EFF90
0001FFC00002EFF4
0005FF7000006FFA
0009FF2000001FFE
5DFFFFFFEB000EFF
9FFFFFFFFC000EFF
017FF71110001FFE
008FF40000005FFA
00BFF1000000BFF5
00DFE0000005FFC0
00FFD000006FFE30
02FFC2246CFFE400
03FFFFFFFFFB2000
009CEFFEB8300000
ENDCHAR
STARTCHAR dcroat
ENCODING 273
SWIDTH 470 0
DWIDTH 9 0
BBX 12 16 0 0
BITMAP
00000002DE30
00000008FF30
0000111AFE10
000AFFFFFFE0
000AFFFFFE70
0000001FF500
0000003FF200
0003BEDFE000
006FFFFFB000
03FFC4DF8000
0BFD11FF5000
2FF704FF3001
4FF408FF009E
3FF74EFF3AFB
0DFFFDDFFFC1
03CEB24DE810
ENDCHAR
STARTCHAR Emacron
ENCODING 274
SWIDTH 686 0
DWIDTH 14 0
BBX 17 21 0 0
BITMAP
000000011111000000
0000008FFFFF900000
0000007FFFFF700000
000000000000000000
000000000000000000
0000049DEFEB600000
0002CFFFFFFFF90000
000DFFB5324DFF2000
005FFB000007FF3000
006FF9000008FE1000
001EFF620002730000
0002AFFFF700000000
0019EFFFF600000000
03EFFA521000000000
0DFF40000000000000
4FFB00000000000000
5FF900000000000000
3FFE10000000005910
0BFFD7322247AEFF20
01BFFFFFFFFFFFE700
00038CEEFEDB851000
ENDCHAR
STARTCHAR emacron
ENCODING 275
SWIDTH 393 0
DWIDTH 8 0
BBX 11 13 0 0
BITMAP
000111110000
00AFFFFF7000
009FFFFF5000
000000000000
0029EEA10000
02EFFFF80000
0BFD39FA0000
2FF50AF70000
4FF7CFC00210
4FFFC6006F60
1FFC325BFE30
08FFFFFFD400
006CEEC71000
ENDCHAR
STARTCHAR Ebreve
ENCODING 276
SWIDTH 686 0
DWIDTH 14 0
BBX 17 22 0 0
BITMAP
000001640000540000
000005FF523BFC0000
000001DFFFFFF50000
00000029DFEA300000
000000000000000000
000000000000000000
0000049DEFEB600000
0002CFFFFFFFF90000
000DFFB5324DFF2000
005FFB000007FF3000
006FF9000008FE1000
001EFF620002730000
0002AFFFF700000000
0019EFFFF600000000
03EFFA521000000000
0DFF40000000000000
4FFB00000000000000
5FF900000000000000
3FFE10000000005910
0BFFD7322247AEFF20
01BFFFFFFFFFFFE700
00038CEEFEDB851000
ENDCHAR
STARTCHAR ebreve
ENCODING 277
SWIDTH 393 0
DWIDTH 8 0
BBX 11 15 0 0
BITMAP
017200006300
07FB0006FA00
05FF825EF700
00CFFFFFC100
0018DFD81000
000000000000
0029EEA10000
02EFFFF80000
0BFD39FA0000
2FF50AF70000
4FF7CFC00210
4FFFC6006F60
1FFC325BFE30
08FFFFFFD400
006CEEC71000
ENDCHAR
STARTCHAR Edotaccent
ENCODING 278
SWIDTH 686 0
DWIDTH 14 0
BBX 17 21 0 0
BITMAP
000000008ED3000000
00000002FFF6000000
00000000BFB1000000
000000000000000000
000000000000000000
0000049DEFEB600000
0002CFFFFFFFF90000
000DFFB5324DFF2000
005FFB000007FF3000
006FF9000008FE1000
001EFF620002730000
0002AFFFF700000000
0019EFFFF600000000
03EFFA521000000000
0DFF40000000000000
4FFB00000000000000
5FF900000000000000
3FFE10000000005910
0BFFD7322247AEFF20
01BFFFFFFFFFFFE700
00038CEEFEDB851000
ENDCHAR
STARTCHAR edotaccent
ENCODING 279
SWIDTH 393 0
DWIDTH 8 0
BBX 11 13 0 0
BITMAP
0000AEC10000
0003FFF40000
0001CEA00000
000000000000
0029EEA10000
02EFFFF80000
0BFD39FA0000
2FF50AF70000
4FF7CFC00210
4FFFC6006F60
1FFC325BFE30
08FFFFFFD400
006CEEC71000
ENDCHAR
STARTCHAR Eogonek
ENCODING 280
SWIDTH 686 0
DWIDTH 14 0
BBX 17 21 0 -5
BITMAP
0000049DEFEB600000
0002CFFFFFFFF90000
000DFFB5324DFF2000
005FFB000007FF3000
006FF9000008FE1000
001EFF620002730000
0002AFFFF700000000
0019EFFFF600000000
03EFFA521000000000
0DFF40000000000000
3FFB00000000000000
5FF900000000000000
3FFE10000000005910
0CFFD7322247AEFF20
01CFFFFFFFFFFFE700
00059DEFFFCA851000
0000000CF400000000
0000003FC000000000
0000005FE334000000
0000001EFFFE000000
00000004CEE7000000
ENDCHAR
STARTCHAR eogonek
ENCODING 281
SWIDTH 393 0
DWIDTH 8 0
BBX 11 14 0 -5
BITMAP
0029EEA10000
02DFFFF70000
0BFD39FA0000
2FF509F80000
4FF59FE10000
4FFFFB202D50
2FFC2005EF40
0AFFCBDFF700
019FFFFB3000
0004FD300000
000BF3000000
000DF3000000
000AFECE4000
0001AEFB1000
ENDCHAR
STARTCHAR Ecaron
ENCODING 282
SWIDTH 686 0
DWIDTH 14 0
BBX 17 23 0 0
BITMAP
0000003E7008E40000
0000003FE13FE20000
0000000BF6CF600000
00000003FEFA000000
000000008FA1000000
000000000000000000
000000000000000000
0000049DEFEB600000
0002CFFFFFFFF90000
000DFFB5324DFF2000
005FFB000007FF3000
006FF9000008FE1000
001EFF620002730000
0002AFFFF700000000
0019EFFFF600000000
03EFFA521000000000
0DFF40000000000000
4FFB00000000000000
5FF900000000000000
3FFE10000000005910
0BFFD7322247AEFF20
01BFFFFFFFFFFFE700
00038CEEFEDB851000
ENDCHAR
STARTCHAR ecaron
ENCODING 283
SWIDTH 393 0
DWIDTH 8 0
BBX 11 17 0 0
BITMAP
000540016200
002FF10BF700
000EF33FE100
000BF5BF7000
0007FAFD0000
0003FFF40000
0000BE700000
000000000000
0029EEA10000
02EFFFF80000
0BFD39FA0000
2FF50AF70000
4FF7CFC00210
4FFFC6006F60
1FFC325BFE30
08FFFFFFD400
006CEEC71000
ENDCHAR
STARTCHAR Gcircumflex
ENCODING 284
SWIDTH 811 0
DWIDTH 16 0
BBX 18 32 1 -9
BITMAP
00000001AEC1000000
0000000AFDF8000000
0000006FD3FE100000
000002EF50DF600000
000004E9007E500000
000000000000000000
000000000000000000
000005ADFEC8100000
0002CFFFFFFFC00000
003EFFA423BFF50000
01DFF500002FF80000
09FF7000003FF70000
1FFD0000003FF30000
5FF900000003200000
8FF500000000000000
AFF400000111110000
AFF400008FFFFE0000
9FF600008FFFFF0000
5FFB00000009FD0010
0EFF6000000BFB06E5
04FFFA52237EFABFE3
004DFFFFFFFFFFFB20
00016BDFECAFFE6000
0000000002DFF20000
000000004EFFC00000
00000004EDCF900000
0000002ED2EF400000
000000CF33FE000000
000003FB09F9000000
000006FB5FF2000000
000004FFFF70000000
0000008EE700000000
ENDCHAR
STARTCHAR gcircumflex
ENCODING 285
SWIDTH 479 0
DWIDTH 10 0
BBX 12 26 0 -9
BITMAP
000000560000
000009FF6000
00003FEFB000
0000CF6FE000
0006FD0DF300
000EF50BF700
001EA007E500
000000000000
0003AEB21000
006FFFFF9000
03FFC4DF8000
0BFD11FF5000
2FF704FF3012
4FF408FF05EB
3FF74EFEBFF6
0DFFFFFFFD30
03CEACFF8000
0001BFF60000
002CFFF20000
01DFAFD00000
0BF58F900000
6F80DF400000
DF14FE000000
FF3DF7000000
DFFFC0000000
4DEA10000000
ENDCHAR
STARTCHAR Gbreve
ENCODING 286
SWIDTH 811 0
DWIDTH 16 0
BBX 18 31 1 -9
BITMAP
000003710002720000
00000CFB325EF60000
000006FFFFFFC10000
0000005BEFD8100000
000000000000000000
000000000000000000
000005ADFEC8100000
0002CFFFFFFFC00000
003EFFA423BFF50000
01DFF500002FF80000
09FF7000003FF70000
1FFD0000003FF30000
5FF900000003200000
8FF500000000000000
AFF400000111110000
AFF400008FFFFE0000
9FF600008FFFFF0000
5FFB00000009FD0010
0EFF6000000BFB06E5
04FFFA52237EFABFE3
004DFFFFFFFFFFFB20
00016BDFECAFFE6000
0000000002DFF20000
000000004EFFC00000
00000004EDCF900000
0000002ED2EF400000
000000CF33FE000000
000003FB09F9000000
000006FB5FF2000000
000004FFFF70000000
0000008EE700000000
ENDCHAR
STARTCHAR gbreve
ENCODING 287
SWIDTH 479 0
DWIDTH 10 0
BBX 12 24 0 -9
BITMAP
002710000620
009F90009F80
007FF626FF50
001DFFFFFA00
00029EFC6000
000000000000
0003AEB21000
006FFFFF9000
03FFC4DF8000
0BFD11FF5000
2FF704FF3012
4FF408FF05EB
3FF74EFEBFF6
0DFFFFFFFD30
03CEACFF8000
0001BFF60000
002CFFF20000
01DFAFD00000
0BF58F900000
6F80DF400000
DF14FE000000
FF3DF7000000
DFFFC0000000
4DEA10000000
ENDCHAR
STARTCHAR Gdotaccent
ENCODING 288
SWIDTH 811 0
DWIDTH 16 0
BBX 18 30 1 -9
BITMAP
00000002CE90000000
00000008FFF0000000
00000004DE70000000
000000000000000000
000000000000000000
000005ADFEC8100000
0002CFFFFFFFC00000
003EFFA423BFF50000
01DFF500002FF80000
09FF7000003FF70000
1FFD0000003FF30000
5FF900000003200000
8FF500000000000000
AFF400000111110000
AFF400008FFFFE0000
9FF600008FFFFF0000
5FFB00000009FD0010
0EFF6000000BFB06E5
04FFFA52237EFABFE3
004DFFFFFFFFFFFB20
00016BDFECAFFE6000
0000000002DFF20000
000000004EFFC00000
00000004EDCF900000
0000002ED2EF400000
000000CF33FE000000
000003FB09F9000000
000006FB5FF2000000
000004FFFF70000000
0000008EE700000000
ENDCHAR
STARTCHAR gdotaccent
ENCODING 289
SWIDTH 479 0
DWIDTH 10 0
BBX 12 22 0 -9
BITMAP
00001BEA0000
00006FFF1000
00002DE80000
000000000000
0003AEB21000
006FFFFF9000
03FFC4DF8000
0BFD11FF5000
2FF704FF3012
4FF408FF05EB
3FF74EFEBFF6
0DFFFFFFFD30
03CEACFF8000
0001BFF60000
002CFFF20000
01DFAFD00000
0BF58F900000
6F80DF400000
DF14FE000000
FF3DF7000000
DFFFC0000000
4DEA10000000
ENDCHAR
STARTCHAR uni0122
ENCODING 290
SWIDTH 811 0
DWIDTH 16 0
BBX 18 25 1 -9
BITMAP
000005ADFEC8100000
0002CFFFFFFFC00000
003EFFA423BFF50000
01DFF500002FF80000
09FF7000003FF70000
1FFD0000003FF30000
5FF900000003200000
8FF500000000000000
AFF400000111110000
AFF400008FFFFE0000
9FF600008FFFFF0000
5FFB00000009FD0010
0EFF6000000BFB06E5
04FFFA52237EFABFE3
004DFFFFFFFFFFFB20
00016BDFECAFFE6000
0000000002DFF20000
0009E5004EFFC00000
000DF704EDCF900000
000EF22ED2EF400000
000CA0CF33FE000000
000003FB09F9000000
000006FB5FF2000000
000004FFFF70000000
0000008EE700000000
ENDCHAR
STARTCHAR uni0123
ENCODING 291
SWIDTH 479 0
DWIDTH 10 0
BBX 12 24 0 -9
BITMAP
000002DB0000
000006FE0000
000007FB0000
000008F60000
000006D10000
000000000000
0003AEB21000
006FFFFF9000
03FFC4DF8000
0BFD11FF5000
2FF704FF3012
4FF408FF05EB
3FF74EFEBFF6
0DFFFFFFFD30
03CEACFF8000
0001BFF60000
002CFFF20000
01DFAFD00000
0BF58F900000
6F80DF400000
DF14FE000000
FF3DF7000000
DFFFC0000000
4DEA10000000
ENDCHAR
STARTCHAR Hcircumflex
ENCODING 292
SWIDTH 873 0
DWIDTH 17 0
BBX 21 23 -1 0
BITMAP
00000000003CF900000000
0000000001DFDF30000000
000000000AF97FA0000000
000000006FE13FF1000000
000000008E500BD1000000
0000000000000000010000
0000000000000001AFE400
0004BEE90000000CFFFC00
00AFFFFF7000008FE3CF00
0AFB44FFB00001EF70BF00
3FA000EFC00006FF10DD00
191000EFC0000BFC03F800
000000FFB0001FF81CE100
000002FF90004FF9DE3000
000016FF71128FFFC20000
000DFFFFFFFFFFF4000000
000DFFFFFECAEFE0000000
00000FFC0000CFE0000000
00004FF90000CFF0000000
00007FF500009FF30006E0
0000BFF100005FFC339FC0
0000FFC000000BFFFFFD20
0000CE400000018DFD7000
ENDCHAR
STARTCHAR hcircumflex
ENCODING 293
SWIDTH 502 0
DWIDTH 10 0
BBX 12 24 1 0
BITMAP
00003CF90000
0001DFDF3000
000AF97FA000
006FE13FF100
008E500BD100
000000000000
0002BEA00000
001DFFF50000
009FA8F80000
01FF26F80000
07FC08F50000
0CF80DE10000
1FF45F700000
4FF2DD000000
6FEAF3000000
9FFF67EE2000
BFF8AFFF5000
CFA6FFFF3000
DF9EB6FF0000
DFEF29FC0022
EFF90BF902E9
EFF40DFA4DF5
EFD00CFFFF60
AE5004DEB300
ENDCHAR
STARTCHAR Hbar
ENCODING 294
SWIDTH 856 0
DWIDTH 17 0
BBX 17 16 1 0
BITMAP
000BFA0000009FC000
001FFC000000EFE000
1CEFFFFFFFFFFFFE60
2EFFFFFFFFFFFFFE50
007FF5000005FF7000
009FF3000007FF5000
00BFF1000008FF3000
8FFFFFFFFFFFFFFB00
CFFFFFFFFFFFFFFB00
05FF9111113FFB1000
06FF6000004FF80000
09FF3000007FF60000
0CFF100000AFF30000
0EFE000000CFF10000
1FFC000000DFF00000
0CE7000000AF900000
ENDCHAR
STARTCHAR hbar
ENCODING 295
SWIDTH 502 0
DWIDTH 10 0
BBX 12 16 1 0
BITMAP
005EB0000000
00DFC0000000
02FF80000000
BFFFFFFB0000
8EFFEEE90000
0DFB00000000
1FF800000000
4FF407EE2000
7FF1AFFF5000
9FD6FFFF3000
AFBEB6FF0000
CFEF29FC0022
DFF90BF902E9
DFF40DFA4DF5
BFE00CFFFF70
6E7004DEB400
ENDCHAR
STARTCHAR Itilde
ENCODING 296
SWIDTH 495 0
DWIDTH 10 0
BBX 13 22 -1 0
BITMAP
00001AE9101620
0000AFFFD4BF80
0002FE3BFFFE10
000163006ED400
00000000000000
00000000000000
0009EFFFFFFC10
000DFFFFFFFC00
000013FFB11000
000004FF900000
000006FF600000
000009FF300000
00000BFF100000
00000EFD000000
00001FFB000000
00004FF8000000
00006FF6000000
00009FF4000000
0000BFF1000000
0011EFF1100000
1CFFFFFFFA0000
3EFFFFFFF80000
ENDCHAR
STARTCHAR itilde
ENCODING 297
SWIDTH 246 0
DWIDTH 5 0
BBX 9 14 -1 0
BITMAP
05EC400450
2FFFF84FD0
9F76EFFF60
36002BE800
0000000000
001DE20000
005FF20000
009FE00000
00CFB00000
00EF800210
01FF603E70
00FF94EF30
00BFFFF500
002CEB3000
ENDCHAR
STARTCHAR Imacron
ENCODING 298
SWIDTH 495 0
DWIDTH 10 0
BBX 13 21 -1 0
BITMAP
00000111111000
00002EFFFFE100
00002EFFFFD100
00000000000000
00000000000000
0009EFFFFFFC10
000DFFFFFFFC00
000013FFB11000
000004FF900000
000006FF600000
000009FF300000
00000BFF100000
00000EFD000000
00001FFB000000
00004FF8000000
00006FF6000000
00009FF4000000
0000BFF1000000
0011EFF1100000
1CFFFFFFFA0000
3EFFFFFFF80000
ENDCHAR
STARTCHAR imacron
ENCODING 299
SWIDTH 246 0
DWIDTH 5 0
BBX 8 13 0 0
BITMAP
01111100
AFFFFF70
9FFFFF50
00000000
01DE2000
05FF2000
09FE0000
0CFB0000
0EF80021
1FF603E7
0FF94EF3
0BFFFF50
02CEB300
ENDCHAR
STARTCHAR Ibreve
ENCODING 300
SWIDTH 495 0
DWIDTH 10 0
BBX 13 22 -1 0
BITMAP
00004600003710
0000EFA226FF40
00008FFFFFFB00
000006CEEC7000
00000000000000
00000000000000
0009EFFFFFFC10
000DFFFFFFFC00
000013FFB11000
000004FF900000
000006FF600000
000009FF300000
00000BFF100000
00000EFD000000
00001FFB000000
00004FF8000000
00006FF6000000
00009FF4000000
0000BFF1000000
0011EFF1100000
1CFFFFFFFA0000
3EFFFFFFF80000
ENDCHAR
STARTCHAR ibreve
ENCODING 301
SWIDTH 246 0
DWIDTH 5 0
BBX 9 15 -1 0
BITMAP
1720000630
7FC0006FA0
5FF825EF70
0CFFFFFC10
018DFD8100
0000000000
001DE20000
005FF20000
009FE00000
00CFB00000
00EF800210
01FF603E70
00FF94EF30
00BFFFF500
002CEB3000
ENDCHAR
STARTCHAR Iogonek
ENCODING 302
SWIDTH 495 0
DWIDTH 10 0
BBX 13 21 -1 -5
BITMAP
0009EFFFFFFC10
000DFFFFFFFC00
000013FFB11000
000004FF900000
000006FF600000
000009FF300000
00000BFF100000
00000EFD000000
00001FFB000000
00004FF8000000
00006FF6000000
00009FF4000000
0000BFF1000000
0011EFF1100000
1CFFFFFFFA0000
3EFFFFFFF80000
0007FA00000000
000DF300000000
000EF724100000
000AFFFF400000
00019EEB100000
ENDCHAR
STARTCHAR iogonek
ENCODING 303
SWIDTH 246 0
DWIDTH 5 0
BBX 8 18 0 -5
BITMAP
00AEC100
03FFF400
01CFA000
00000000
01DE2000
05FF2000
09FE0000
0CFB0000
0EF80021
1FF603E7
0FF84EF3
0CFFFF50
05FFC300
1DF70000
5FA00000
6FC12200
2EFFFB00
029B9200
ENDCHAR
STARTCHAR Idotaccent
ENCODING 304
SWIDTH 495 0
DWIDTH 10 0
BBX 13 21 -1 0
BITMAP
0000004DE80000
000000AFFD0000
0000005EE50000
00000000000000
00000000000000
0009EFFFFFFC10
000DFFFFFFFC00
000013FFB11000
000004FF900000
000006FF600000
000009FF300000
00000BFF100000
00000EFD000000
00001FFB000000
00004FF8000000
00006FF6000000
00009FF4000000
0000BFF1000000
0011EFF1100000
1CFFFFFFFA0000
3EFFFFFFF80000
ENDCHAR
STARTCHAR dotlessi
ENCODING 305
SWIDTH 246 0
DWIDTH 5 0
BBX 8 9 0 0
BITMAP
01DE2000
05FF2000
09FE0000
0CFB0000
0EF80021
1FF603E7
0FF94EF3
0BFFFF50
02CEB300
ENDCHAR
STARTCHAR Jcircumflex
ENCODING 308
SWIDTH 743 0
DWIDTH 15 0
BBX 15 26 1 -3
BITMAP
0000001BFB100000
000000BFDF700000
000007FC4FD00000
00003FF30EF40000
00005E8008E30000
0000000000000000
0000000000000000
00048BDEFFEDA700
03CFFFFFFFFFFF40
1EFD742223AFF800
6FE1000000BFF200
8FD0000000DFF000
6FF2000000EFD000
1CC1000001FFA000
0000000007FF7000
00000018EFFF5000
000006EFFEFF1000
0001AFF91CFD0000
000BFE401FF80000
006FF4006FF30000
00DFB000CFC00000
00FF8005FF500000
00EFB14EFA000000
009FFFFFC1000000
0019EFE810000000
0000010000000000
ENDCHAR
STARTCHAR jcircumflex
ENCODING 309
SWIDTH 254 0
DWIDTH 5 0
BBX 13 26 -5 -9
BITMAP
00000000571000
00000006FF8000
0000001EEFD000
000000AF8DF200
000003FE1BF500
00000CF709F900
00000DC105E700
00000000000000
0000002DE20000
0000006FF20000
0000008FF00000
0000009FD00000
000000BFA00200
000000DF819F30
000000FF9DFC10
000002FFFF8000
000004FFD30000
00002DFD000000
0004EFFA000000
005FCDF6000000
03FC2FF2000000
0DE25FC0000000
5F90BF70000000
8F96FE10000000
6FFFF600000000
0AED6000000000
ENDCHAR
STARTCHAR uni0136
ENCODING 310
SWIDTH 937 0
DWIDTH 19 0
BBX 22 21 0 -5
BITMAP
00028CEFED9300003EE200
007FFFFFFFFC0000CFF200
04FFA422EFE40004FFB000
09FD0001FFB0000CFF3000
09FC0004FF80007FF90000
04FF1006FF6006FFB00000
00540009FF55BFF9000000
000002EFFFFFFC40000000
000002FFFFFFC300000000
0000001FFB6EFE30000000
0000003FF906FFC0000000
1810006FF600DFF4000061
6FA000BFF2006FFC0007F4
5FF727FFB0000DFFA59FD1
0BFFFFFE200004FFFFFD20
007DFEA20000004CED9100
0000000000000000000000
000000001DD10000000000
000000003FF20000000000
000000004FC00000000000
000000002E600000000000
ENDCHAR
STARTCHAR uni0137
ENCODING 311
SWIDTH 525 0
DWIDTH 11 0
BBX 12 24 1 -6
BITMAP
0002BEA00000
001DFFF60000
009FA8F80000
01FF26F80000
07FC08F40000
0CF80DE00000
1FF45F600000
4FF2DB000000
6FEBE2000000
9FFF47EE6000
BFF5BFFFF200
CF97F77FF300
DFAE907FE100
DFEE28FF6005
DFF99FE4009F
DFF49FF52AFB
BFD03FFFFFC1
6E7004CED810
000000000000
005E80000000
009FB0000000
00AF70000000
00BF20000000
009B00000000
ENDCHAR
STARTCHAR kgreenlandic
ENCODING 312
SWIDTH 465 0
DWIDTH 9 0
BBX 11 9 1 0
BITMAP
1CE23BED4000
6FE3EFFFD000
9FBBFB3FF000
CFAFF21FA000
EFDFF0020020
FFFFF1001BC0
FFFEFA23CF90
DFC5FFFFFA00
7E504CFD7000
ENDCHAR
STARTCHAR Lacute
ENCODING 313
SWIDTH 673 0
DWIDTH 13 0
BBX 17 23 -1 0
BITMAP
000000000000004600
00000000000008FF60
000000000001BFFE20
00000000002DFE8100
00000000006E710000
000000000000000000
000000000000000000
000000028CEFD91000
0000005EFFFFFFD100
000005FFE6229FF700
00001EFE20000FFA00
00006FF900001FF900
00009FF400001FF400
0000BFF20000012000
0000CFF00000000000
0000DFE00000000000
0000EFC00000000000
0000FFA00000000000
0001FF800000000040
08DFFFC620000008F0
9FFFFFFFFC7324AFB0
BFFFFCCFFFFFFFFB10
3CFE81016ADEEC7000
ENDCHAR
STARTCHAR lacute
ENCODING 314
SWIDTH 326 0
DWIDTH 7 0
BBX 11 24 1 0
BITMAP
000000001720
00000003DFC0
0000005FFF80
000008FFB300
00000DB30000
000000000000
0002BE900000
001DFFF40000
009F98F70000
01EF26F80000
07FC07F70000
0CF709F40000
1FF40DF10000
5FF13FA00000
7FD09F400000
AFB2FB000000
CFA9F4000000
DFCFB0000000
DFFE20000000
CFF500030000
BFC0008F1000
6FE439FC0000
1EFFFFC10000
03CFD8100000
ENDCHAR
STARTCHAR uni013B
ENCODING 315
SWIDTH 673 0
DWIDTH 13 0
BBX 17 21 -1 -5
BITMAP
000000028CEFD91000
0000005EFFFFFFD100
000005FFE6229FF700
00001EFE20000FFA00
00006FF900001FF900
00009FF400001FF400
0000BFF20000012000
0000CFF00000000000
0000DFE00000000000
0000EFC00000000000
0000FFA00000000000
0001FF800000000040
08DFFFC620000008F0
9FFFFFFFFC7324AFB0
BFFFFCCFFFFFFFFB10
3CFE81016ADEEC7000
000000000000000000
0000009E4000000000
000000EF7000000000
000000EF2000000000
000000CA0000000000
ENDCHAR
STARTCHAR uni013C
ENCODING 316
SWIDTH 326 0
DWIDTH 7 0
BBX 9 24 1 -6
BITMAP
0002BE9000
001DFFF400
009F98F700
01EF26F800
07FC07F700
0CF709F400
1FF40DF100
5FF13FA000
7FD09F4000
AFB2FB0000
CFA9F40000
DFCFB00000
DFFE200000
CFF5000300
BFC0008F10
6FE439FC00
1EFFFFC100
03CFD81000
0000000000
06E7000000
0BFA000000
0CF6000000
0CF1000000
0A90000000
ENDCHAR
STARTCHAR Lcaron
ENCODING 317
SWIDTH 673 0
DWIDTH 13 0
BBX 19 18 -1 0
BITMAP
00000000000000001840
00000000000000008FC0
000000028CEFD9109F90
0000005EFFFFFFD1AF40
000005FFE6229FF78C00
00001EFE20000FFA0000
00006FF900001FF90000
00009FF400001FF40000
0000BFF2000001200000
0000CFF0000000000000
0000DFE0000000000000
0000EFC0000000000000
0000FFA0000000000000
0001FF80000000004000
08DFFFC620000008F000
9FFFFFFFFC7324AFB000
BFFFFCCFFFFFFFFB1000
3CFE81016ADEEC700000
ENDCHAR
STARTCHAR lcaron
ENCODING 318
SWIDTH 237 0
DWIDTH 5 0
BBX 9 19 0 0
BITMAP
0000002830
000000AFA0
000000BF70
0009F8CF20
001FF9AA00
005FF60000
008FF20000
00BFD00000
00EFA00000
03FF600000
06FF300000
08FE000000
0BFB000000
0DF9000000
0FF7003000
1FF505F400
1FF76FE100
0DFFFE3000
04DEB20000
ENDCHAR
STARTCHAR Ldot
ENCODING 319
SWIDTH 673 0
DWIDTH 13 0
BBX 17 16 -1 0
BITMAP
000000028CEFD91000
0000005EFFFFFFD100
000005FFE6229FF700
00001EFE20000FFA00
00006FF900001FF900
00009FF400001FF400
0000BFF20000012000
0000CFF009ED200000
0000DFE02FFF500000
0000EFC00BFB100000
0000FFA00000000000
0001FF800000000040
08DFFFC620000008F0
9FFFFFFFFC7324AFB0
BFFFFCCFFFFFFFFB10
3CFE81016ADEEC7000
ENDCHAR
STARTCHAR ldot
ENCODING 320
SWIDTH 363 0
DWIDTH 7 0
BBX 9 18 1 0
BITMAP
002DE20000
008FF20000
00CFD00000
01FF900000
05FF600000
08FF200000
0CFD000000
0FFA000000
3FF69EA000
6FF5FFF100
9FE1BE8000
BFB0000000
EFA0000000
FF90000010
FFA0000AC0
CFF525CF90
6FFFFFF900
05CEEB4000
ENDCHAR
STARTCHAR Lslash
ENCODING 321
SWIDTH 673 0
DWIDTH 13 0
BBX 17 20 -1 0
BITMAP
000000016ADEFED700
0000008FFFFFFFFF20
000003FFE942211000
000000740000000000
000000018CEFD81000
0000005EFFFFFFD100
000004FFD6229FF700
00001EFE20000FFA00
00005FF800001FF900
00009FF400002FF500
0000BFF20000044000
0000DFF00000000000
0000EFD00000000000
0000FFC00000000000
0000FFA00000000000
0001FF800000000040
08DFFFC620000008F0
9FFFFFFFFC7324AFB0
BFFFFCCFFFFFFFFB10
3CFE81016ADEEC7000
ENDCHAR
STARTCHAR lslash
ENCODING 322
SWIDTH 326 0
DWIDTH 7 0
BBX 11 20 1 0
BITMAP
00016ADFEC50
006EFFFFFFB0
04FFE8321100
04FA20000000
0014CE900000
004FFFF50000
00DF88F80000
06FE06F80000
0CF808F60000
2FF30CF20000
6FE02FB00000
9FC0AF400000
BFA4F9000000
DFADE1000000
DFFF50000000
CFF700020000
BFC0007F1000
6FE439FC0000
1EFFFFD20000
03CFD8100000
ENDCHAR
STARTCHAR Nacute
ENCODING 323
SWIDTH 884 0
DWIDTH 18 0
BBX 21 23 0 0
BITMAP
0000000000000046000000
00000000000009FF500000
000000000001BFFD200000
00000000002DFE71000000
00000000006D7100000000
0000000000000000000000
0000000000000000000000
003AEE90003AEEC4000000
06FFFFF406FFFFFF200000
6FD56FF64FC42AFF700000
ED103FF6DB1005FF800000
72004FFAE10006FF700000
00006FFE700009FF400000
00008FFE10000DFF100000
0000BFF900001FFC000000
0000DFF400005FF9000000
0000FFF100008FF5000000
0003FFC00000BFF2000000
0006FF800000DFF0000100
0008FF600000EFE0004F30
000AFF300000BFF627FE10
000BFF1000005FFFFFE300
0007FA00000005CED91000
ENDCHAR
STARTCHAR nacute
ENCODING 324
SWIDTH 496 0
DWIDTH 10 0
BBX 12 16 1 0
BITMAP
0000003E9000
000000BFE000
000003FF6000
00000AFA0000
00002FC10000
00004D200000
000000000000
1CE208ED1000
6FE1BFFF3000
9FB8FFFF1000
CFAF98FD0000
EFEE1AFA0021
FFF70DF703E7
FFF20FF95EF3
DFC00EFFFF50
7E5006EEB300
ENDCHAR
STARTCHAR uni0145
ENCODING 325
SWIDTH 884 0
DWIDTH 18 0
BBX 21 21 0 -5
BITMAP
003AEE90003AEEC4000000
06FFFFF406FFFFFF200000
6FD56FF64FC42AFF700000
ED103FF6DB1005FF800000
72004FFAE10006FF700000
00006FFE700009FF400000
00008FFE10000DFF100000
0000BFF900001FFC000000
0000DFF400005FF9000000
0000FFF100008FF5000000
0003FFC00000BFF2000000
0006FF800000DFF0000100
0008FF600000EFE0004F30
000AFF300000BFF627FE10
000BFF1000005FFFFFE300
0007FA00000005CED91000
0000000000000000000000
00000007E6000000000000
0000000BF9000000000000
0000000CF4000000000000
0000000AC0000000000000
ENDCHAR
STARTCHAR uni0146
ENCODING 326
SWIDTH 496 0
DWIDTH 10 0
BBX 12 15 1 -6
BITMAP
1CE208ED1000
6FE1BFFF3000
9FB8FFFF1000
CFAF98FD0000
EFEE1AFA0021
FFF70DF703E7
FFF20FF95EF3
DFC00EFFFF50
7E5006EEB300
000000000000
005E80000000
009FB0000000
00AF70000000
00BF20000000
009B00000000
ENDCHAR
STARTCHAR Ncaron
ENCODING 327
SWIDTH 884 0
DWIDTH 18 0
BBX 21 23 0 0
BITMAP
000000007E400BD0000000
000000007FA08FC0000000
000000001EF4FE20000000
0000000008FEF500000000
0000000001CE7000000000
0000000000000000000000
0000000000000000000000
003AEE90003AEEC4000000
06FFFFF406FFFFFF200000
6FD56FF64FC42AFF700000
ED103FF6DB1005FF800000
72004FFAE10006FF700000
00006FFE700009FF400000
00008FFE10000DFF100000
0000BFF900001FFC000000
0000DFF400005FF9000000
0000FFF100008FF5000000
0003FFC00000BFF2000000
0006FF800000DFF0000100
0008FF600000EFE0004F30
000AFF300000BFF627FE10
000BFF1000005FFFFFE300
0007FA00000005CED91000
ENDCHAR
STARTCHAR ncaron
ENCODING 328
SWIDTH 496 0
DWIDTH 10 0
BBX 12 17 1 0
BITMAP
000640016200
002FF00BF700
001FF24FE100
000BF4BF6000
0008F9FC0000
0004FFF40000
0000BE700000
000000000000
1CE208ED1000
6FE1BFFF3000
9FB8FFFF1000
CFAF98FD0000
EFEE1AFA0021
FFF70DF703E7
FFF20FF95EF3
DFC00EFFFF50
7E5006EEB300
ENDCHAR
STARTCHAR napostrophe
ENCODING 329
SWIDTH 496 0
DWIDTH 10 0
BBX 14 15 -1 0
BITMAP
09E30000000000
0FF60000000000
0FF20000000000
1FD00000000000
0D600000000000
00000000000000
001CE208ED1000
006FE1BFFF3000
009FB8FFFF1000
00CFAF98FD0000
00EFEE1AFA0021
00FFF70DF703E7
00FFF20FF95EF3
00DFC00EFFFF50
007E5006EEB300
ENDCHAR
STARTCHAR Eng
ENCODING 330
SWIDTH 884 0
DWIDTH 18 0
BBX 21 23 0 -7
BITMAP
003AEE90003AEEC4000000
07FFFFF406FFFFFE200000
6FD56FF64FC42BFF600000
ED103FF6DB1006FF700000
62004FFAE10007FF500000
00006FFE70000AFF300000
00008FFE10000DFF000000
0000BFF900001FFC000000
0000DFF400005FF8000000
0001FFF100008FF4000000
0003FFC00000BFF1000000
0006FF800000EFC0000100
0008FF600003FF80004F30
000AFF300006FFB426EE10
000BFF10000AFFFFFFE300
0006EA00000DFDBEEA2000
00000000002FF600000000
00000000006FF200000000
0000100000CFB000000000
0006F80003FF4000000000
0008FF924DFA0000000000
0001CFFFFFD10000000000
000007DFE9100000000000
ENDCHAR
STARTCHAR eng
ENCODING 331
SWIDTH 495 0
DWIDTH 10 0
BBX 13 15 0 -6
BITMAP
01CE208ED10000
06FE1BFFF30000
09FB8FFFF10000
0CFAF98FD00000
0EFEE1AFA00310
0FFF70DF603E70
0FFF21FF56EF30
0DFC04FFFFF500
07E508FFEA3000
00000CF6000000
00001FF1000000
06207FA0000000
5F81EF30000000
2FEDF800000000
07EE7000000000
ENDCHAR
STARTCHAR Omacron
ENCODING 332
SWIDTH 816 0
DWIDTH 16 0
BBX 15 21 1 0
BITMAP
0000001111100000
000003FFFFFD0000
000003EFFFFC0000
0000000000000000
0000000000000000
000005BEFEB60000
0003CFFFFFFFB100
003EFF9424CFFB00
01EFF400001CFF50
09FF70000005FFA0
1EFE00000001FFD0
5FF900000000FFE0
8FF600000001FFD0
AFF400000002FFC0
BFF400000006FF80
9FF50000000AFF40
7FF80000003FFC00
2FFE200002DFF300
08FFD5237EFF6000
009FFFFFFFE40000
0004ADFEC7100000
ENDCHAR
STARTCHAR omacron
ENCODING 333
SWIDTH 451 0
DWIDTH 9 0
BBX 12 13 0 0
BITMAP
000111110000
00BFFFFF5000
00BFFFFF4000
000000000000
002AEEB20000
03EFFFFE2000
0CFD4EFF7121
2FF60BFFFFFA
4FF302DFFFD5
4FF400DF6000
1FFB28FE0000
08FFFFF50000
007DFC500000
ENDCHAR
STARTCHAR Obreve
ENCODING 334
SWIDTH 816 0
DWIDTH 16 0
BBX 15 22 1 0
BITMAP
0000056000036000
00000FF9227FF200
00000AFFFFFF9000
0000007CFEC60000
0000000000000000
0000000000000000
000005BEFEB60000
0003CFFFFFFFB100
003EFF9424CFFB00
01EFF400001CFF50
09FF70000005FFA0
1EFE00000001FFD0
5FF900000000FFE0
8FF600000001FFD0
AFF400000002FFC0
BFF400000006FF80
9FF50000000AFF40
7FF80000003FFC00
2FFE200002DFF300
08FFD5237EFF6000
009FFFFFFFE40000
0004ADFEC7100000
ENDCHAR
STARTCHAR obreve
ENCODING 335
SWIDTH 451 0
DWIDTH 9 0
BBX 12 15 0 0
BITMAP
017200006200
08FA0007F900
06FF726FF600
01DFFFFFB000
0019EFD70000
000000000000
002AEEB20000
03EFFFFE2000
0CFD4EFF7121
2FF60BFFFFFA
4FF302DFFFD5
4FF400DF6000
1FFB28FE0000
08FFFFF50000
007DFC500000
ENDCHAR
STARTCHAR Ohungarumlaut
ENCODING 336
SWIDTH 816 0
DWIDTH 16 0
BBX 15 23 1 0
BITMAP
0000000360064000
0000000EF54FF000
0000004FF29FB000
0000008F80EF2000
0000009C01D70000
0000000000000000
0000000000000000
000005BEFEB60000
0003CFFFFFFFB100
003EFF9424CFFB00
01EFF400001CFF50
09FF70000005FFA0
1EFE00000001FFD0
5FF900000000FFE0
8FF600000001FFD0
AFF400000002FFC0
BFF400000006FF80
9FF50000000AFF40
7FF80000003FFC00
2FFE200002DFF300
08FFD5237EFF6000
009FFFFFFFE40000
0004ADFEC7100000
ENDCHAR
STARTCHAR ohungarumlaut
ENCODING 337
SWIDTH 451 0
DWIDTH 9 0
BBX 12 16 0 0
BITMAP
00009E32DB00
0002FF77FF10
0006FE1CFA00
000BF62FE200
001FC06F7000
002E307C0000
000000000000
002AEEB20000
03EFFFFE2000
0CFD4EFF7121
2FF60BFFFFFA
4FF302DFFFD5
4FF400DF6000
1FFB28FE0000
08FFFFF50000
007DFC500000
ENDCHAR
STARTCHAR OE
ENCODING 338
SWIDTH 1124 0
DWIDTH 22 0
BBX 24 16 1 0
BITMAP
000005BEFEB6004CFFFFFF90
0003CFFFFFFFC2EFFFFFFF80
003EFF9424CFFEFF82111100
01EFF500001CFFFF30000000
09FF70000005FFFE00000000
1EFE00000001FFFA00000000
5FF900000000FFF700000000
8FF600000001FFFFFFFFF300
AFF400000002FFFFFFFFE300
BFF400000006FFD111110000
9FF50000000AFFB000000000
7FF80000003FFFC000000000
2FFE200002DFFFF300000025
08FFD5237EFEAFFE73236BFE
009FFFFFFFD30AFFFFFFFFE5
0004ADFEB600005ADEFDA610
ENDCHAR
STARTCHAR oe
ENCODING 339
SWIDTH 668 0
DWIDTH 13 0
BBX 16 9 0 0
BITMAP
002AEE904CED4000
03EFFFFCFFFFE100
0CFD37FFF73EF300
2FF500EFC03FE000
4FF300DFB8EF5003
4FF301FFFE9301BD
1FFA2AFFF7238EFA
09FFFFECFFFFFF90
008DEB318DFDA400
ENDCHAR
STARTCHAR Racute
ENCODING 340
SWIDTH 880 0
DWIDTH 18 0
BBX 20 23 1 0
BITMAP
00000000000037100000
000000000006FF800000
00000000009FFE400000
000000001BFF92000000
000000003E9200000000
00000000000000000000
00000000000000000000
0000039CEFEC71000000
0002BFFFFFFFFD200000
003EFE84236DFFC00000
01DFB1153002FFF20000
09FD00CFD000DFF20000
1FF401FFB000EFE00000
6FD004FF8008FF700000
AF8007FF74AFFA000000
CF60DFFFFFFC50000000
DF50CFFFFFE500000000
DF500EFC4DFF50000000
CF602FF904FFD1000010
8FA05FF700BFF80005F2
3FF5AFF4003FFF627FD1
08FFFFE00007FFFFFD20
006CED4000006DFD8100
ENDCHAR
STARTCHAR racute
ENCODING 341
SWIDTH 455 0
DWIDTH 9 0
BBX 11 16 1 0
BITMAP
0000009E3000
000003FF7000
00000AFD1000
00002FF30000
00008F600000
0000A9000000
000000000000
1CE208ED1000
6FE1BFFF3000
9FB8FEFF1000
CFAF97FE19C0
EFEE17FFFFA0
FFF702EFF900
FFF200021000
DFC000000000
7E5000000000
ENDCHAR
STARTCHAR uni0156
ENCODING 342
SWIDTH 880 0
DWIDTH 18 0
BBX 20 21 1 -5
BITMAP
0000039CEFEC71000000
0002BFFFFFFFFD200000
003EFE84236DFFC00000
01DFB1153002FFF20000
09FD00CFD000DFF20000
1FF401FFB000EFE00000
6FD004FF8008FF700000
AF8007FF74AFFA000000
CF60DFFFFFFC50000000
DF50CFFFFFE500000000
DF500EFC4DFF50000000
CF602FF904FFD1000010
8FA05FF700BFF80005F2
3FF5AFF4003FFF627FD1
08FFFFE00007FFFFFD20
006CED4000006DFD8100
00000000000000000000
00000003EB0000000000
00000007FE0000000000
00000007F90000000000
00000005E30000000000
ENDCHAR
STARTCHAR uni0157
ENCODING 343
SWIDTH 455 0
DWIDTH 9 0
BBX 12 15 0 -6
BITMAP
01CE208ED100
06FE1BFFF300
09FB8FEFF100
0CFAF97FE19C
0EFEE17FFFFA
0FFF702EFF90
0FFF20002100
0DFC00000000
07E500000000
000000000000
0BE200000000
1FF400000000
2FF100000000
3FA000000000
2E4000000000
ENDCHAR
STARTCHAR Rcaron
ENCODING 344
SWIDTH 880 0
DWIDTH 18 0
BBX 20 23 1 0
BITMAP
0000004E6009E3000000
0000004FD05FE1000000
0000000CF5DF50000000
00000004FEF900000000
000000009FA000000000
00000000000000000000
00000000000000000000
0000039CEFEC71000000
0002BFFFFFFFFD200000
003EFE84236DFFC00000
01DFB1153002FFF20000
09FD00CFD000DFF20000
1FF401FFB000EFE00000
6FD004FF8008FF700000
AF8007FF74AFFA000000
CF60DFFFFFFC50000000
DF50CFFFFFE500000000
DF500EFC4DFF50000000
CF602FF904FFD1000010
8FA05FF700BFF80005F2
3FF5AFF4003FFF627FD1
08FFFFE00007FFFFFD20
006CED4000006DFD8100
ENDCHAR
STARTCHAR rcaron
ENCODING 345
SWIDTH 455 0
DWIDTH 9 0
BBX 11 17 1 0
BITMAP
002710046000
009F803FF000
007FA0AF8000
003FC3FE1000
000EEAF60000
000BFFC00000
0004EC200000
000000000000
1CE208ED1000
6FE1BFFF3000
9FB8FEFF1000
CFAF97FE19C0
EFEE17FFFFA0
FFF702EFF900
FFF200021000
DFC000000000
7E5000000000
ENDCHAR
STARTCHAR Sacute
ENCODING 346
SWIDTH 693 0
DWIDTH 14 0
BBX 14 23 0 0
BITMAP
00000000000172
00000000003DFC
0000000006FFF8
000000008FFB30
00000000DA3000
00000000000000
00000000000000
000028CEFEB710
0006FFFFFFFFD1
004FFD63239FF9
00BFF200000CFC
00DFE000000CFB
00BFF6000009E5
005FFFA3000000
0006FFFFC61000
000029EFFFE600
00000005CFFF60
0BE3000006FFE0
4FF5000000BFF1
4FF6000000DFE0
1FFE63225CFF90
06FFFFFFFFFA10
0029CEFED94000
ENDCHAR
STARTCHAR sacute
ENCODING 347
SWIDTH 427 0
DWIDTH 9 0
BBX 13 16 -1 0
BITMAP
00000003E90000
0000000BFE0000
0000003FF60000
000000AFA00000
000002FC100000
000004D2000000
00000000000000
00002CF2000000
0000AFC0000000
0002FFB0000000
000AFFF6000000
005F9CFF301700
02EE12FFA1CF10
1DF59AEFEEFC00
2D56FFFFFFE200
0001BFFFE91000
ENDCHAR
STARTCHAR Scircumflex
ENCODING 348
SWIDTH 693 0
DWIDTH 14 0
BBX 14 23 0 0
BITMAP
00000003CF8000
0000002EEDF200
000000BF88F900
000007FE14FE00
000009E400CD10
00000000000000
00000000000000
000028CEFEB710
0006FFFFFFFFD1
004FFD63239FF9
00BFF200000CFC
00DFE000000CFB
00BFF6000009E5
005FFFA3000000
0006FFFFC61000
000029EFFFE600
00000005CFFF60
0BE3000006FFE0
4FF5000000BFF1
4FF6000000DFE0
1FFE63225CFF90
06FFFFFFFFFA10
0029CEFED94000
ENDCHAR
STARTCHAR scircumflex
ENCODING 349
SWIDTH 427 0
DWIDTH 9 0
BBX 13 17 -1 0
BITMAP
00000056100000
000007FF800000
00002FEFC00000
0000AF7EF10000
0004FE1CF50000
000DF70AF80000
000DB005E60000
00000000000000
00002CF2000000
0000AFC0000000
0002FFB0000000
000AFFF6000000
005F9CFF301700
02EE12FFA1CF10
1DF59AEFEEFC00
2D56FFFFFFE200
0001BFFFE91000
ENDCHAR
STARTCHAR Scedilla
ENCODING 350
SWIDTH 693 0
DWIDTH 14 0
BBX 14 22 0 -6
BITMAP
000028CEFEB710
0006FFFFFFFFC1
004FFD63239FF9
00BFF200000CFC
00DFE000000CFC
00CFF500000AF6
006FFF81000010
0008FFFFA40000
00004BFFFFC300
00000028EFFF40
08B2000008FFD0
3FF6000000BFF1
4FF5000000CFF1
2FFC300019FFB0
09FFFEDEFFFD20
007EFFFFFE9100
0000BFFF800000
0000007FB00000
0000018FB00000
000DFFFF500000
000CFFD5000000
00001000000000
ENDCHAR
STARTCHAR scedilla
ENCODING 351
SWIDTH 427 0
DWIDTH 9 0
BBX 13 14 -1 -5
BITMAP
00002CF2000000
00009FD0000000
0002FFA0000000
0009FFE2000000
003FDFFC000000
01DF47FF704E10
0BF800EFB5EE00
2F93DEFFFFE400
0207FFFFEA2000
0009FFF8000000
000005FD000000
000004FC000000
008CCFF6000000
009FFC50000000
ENDCHAR
STARTCHAR Scaron
ENCODING 352
SWIDTH 693 0
DWIDTH 14 0
BBX 14 23 0 0
BITMAP
000001DA005E60
000001EF31EF40
0000008F8AF800
0000001EEFC000
00000005EC2000
00000000000000
00000000000000
000028CEFEB710
0006FFFFFFFFD1
004FFD63239FF9
00BFF200000CFC
00DFE000000CFB
00BFF6000009E5
005FFFA3000000
0006FFFFC61000
000029EFFFE600
00000005CFFF60
0BE3000006FFE0
4FF5000000BFF1
4FF6000000DFE0
1FFE63225CFF90
06FFFFFFFFFA10
0029CEFED94000
ENDCHAR
STARTCHAR scaron
ENCODING 353
SWIDTH 427 0
DWIDTH 9 0
BBX 13 17 -1 0
BITMAP
00006400162000
0002FF00BF7000
0001FF24FE1000
0000BF4BF60000
00008F9FC00000
00004FFF400000
00000BE7000000
00000000000000
00002CF2000000
0000AFC0000000
0002FFB0000000
000AFFF6000000
005F9CFF301700
02EE12FFA1CF10
1DF59AEFEEFC00
2D56FFFFFFE200
0001BFFFE91000
ENDCHAR
STARTCHAR uni0162
ENCODING 354
SWIDTH 697 0
DWIDTH 14 0
BBX 18 22 0 -6
BITMAP
000269BDEFFFFFFFD9
01AFFFFFFFFFFFFFFE
0BFE8432DFF2112331
3FF40001FFC0000000
4FF20004FF90000000
1FF70008FF60000000
0592000BFF30000000
0000000DFF00000000
0000001FFC00000000
0000003FF900000000
0000006FF700000000
0000009FF500000000
000000BFF300000000
000000DFF100000000
000000FFE000000000
00000CFFB000000000
00000EFFF500000000
0000002AF900000000
0000001AF800000000
0002EFFFE200000000
0001EFFC3000000000
000001000000000000
ENDCHAR
STARTCHAR uni0163
ENCODING 355
SWIDTH 393 0
DWIDTH 8 0
BBX 11 23 0 -6
BITMAP
000008EC1000
00008FFF8000
0003FD6FA000
000AF73F9000
001FF26F6000
006FD0CE1000
00AFA7F70000
00DFCF900000
CFFFFFFFD000
DFFFFFFF8000
04FF51100000
03FF30000000
03FF40000100
01FF60002D50
00DFD204EF40
005FFFFFF600
003EFFFC4000
005CEFB00000
00001EF00000
00004FE00000
07FFFF900000
07FFE8000000
001100000000
ENDCHAR
STARTCHAR Tcaron
ENCODING 356
SWIDTH 697 0
DWIDTH 14 0
BBX 18 23 0 0
BITMAP
00000006E400BE1000
00000006FB07FC0000
00000001EF4EE20000
000000007FEF600000
000000000BE8000000
000000000000000000
000000000000000000
000269BDEFFFFFFFD9
019FFFFFFFFFFFFFFE
0BFE8432DFF2112331
3FF40001FFC0000000
4FF20004FF90000000
1FF70007FF60000000
05A2000AFF30000000
0000000DFF00000000
0000001FFC00000000
0000003FFA00000000
0000006FF700000000
0000008FF500000000
000000BFF300000000
000000DFF100000000
000000FFE000000000
000000BF8000000000
ENDCHAR
STARTCHAR tcaron
ENCODING 357
SWIDTH 343 0
DWIDTH 7 0
BBX 10 19 0 0
BITMAP
0000000580
0000001FF4
0000002FF1
0000003FB0
0007EA2E50
000EFB0000
003FF70000
007FF30000
00AFE00000
8FFFFFFD00
9FFFFFE800
04FF400000
06FF100000
08FF000000
09FE000052
09FF0005F6
06FF727FE2
01EFFFFE40
003BFE9200
ENDCHAR
STARTCHAR Tbar
ENCODING 358
SWIDTH 697 0
DWIDTH 14 0
BBX 18 16 0 0
BITMAP
000269BDEFFFFFFFD9
01AFFFFFFFFFFFFFFE
0BFE8432DFE2112331
3FF40001FFC0000000
4FF20005FF90000000
1FF70008FF60000000
0481000BFF20000000
0002DFFFFFFFE20000
0004FFFFFFFFE20000
0000114FFA11000000
0000006FF700000000
0000008FF500000000
000000BFF300000000
000000DFF100000000
000000FFE000000000
000000BF8000000000
ENDCHAR
STARTCHAR tbar
ENCODING 359
SWIDTH 343 0
DWIDTH 7 0
BBX 11 15 -1 0
BITMAP
00007EA00000
0000EFB00000
0003FF700000
0007FF300000
000AFE000000
08FFFFFFD000
09FFFFFE8000
004FF5000000
016FF4110000
1EFFFFFF2000
09DFFBA70100
009FE0003E60
007FF626EF30
002EFFFFF500
0003BEEA2000
ENDCHAR
STARTCHAR Utilde
ENCODING 360
SWIDTH 890 0
DWIDTH 18 0
BBX 21 22 0 0
BITMAP
00000001BE910172000000
0000000BFFFD4CF6000000
0000004FD3BFFFD1000000
000000172007ED30000000
0000000000000000000000
0000000000000000000000
003AEEB2000000BE500000
06FFFFFA000002FFA00000
6FE63FFD000004FF900000
ED200FFD000007FF700000
72001FFB00000AFF400000
00005FF900000DFF200000
00008FF500002FFE000000
0000CFF100007FFB000000
0000FFD00000CFF9000000
0003FF900003FFF7000000
0007FF60000BEFF4000000
000AFF30005FAFF3000310
000BFF3004EA9FF3006F50
000AFFC7AFE28FFC7AFE20
0004FFFFFE404FFFFFE400
00006CEE920005CEE92000
ENDCHAR
STARTCHAR utilde
ENCODING 361
SWIDTH 462 0
DWIDTH 9 0
BBX 11 14 1 0
BITMAP
00AE91016200
09FFFD4AF600
1FE3BFFFD100
063006ED3000
000000000000
0BF303EA0000
4FF10AF90000
8FD00EF60000
CFA05FF30000
EF70CFE00130
FF66FFC01CB0
FFEFDFD3CF80
CFFE6FFFF900
3DD41BEC5000
ENDCHAR
STARTCHAR Umacron
ENCODING 362
SWIDTH 890 0
DWIDTH 18 0
BBX 21 21 0 0
BITMAP
0000000011111000000000
00000003FFFFFE00000000
00000003EFFFFC00000000
0000000000000000000000
0000000000000000000000
003AEEB2000000BE500000
06FFFFFA000002FFA00000
6FE63FFD000004FF900000
ED200FFD000007FF700000
72001FFB00000AFF400000
00005FF900000DFF200000
00008FF500002FFE000000
0000CFF100007FFB000000
0000FFD00000CFF9000000
0003FF900003FFF7000000
0007FF60000BEFF4000000
000AFF30005FAFF3000310
000BFF3004EA9FF3006F50
000AFFC7AFE28FFC7AFE20
0004FFFFFE404FFFFFE400
00006CEE920005CEE92000
ENDCHAR
STARTCHAR umacron
ENCODING 363
SWIDTH 462 0
DWIDTH 9 0
BBX 11 13 1 0
BITMAP
001111110000
02FFFFFE1000
02EFFFFD0000
000000000000
0BF303EA0000
4FF10AF90000
8FD00EF60000
CFA05FF30000
EF70CFE00130
FF66FFC01CB0
FFEFDFD3CF80
CFFE6FFFF900
3DD41BEC5000
ENDCHAR
STARTCHAR Ubreve
ENCODING 364
SWIDTH 890 0
DWIDTH 18 0
BBX 21 22 0 0
BITMAP
0000000460000360000000
0000000FF9227FF2000000
00000009FFFFFFA0000000
000000007CEEC600000000
0000000000000000000000
0000000000000000000000
003AEEB2000000BE500000
06FFFFFA000002FFA00000
6FE63FFD000004FF900000
ED200FFD000007FF700000
72001FFB00000AFF400000
00005FF900000DFF200000
00008FF500002FFE000000
0000CFF100007FFB000000
0000FFD00000CFF9000000
0003FF900003FFF7000000
0007FF60000BEFF4000000
000AFF30005FAFF3000310
000BFF3004EA9FF3006F50
000AFFC7AFE28FFC7AFE20
0004FFFFFE404FFFFFE400
00006CEE920005CEE92000
ENDCHAR
STARTCHAR ubreve
ENCODING 365
SWIDTH 462 0
DWIDTH 9 0
BBX 11 15 1 0
BITMAP
046000026000
0DF5000DF300
0BFD42AFE100
04FFFFFF6000
004BEEB40000
000000000000
0BF303EA0000
4FF10AF90000
8FD00EF60000
CFA05FF30000
EF70CFE00130
FF66FFC01CB0
FFEFDFD3CF80
CFFE6FFFF900
3DD41BEC5000
ENDCHAR
STARTCHAR Uring
ENCODING 366
SWIDTH 890 0
DWIDTH 18 0
BBX 21 25 0 0
BITMAP
0000000000010000000000
0000000006EFB100000000
000000003FFFF900000000
000000007F72FC00000000
000000007F84FC00000000
000000003FFFF600000000
0000000006DE8000000000
0000000000000000000000
0000000000000000000000
003AEEB2000000BE500000
06FFFFFA000002FFA00000
6FE63FFD000004FF900000
ED200FFD000007FF700000
72001FFB00000AFF400000
00005FF900000DFF200000
00008FF500002FFE000000
0000CFF100007FFB000000
0000FFD00000CFF9000000
0003FF900003FFF7000000
0007FF60000BEFF4000000
000AFF30005FAFF3000310
000BFF3004EA9FF3006F50
000AFFC7AFE28FFC7AFE20
0004FFFFFE404FFFFFE400
00006CEE920005CEE92000
ENDCHAR
STARTCHAR uring
ENCODING 367
SWIDTH 462 0
DWIDTH 9 0
BBX 11 17 1 0
BITMAP
000001000000
0005EFB10000
002FFFFA0000
006F82ED0000
006F93ED0000
002FFFF80000
0005DE800000
000000000000
0BF303EA0000
4FF10AF90000
8FD00EF60000
CFA05FF30000
EF70CFE00130
FF66FFC01CB0
FFEFDFD3CF80
CFFE6FFFF900
3DD41BEC5000
ENDCHAR
STARTCHAR Uhungarumlaut
ENCODING 368
SWIDTH 890 0
DWIDTH 18 0
BBX 21 23 0 0
BITMAP
0000000003600640000000
000000000DF64FF0000000
000000003FF39FC0000000
000000008F80EF30000000
000000008C10D700000000
0000000000000000000000
0000000000000000000000
003AEEB2000000BE500000
06FFFFFA000002FFA00000
6FE63FFD000004FF900000
ED200FFD000007FF700000
72001FFB00000AFF400000
00005FF900000DFF200000
00008FF500002FFE000000
0000CFF100007FFB000000
0000FFD00000CFF9000000
0003FF900003FFF7000000
0007FF60000BEFF4000000
000AFF30005FAFF3000310
000BFF3004EA9FF3006F50
000AFFC7AFE28FFC7AFE20
0004FFFFFE404FFFFFE400
00006CEE920005CEE92000
ENDCHAR
STARTCHAR uhungarumlaut
ENCODING 369
SWIDTH 462 0
DWIDTH 9 0
BBX 11 16 1 0
BITMAP
0001DC06E700
0007FF2DFB00
000CFA2FF500
001FE27FA000
006F70CE2000
007C00C70000
000000000000
0BF303EA0000
4FF10AF90000
8FD00EF60000
CFA05FF30000
EF70CFE00130
FF66FFC01CB0
FFEFDFD3CF80
CFFE6FFFF900
3DD41BEC5000
ENDCHAR
STARTCHAR Uogonek
ENCODING 370
SWIDTH 890 0
DWIDTH 18 0
BBX 21 21 0 -5
BITMAP
003AEEB2000000BE500000
06FFFFFA000002FFA00000
5FE63FFD000004FF900000
EE200FFD000007FF700000
83001FFC000009FF500000
00005FF900000DFF200000
00008FF600001FFE000000
0000CFF200006FFC000000
0000FFE00000BFF9000000
0003FFA00002FFF7000000
0007FF700009FFF5000000
000AFF30003FBFF3000000
000BFF2001DC9FF3002D40
000AFF825DE39FF925EF30
0004FFFFFE404FFFFFF600
00006CEEA20006DFFC4000
000000000000009F900000
00000000000000FF100000
00000000000001FF413000
00000000000000BFFFF200
0000000000000018BC8000
ENDCHAR
STARTCHAR uogonek
ENCODING 371
SWIDTH 462 0
DWIDTH 9 0
BBX 11 14 1 -5
BITMAP
0BF303EA0000
4FF10AF90000
8FD00EF60000
CFA05FF30000
EF70CFE00130
FF66FFC01CB0
FFEFDFD3CF80
CFFE6FFFF900
3DD41EFE5000
00009FA10000
0001FE000000
0001FF313000
0000BFFFF100
000017AA5000
ENDCHAR
STARTCHAR Wcircumflex
ENCODING 372
SWIDTH 1217 0
DWIDTH 24 0
BBX 26 23 2 0
BITMAP
000000000009ED200000000000
00000000008FDF900000000000
0000000004FE2FF10000000000
000000001EF60CF70000000000
000000003EA006E60000000000
00000000000000000000000000
00000000000000000000000000
08E90000004EE100019EE91000
1FFD000000BFF3000BFFFF8000
2FFB000000EFF1004FD3BFD000
4FF9000002FFE0007F808FD000
6FF7000006FFC0008F709FC000
7FF600000AFFB0007FA0CF9000
8FF400000EFFA0002FF6FF5000
8FF400004FFFA00009FFFF4210
8FF400009FFFA000009FFFFFF2
8FF40001EFFFA000007FFCEFD1
6FF60007FEBFB00002EFA00000
4FF8002EF79FD0000CFE100000
1FFD00BFD16FF401AFF5000000
0AFFCDFF402FFEADFF60000000
03FFFFF7000AFFFFF600000000
005DFC400001AEEA3000000000
ENDCHAR
STARTCHAR wcircumflex
ENCODING 373
SWIDTH 700 0
DWIDTH 14 0
BBX 16 17 1 0
BITMAP
0000003720000000
000003FFC0000000
00000CFEF2000000
00006FC9F6000000
0001EF47F9000000
0008FB05FD000000
0009D302DB000000
0000000000000000
BE4008E401BE7000
FF601FF609FFB000
FF708FF70BFF8142
EF71EFF809FFFFFA
EF87FFF82FFDFFC3
DFADFAFABFB00000
BFEFA8FEFE200000
8FFF35FFF6000000
2CE600BE70000000
ENDCHAR
STARTCHAR Ycircumflex
ENCODING 374
SWIDTH 851 0
DWIDTH 17 0
BBX 20 30 0 -7
BITMAP
00000000009EC1000000
0000000009FDF9000000
000000005FD2FE100000
00000002EF60DF600000
00000004EA006E500000
00000000000000000000
00000000000000000000
003AEEB2000000AE7000
06FFFFFA000002FFB000
5FE63FFD000004FF9000
EE200FFD000007FF7000
83002FFC00000AFF5000
00004FF900000DFF2000
00008FF600003FFF0000
0000BFF200008FFD0000
0000EFE00001EFFB0000
0001FFB00008EFF80000
0002FFB0004FAFF60000
0000FFE427FC6FF40010
00009FFFFFD27FF9BEF2
000008DFD837DFFFFFB0
000000003AFDFFD63000
00000019FC41FF900000
000001CF7004FF600000
00000AF90009FF100000
00001FF5002EFA000000
00002FF913CFE2000000
00000DFFFFFF50000000
000002BFFEA300000000
00000000100000000000
ENDCHAR
STARTCHAR ycircumflex
ENCODING 375
SWIDTH 479 0
DWIDTH 10 0
BBX 13 26 -1 -9
BITMAP
00000017400000
000000CFF20000
000007FEF60000
00002EF6FA0000
0000AF83FE0000
0003FE11FF2000
0005E700BD1000
00000000000000
000BF303EA0000
004FF10AFA0000
008FD00EF70000
00CFA05FF50000
00EF70CFF20120
00FF66FFE05EB0
00FFEFEFDAFF50
00CFFEAFFFC300
003DD4BFF70000
00001AFF500000
0001CFFF100000
001CFAFD000000
00BF59F9000000
07F80DF4000000
0DF14FD0000000
1FE3DF60000000
0EFFFC00000000
04DEA100000000
ENDCHAR
STARTCHAR Ydieresis
ENCODING 376
SWIDTH 851 0
DWIDTH 17 0
BBX 20 28 0 -7
BITMAP
00000001BE60AE800000
00000004FFA1FFD00000
00000001DE40BE600000
00000000000000000000
00000000000000000000
003AEEB2000000AE7000
06FFFFFA000002FFB000
5FE63FFD000004FF9000
EE200FFD000007FF7000
83002FFC00000AFF5000
00004FF900000DFF2000
00008FF600003FFF0000
0000BFF200008FFD0000
0000EFE00001EFFB0000
0001FFB00008EFF80000
0002FFB0004FAFF60000
0000FFE427FC6FF40010
00009FFFFFD27FF9BEF2
000008DFD837DFFFFFB0
000000003AFDFFD63000
00000019FC41FF900000
000001CF7004FF600000
00000AF90009FF100000
00001FF5002EFA000000
00002FF913CFE2000000
00000DFFFFFF50000000
000002BFFEA300000000
00000000100000000000
ENDCHAR
STARTCHAR Zacute
ENCODING 377
SWIDTH 721 0
DWIDTH 14 0
BBX 17 23 0 0
BITMAP
000000000000560000
000000000009FF5000
0000000001BFFD2000
000000002DFE710000
000000007D71000000
000000000000000000
000000000000000000
00028BDFFEDCA75000
008FFFFFFFFFFFF700
06FFA532224CFFD400
0BFB0000004FFD1000
0BF9000001DFF40000
08FE000009FF900000
007500004FFD100000
00000001EFF3000000
0000000BFF80000000
0000009FFC00000000
000006FFE200000000
00003FFF5000000040
08DFFFFC10000009E0
8FFFFFFFFC7324BFA0
9FFFFDCFFFFFFFFB10
2BEE91016ADEEC6000
ENDCHAR
STARTCHAR zacute
ENCODING 378
SWIDTH 445 0
DWIDTH 9 0
BBX 11 16 1 0
BITMAP
000000BD2000
000005FF5000
00000BFC0000
00003FE20000
0000AF500000
0000C8000000
000000000000
9FFFFFFF5000
AFFFFFFF5000
0129FFD60000
04DFD5000000
3FFA10000420
AFF100006F70
AFF8225BFE20
4FFFFFFFD300
03AEFEB71000
ENDCHAR
STARTCHAR Zdotaccent
ENCODING 379
SWIDTH 721 0
DWIDTH 14 0
BBX 17 21 0 0
BITMAP
00000001BFB0000000
00000007FFF2000000
00000003DE80000000
000000000000000000
000000000000000000
00028BDFFEDCA75000
008FFFFFFFFFFFF700
06FFA532224CFFD400
0BFB0000004FFD1000
0BF9000001DFF40000
08FE000009FF900000
007500004FFD100000
00000001EFF3000000
0000000BFF80000000
0000009FFC00000000
000006FFE200000000
00003FFF5000000040
08DFFFFC10000009E0
8FFFFFFFFC7324BFA0
9FFFFDCFFFFFFFFB10
2BEE91016ADEEC6000
ENDCHAR
STARTCHAR zdotaccent
ENCODING 380
SWIDTH 445 0
DWIDTH 9 0
BBX 11 13 1 0
BITMAP
0005EE500000
000CFFA00000
0007ED300000
000000000000
9FFFFFFF5000
AFFFFFFF5000
0129FFD60000
04DFD5000000
3FFA10000420
AFF100006F70
AFF8225BFE20
4FFFFFFFD300
03AEFEB71000
ENDCHAR
STARTCHAR Zcaron
ENCODING 381
SWIDTH 721 0
DWIDTH 14 0
BBX 17 23 0 0
BITMAP
0000007E301BD00000
0000007FA08FB00000
0000001EF4FE200000
00000008FEF5000000
00000001CE70000000
000000000000000000
000000000000000000
00028BDFFEDCA75000
008FFFFFFFFFFFF700
06FFA532224CFFD400
0BFB0000004FFD1000
0BF9000001DFF40000
08FE000009FF900000
007500004FFD100000
00000001EFF3000000
0000000BFF80000000
0000009FFC00000000
000006FFE200000000
00003FFF5000000040
08DFFFFC10000009E0
8FFFFFFFFC7324BFA0
9FFFFDCFFFFFFFFB10
2BEE91016ADEEC6000
ENDCHAR
STARTCHAR zcaron
ENCODING 382
SWIDTH 445 0
DWIDTH 9 0
BBX 11 17 1 0
BITMAP
003610055000
00BF704FD000
009F90CF7000
005FB4FD0000
001FDCF40000
000CFFA00000
0005EC100000
000000000000
9FFFFFFF5000
AFFFFFFF5000
0129FFD60000
04DFD5000000
3FFA10000420
AFF100006F70
AFF8225BFE20
4FFFFFFFD300
03AEFEB71000
ENDCHAR
STARTCHAR uni018F
ENCODING 399
SWIDTH 792 0
DWIDTH 16 0
BBX 15 16 1 0
BITMAP
00016BDFEC820000
005EFFFFFFFE5000
02FFD73238FFF400
03E60000005FFC00
00000000000BFF20
000000000008FF50
000000000007FF60
4EFFFFFFFFFFFF60
BFFFFFFFFFFFFF50
CFF31111112EFF20
AFF40000005FFC00
8FF7000000CFF600
2FFD100008FFB000
09FFC4239FFD2000
01AFFFFFFFC10000
0005BEFEB5000000
ENDCHAR
STARTCHAR florin
ENCODING 402
SWIDTH 478 0
DWIDTH 10 0
BBX 13 21 -2 -6
BITMAP
000000018DFE60
0000001DFFFF80
0000007FF83100
000000BFD00000
000000EFB00000
000001FF900000
001EFFFFFFFC00
002FFFFFFFF700
000117FF411000
000008FF100000
00000AFE000000
00000CFC000000
00000EFA000000
00001FF8000000
00003FF6000000
00005FF4000000
00007FF2000000
0003DFD0000000
3EFFFF50000000
3EFFC500000000
00100000000000
ENDCHAR
STARTCHAR Ohorn
ENCODING 416
SWIDTH 816 0
DWIDTH 16 0
BBX 17 20 1 0
BITMAP
000000000000004500
00000000000001EF20
00000000000005FF20
0000000000002DFD00
000005BEFFFFFFF500
0003CFFFFFFFFE7000
003EFF9424CFFD0000
01EFF400001CFF6000
09FF70000005FFB000
1EFE00000001FFD000
5FF900000000FFE000
8FF600000001FFD000
AFF400000002FFB000
BFF400000006FF8000
9FF50000000AFF3000
7FF80000003FFC0000
2FFE200002DFE20000
08FFD5237EFF500000
009FFFFFFFE4000000
0004ADFEC710000000
ENDCHAR
STARTCHAR ohorn
ENCODING 417
SWIDTH 451 0
DWIDTH 9 0
BBX 12 12 0 0
BITMAP
000000004500
00000000EF00
00000007FD00
002AEFFFF600
03EFFFFF6000
0CFD4EFF7121
2FF60BFFFFFA
4FF302DFFFD5
4FF400DF6000
1FFB28FE0000
08FFFFF50000
007DFC500000
ENDCHAR
STARTCHAR Uhorn
ENCODING 431
SWIDTH 890 0
DWIDTH 18 0
BBX 21 20 0 0
BITMAP
0000000000000000017300
000000000000000006FC00
00000000000000000AFA00
00000000000000015FF500
003AEEB2000000BFFF9000
06FFFFFA000002FFC40000
6FE63FFD000004FF800000
ED200FFD000007FF600000
72001FFB00000AFF300000
00005FF900000DFF100000
00008FF500002FFD000000
0000CFF100007FFB000000
0000FFD00000CFF8000000
0003FF900003FFF6000000
0007FF60000BEFF4000000
000AFF30005FAFF2000310
000BFF3004EA9FF4006F50
000AFFC7AFE28FFC7AFE20
0004FFFFFE404FFFFFE400
00006CEE920005CEE92000
ENDCHAR
STARTCHAR uhorn
ENCODING 432
SWIDTH 512 0
DWIDTH 10 0
BBX 12 12 1 0
BITMAP
000000002600
000000009F40
00000003EF20
0BF303EFFA00
4FF10AFE8000
8FD00EF60000
CFA05FF30000
EF70CFE00013
FF66FFC001CB
FFEFDFE24CF8
CFFE6FFFFF80
3DD409EEB400
ENDCHAR
STARTCHAR uni01C4
ENCODING 452
SWIDTH 1531 0
DWIDTH 31 0
BBX 33 23 1 0
BITMAP
0000000000000000000004E6009E200000
0000000000000000000004FD05FE100000
0000000000000000000000CF5EF4000000
00000000000000000000005FEF80000000
000000000000000000000009F900000000
0000000000000000000000000000000000
0000000000000000000000000000000000
0005ADEFDB7100000017BDEFEDCA851000
00AFFFFFFFFE500005EFFFFFFFFFFFA000
009B75335AFFF5003FFC632223AFFE6000
00001000006FFE108FE0000002EFE20000
004EF500000AFF708FC000000BFF700000
009FF3000004FFA05FF200006FFC000000
00DFE0000002FFC006700002EFE2000000
01FFA0000003FFC00000000CFF60000000
05FF60000004FFA00000009FFB00000000
08FF30000008FF70000006FFE100000000
0CFF1000000DFF2000003FFF4000000000
0EFD0000008FFA000001DFF80000000400
2FFB000008FFE1006CFFFFE30000006F20
3FFB3358DFFD3004FFFFFFFFD84239FD00
5FFFFFFFFF910006FFFFEBFFFFFFFFD200
1ADFFEDB72000001AEEA20159CEED81000
ENDCHAR
STARTCHAR uni01C5
ENCODING 453
SWIDTH 1191 0
DWIDTH 24 0
BBX 25 17 1 0
BITMAP
00000000000000000172003600
0005ADEFDB71000007FA01EF20
00AFFFFFFFFE500005FD08FA00
009B75335AFFF50001FE1EF200
00001000006FFE1000CF9F8000
004EF500000AFF70008FFD1000
009FF3000004FFA0002ED30000
00DFE0000002FFC00000000000
01FFA0000003FFC4FFFFFFE200
05FF60000004FFA5FFFFFFF200
08FF30000008FF70118FFD5000
0CFF1000000DFF2009FF800000
0EFD0000008FFA00AFF6000000
2FFB000008FFE106FF50000000
3FFB3358DFFD301EFA22221000
5FFFFFFFFF91004FFFFFFFF200
1ADFFEDB7200002EFFFFFFE100
ENDCHAR
STARTCHAR uni01C6
ENCODING 454
SWIDTH 895 0
DWIDTH 18 0
BBX 21 16 0 0
BITMAP
00000002DE308E402DC000
00000007FF30AF80BF9000
0000000AFE005FB4FD1000
0000000CFB001FDDF40000
0000000EF8000CFF900000
0000001FF50004B8100000
0000003FF2000000000000
0003BEDFE09FFFFFFF5000
006FFFFFB0AFFFFFFF5000
03FFC4DF800129FFC50000
0BFD11FF5004DFC4000000
2FF604FF203FF900000420
4FF409FF01CFF100007F70
3FFA7FFF6CFFFB558DFE20
0DFFFCCFFFBFFFFFFFD300
03CEB13DE703AEFEB71000
ENDCHAR
STARTCHAR uni01C7
ENCODING 455
SWIDTH 1276 0
DWIDTH 26 0
BBX 27 18 -1 -2
BITMAP
000000039DEEA3000039DEFEC940
0000007FFFFFFE300AFFFFFFFFE0
000006FFD426FFA08FF9423EFE60
00001EFE2000CFD0EF80000FFC00
00006FF80000DFC1FF50002FFA00
00009FF50000DF60EF90004FF800
0000BFF2000012007E60006FF500
0000CFF0000000000000009FF200
0000DFE00000000000017DFFE000
0000EFC000000000005EFCFFB000
0000FFA0000000001BFD53FF7000
0001FF8000000001CFB107FF3000
08DFFFC620000009FC000BFD0000
9FFFFFFFFC73249FF5002FF70000
BFFFFCCFFFFFFFFFF300BFE10000
3CFE81015ADEECAFF829FF500000
000000000000001DFFFFF7000000
0000000000000002AEEB40000000
ENDCHAR
STARTCHAR uni01C8
ENCODING 456
SWIDTH 927 0
DWIDTH 19 0
BBX 22 25 -1 -9
BITMAP
000000028CEFD910000000
0000005EFFFFFFD1000000
000005FFE6229FF7000000
00001EFE20000FFA8ED200
00006FF900001FFAFFF600
00009FF400002FF4AFC100
0000BFF200000330000000
0000CFF0000000008F8000
0000DFE000000000EF9000
0000EFC000000001FF7000
0000FFA000000002FF5000
0001FF8000000004FF3023
08DFFFC620000007FF14EA
9FFFFFFFFC73239FFD6FE4
BFFFFCCFFFFFFFFFFFFB20
3CFE81016ADEEC8DFE6000
000000000000008FF50000
0000000000001BFFF20000
000000000001CFBFD00000
00000000000BF59F900000
00000000006F80DF400000
0000000000DF14FD000000
0000000001FE3DF6000000
0000000000EFFFC0000000
00000000004DEA10000000
ENDCHAR
STARTCHAR uni01C9
ENCODING 457
SWIDTH 610 0
DWIDTH 12 0
BBX 14 27 1 -9
BITMAP
0002BE90000000
001DFFF4000000
009F98F8000000
01EF26F8000000
07FB07F7000000
0CF709F5BFA000
1FF40DE7FFF100
5FF03FA2DE8000
7FD0AF40000000
AFB2FB01CF3000
CF9AF304FF3000
DFCFA006FF1000
DFFE1008FE0000
CFF5000AFC0030
BFC0008FFA19F5
6FE43AFFFBDFD1
1EFFFFDFFFF810
03CFD83FFD4000
000003DFF10000
00004EFFC00000
0004FDCF800000
003ED2EF400000
00CF34FE000000
03FA0AF8000000
06FA5FF2000000
04FFFF70000000
008ED700000000
ENDCHAR
STARTCHAR uni01CA
ENCODING 458
SWIDTH 1497 0
DWIDTH 30 0
BBX 31 18 0 -2
BITMAP
003AEE90003AEEC4000038CEFFEDB810
07FFFFF406FFFFFF200AFFFFFFFFFF50
6FD56FF65FC42AFF708FF942118FF800
ED103FF6EB1005FF80EF8000009FF300
62004FFBE10006FF71FF500000BFF100
00006FFE700009FF40EFA00000DFD000
00008FFE10000DFF106D600000FFB000
0000BFF900001FFC0000000006FF8000
0000DFF400005FF900000018EFFF6000
0000FFF100008FF5000006EFFEFF2000
0003FFC00000BFF20000AFFA2BFD0000
0006FF800000DFF0000AFE501EF90000
0008FF600000EFE0005FF5005FF40000
000AFF300000BFF627FFC000BFC00000
000BFF1000005FFFFFFF9004FF500000
0007FA00000005CED9EFD35EFB000000
0000000000000000007FFFFFC1000000
00000000000000000007DFD710000000
ENDCHAR
STARTCHAR uni01CB
ENCODING 459
SWIDTH 1138 0
DWIDTH 23 0
BBX 25 25 0 -9
BITMAP
0029DE90003AEEC40000000000
05FFFFF406FFFFFF2000000000
5FE56FF64FC42AFF7000000000
EE203FF6DB1005FF8005EE5000
A4004FFAE10006FF700DFF9000
00006FFE700009FF4007ED3000
00008FFE10000DFF1000000000
0000BFF900001FFC0005EB0000
0000DFF400005FF9000BFC0000
0000FFF100008FF5000DFA0000
0003FFC00000BFF2000EF80000
0006FF800000DFF0001FF60010
0008FF600000EFE0005FF32BD0
000AFF300000BFF627FFF7EF90
000BFF1000005FFFFFFFFFE600
0007FA00000005CED9BFFA1000
000000000000000007FF900000
00000000000000009FFF500000
000000000000000AFAFF200000
000000000000008F86FD000000
00000000000003FB0AF8000000
00000000000009F42FF2000000
0000000000000CF5BFA0000000
0000000000000BFFFE20000000
00000000000002CEB300000000
ENDCHAR
STARTCHAR uni01CC
ENCODING 460
SWIDTH 750 0
DWIDTH 15 0
BBX 17 22 1 -9
BITMAP
00000000003DE80000
00000000009FFD0000
00000000004EE60000
000000000000000000
1CE208ED103DE10000
6FE1BFFF307FF00000
9FB8FFFF109FD00000
CFAF98FD00BFB00000
EFEE1AFA00CF900300
FFF70DF703FF72BF20
FFF20FF95EFFAEFB00
DFC00EFFFFFFFE6000
7E5006EEA8FFB20000
000000005EFC000000
00000007FFF9000000
0000007FBEF5000000
000005FB2FF1000000
00001EE17FB0000000
00006F70DF50000000
00009F88FD00000000
00007FFFF400000000
00001AED5000000000
ENDCHAR
STARTCHAR Gcaron
ENCODING 486
SWIDTH 811 0
DWIDTH 16 0
BBX 18 32 1 -9
BITMAP
0000009E201CC00000
0000009F90AFA00000
0000002FE4FD100000
00000009FEF4000000
00000001DE60000000
000000000000000000
000000000000000000
000005ADFEC8100000
0002CFFFFFFFC00000
003EFFA423BFF50000
01DFF500002FF80000
09FF7000003FF70000
1FFD0000003FF30000
5FF900000003200000
8FF500000000000000
AFF400000111110000
AFF400008FFFFE0000
9FF600008FFFFF0000
5FFB00000009FD0010
0EFF6000000BFB06E5
04FFFA52237EFABFE3
004DFFFFFFFFFFFB20
00016BDFECAFFE6000
0000000002DFF20000
000000004EFFC00000
00000004EDCF900000
0000002ED2EF400000
000000CF33FE000000
000003FB09F9000000
000006FB5FF2000000
000004FFFF70000000
0000008EE700000000
ENDCHAR
STARTCHAR gcaron
ENCODING 487
SWIDTH 479 0
DWIDTH 10 0
BBX 12 26 0 -9
BITMAP
000063002610
0004FD00DF50
0002FF06FD00
0000DF2DF400
0000AF9FA000
00006FFF2000
00001CE50000
000000000000
0003AEB21000
006FFFFF9000
03FFC4DF8000
0BFD11FF5000
2FF704FF3012
4FF408FF05EB
3FF74EFEBFF6
0DFFFFFFFD30
03CEACFF8000
0001BFF60000
002CFFF20000
01DFAFD00000
0BF58F900000
6F80DF400000
DF14FE000000
FF3DF7000000
DFFFC0000000
4DEA10000000
ENDCHAR
STARTCHAR uni01EA
ENCODING 490
SWIDTH 816 0
DWIDTH 16 0
BBX 15 21 1 -5
BITMAP
000005BEFEB50000
0002CFFFFFFFB100
003EFF9424CFFB00
01DFF400001CFF50
08FF70000005FFA0
1EFE00000001FFD0
5FF900000000FFE0
8FF600000001FFD0
AFF400000002FFC0
BFF400000005FF90
AFF50000000AFF40
8FF80000003FFD00
3FFE200002DFF500
0AFFD5136EFF8000
01CFFFFFFFF70000
0018EFFFFA300000
000004FE30000000
000009F700000000
00000BF800000000
000007FFDE800000
0000008DFD300000
ENDCHAR
STARTCHAR uni01EB
ENCODING 491
SWIDTH 451 0
DWIDTH 9 0
BBX 12 14 0 -5
BITMAP
002AEEA10000
02EFFFFB0000
0BFE4EFF4000
1FF70DFF9364
4FF308FFFFFA
5FF300CFFEB3
2FF601EF4000
0CFE9DFB0000
02DFFFB10000
000CF8000000
004FB0000000
007F90000000
004FFCDA0000
0006DFD50000
ENDCHAR
STARTCHAR Aringacute
ENCODING 506
SWIDTH 786 0
DWIDTH 16 0
BBX 19 25 1 0
BITMAP
00000000000000008E40
000000000001000AFF50
0000000005EFD39FC500
000000002FFFFD440000
000000005FA3DF000000
000000002FFFFB000000
0000000006DEA1000000
00000000000000000000
00000000000000000000
00000027BDEFEC940000
00001AFFFFFFFFFB0000
0004EFFD854458930000
004FFF700008A4000000
01EFF500004FF9000000
09FF8000007FF5000000
2FFE000000BFF1000000
6FF9000000EFD0000000
AFF4000004FFA0000000
CFF2000009FF70000000
DFF100001EFF50000000
CFF300007FFF40002000
9FF80002EFFF4005F400
3FFF847EE9FFB48FE100
07FFFFFF52EFFFFE3000
005BEEB4004CEE920000
ENDCHAR
STARTCHAR aringacute
ENCODING 507
SWIDTH 470 0
DWIDTH 9 0
BBX 14 18 0 0
BITMAP
00000000000450
00000000006FF1
00002BEC35FF90
0000BFFFD47100
0002FC2BF20000
0002FC3CF20000
0000DFFFC00000
00003CEB200000
00000000000000
0003AEB2100000
006FFFFFA00000
03FFC4DF900000
0BFD11FF600000
2FF704FF300100
4FF408FF009E00
3FF74EFF3AFB00
0DFFFDDFFFC100
03CEB24DE81000
ENDCHAR
STARTCHAR AEacute
ENCODING 508
SWIDTH 1015 0
DWIDTH 20 0
BBX 22 23 1 0
BITMAP
0000000000000000460000
0000000000000008FF6000
00000000000001BFFE2000
0000000000002DFE810000
0000000000006E71000000
0000000000000000000000
0000000000000000000000
00000049DFA05DFFFFFF60
00003CFFFFC2FFFFFFFF50
0004EFFD8517FF52111100
005FFF71000CFE00000000
01EFF500001FFB00000000
0AFF8000005FF800000000
2FFD0000009FF500000000
7FF8000000EFFFFFFFE100
AFF4000003FFFFFFFFD100
CFF2000008FFA111110000
DFF100000EFF8000000000
CFF300006FFF9000000000
9FF70001EFFFE100000045
3FFE624DF89FFD53237DFB
07FFFFFFB01BFFFFFFFFD3
004BEEC600006BEFEDA500
ENDCHAR
STARTCHAR aeacute
ENCODING 509
SWIDTH 653 0
DWIDTH 13 0
BBX 16 16 0 0
BITMAP
0000000000BD2000
0000000005FF5000
000000000CFC0000
000000003FE20000
00000000AF400000
00000000C7000000
0000000000000000
00039DE77DEB2000
006FFFFFFFFFB000
05FFC59FE46FD000
0CFC00EF807FA000
2FF603FF9AFD2012
4FF407FFFD7103E9
2FF83EFFE424AFF5
0CFFFF7FFFFFFE60
02BED503AEFD8200
ENDCHAR
STARTCHAR Oslashacute
ENCODING 510
SWIDTH 816 0
DWIDTH 16 0
BBX 15 25 1 -2
BITMAP
0000000000640000
000000001BFF2000
00000002DFFC0000
0000004EFD600000
0000009D50000000
000000000BD20000
000000001FF20000
000005BEFFF50000
0002CFFFFFFFC100
003EFF83EFEFFB00
01DFE303FE1DFF50
08FF6007FA06FFB0
1EFD000BF602FFD0
5FF9001FF200FFE0
8FF6005FC001FFD0
AFF4009F8002FFC0
BFF400DF4005FF80
AFF502FE000AFF40
7FF906FB002FFC00
2FFE2BF701DFF300
09FFDEF56DFF6000
009FFFFFFFE40000
0004DFFEC7100000
0000DF5000000000
0000CD1000000000
ENDCHAR
STARTCHAR oslashacute
ENCODING 511
SWIDTH 459 0
DWIDTH 9 0
BBX 12 19 0 -3
BITMAP
00002DB00000
00009FF10000
0001EF900000
0007FC000000
000EE5400000
002E4D900000
00000F600000
003BEFB30000
03EFFFFE2000
0CFC9DDF9000
2FF4BA8FEACB
4FF2D77FFFFB
4FF4F5AFC640
1FFCF6EF4000
09FFFFFA0000
008EFD700000
000D90000000
001F60000000
000610000000
ENDCHAR
STARTCHAR uni0200
ENCODING 512
SWIDTH 786 0
DWIDTH 16 0
BBX 18 23 1 0
BITMAP
000000045016200000
0000001FF37FC00000
0000000DF84FF20000
00000004FC09F70000
000000008C01D70000
000000000000000000
000000000000000000
00000027BDEFEC9400
00001AFFFFFFFFFB00
0004EFFD8544589300
004FFF700008A40000
01EFF500004FF90000
09FF8000007FF50000
2FFE000000BFF10000
6FF9000000EFD00000
AFF4000004FFA00000
CFF2000009FF700000
DFF100001EFF500000
CFF300007FFF400020
9FF80002EFFF4005F4
3FFF847EE9FFB48FE1
07FFFFFF52EFFFFE30
005BEEB4004CEE9200
ENDCHAR
STARTCHAR uni0201
ENCODING 513
SWIDTH 470 0
DWIDTH 9 0
BBX 12 16 0 0
BITMAP
05E80AE30000
09FE1EF90000
03FF58FE0000
008F91DF4000
001DE05F8000
0004E10A9000
000000000000
0003AEB21000
006FFFFFA000
03FFC4DF9000
0BFD11FF6000
2FF704FF3001
4FF408FF009E
3FF74EFF3AFB
0DFFFDDFFFC1
03CEB24DE810
ENDCHAR
STARTCHAR uni0202
ENCODING 514
SWIDTH 786 0
DWIDTH 16 0
BBX 18 23 1 0
BITMAP
000000000001000000
000000004BFFFA3000
00000005FFFFFFE200
0000000CFA204EF600
000000045000036100
000000000000000000
000000000000000000
00000027BDEFEC9400
00001AFFFFFFFFFB00
0004EFFD8544589300
004FFF700008A40000
01EFF500004FF90000
09FF8000007FF50000
2FFE000000BFF10000
6FF9000000EFD00000
AFF4000004FFA00000
CFF2000009FF700000
DFF100001EFF500000
CFF300007FFF400020
9FF80002EFFF4005F4
3FFF847EE9FFB48FE1
07FFFFFF52EFFFFE30
005BEEB4004CEE9200
ENDCHAR
STARTCHAR uni0203
ENCODING 515
SWIDTH 470 0
DWIDTH 9 0
BBX 12 16 0 0
BITMAP
000000100000
00019EFFA200
000CFFFFFD10
006FE416FF60
009F7000AF80
002600001610
000000000000
0003AEB21000
006FFFFFA000
03FFC4DF9000
0BFD11FF6000
2FF704FF3001
4FF408FF009E
3FF74EFF3AFB
0DFFFDDFFFC1
03CEB24DE810
ENDCHAR
STARTCHAR uni0204
ENCODING 516
SWIDTH 686 0
DWIDTH 14 0
BBX 17 23 0 0
BITMAP
000001720460000000
000009FA0FF4000000
000006FE1BF9000000
000000BF42FE000000
0000002D507D100000
000000000000000000
000000000000000000
0000049DEFEB600000
0002CFFFFFFFF90000
000DFFB5324DFF2000
005FFB000007FF3000
006FF9000008FE1000
001EFF620002730000
0002AFFFF700000000
0019EFFFF600000000
03EFFA521000000000
0DFF40000000000000
4FFB00000000000000
5FF900000000000000
3FFE10000000005910
0BFFD7322247AEFF20
01BFFFFFFFFFFFE700
00038CEEFEDB851000
ENDCHAR
STARTCHAR uni0205
ENCODING 517
SWIDTH 393 0
DWIDTH 8 0
BBX 11 16 0 0
BITMAP
3EA08E500000
6FF2CFC00000
1EF76FF10000
06FC0BF60000
00CF13FB0000
003E307B0000
000000000000
0029EEA10000
02EFFFF80000
0BFD39FA0000
2FF50AF70000
4FF7CFC00210
4FFFC6006F60
1FFC325BFE30
08FFFFFFD400
006CEEC71000
ENDCHAR
STARTCHAR uni0206
ENCODING 518
SWIDTH 686 0
DWIDTH 14 0
BBX 17 23 0 0
BITMAP
000000000110000000
00000018EFFD700000
000000CFFFFFF80000
000004FE401AFD0000
000001620000630000
000000000000000000
000000000000000000
0000049DEFEB600000
0002CFFFFFFFF90000
000DFFB5324DFF2000
005FFB000007FF3000
006FF9000008FE1000
001EFF620002730000
0002AFFFF700000000
0019EFFFF600000000
03EFFA521000000000
0DFF40000000000000
4FFB00000000000000
5FF900000000000000
3FFE10000000005910
0BFFD7322247AEFF20
01BFFFFFFFFFFFE700
00038CEEFEDB851000
ENDCHAR
STARTCHAR uni0207
ENCODING 519
SWIDTH 393 0
DWIDTH 8 0
BBX 11 16 0 0
BITMAP
000001000000
0007EFFB3000
00AFFFFFE200
04FF614EF800
07F90008FA00
016100016200
000000000000
0029EEA10000
02EFFFF80000
0BFD39FA0000
2FF50AF70000
4FF7CFC00210
4FFFC6006F60
1FFC325BFE30
08FFFFFFD400
006CEEC71000
ENDCHAR
STARTCHAR uni0208
ENCODING 520
SWIDTH 495 0
DWIDTH 10 0
BBX 13 23 -1 0
BITMAP
00005401720000
0002FF28FB0000
0001EF75FF1000
00005FB0AF5000
000009B02D6000
00000000000000
00000000000000
0009EFFFFFFC10
000DFFFFFFFC00
000013FFB11000
000004FF900000
000006FF600000
000009FF300000
00000BFF100000
00000EFD000000
00001FFB000000
00004FF8000000
00006FF6000000
00009FF4000000
0000BFF1000000
0011EFF1100000
1CFFFFFFFA0000
3EFFFFFFF80000
ENDCHAR
STARTCHAR uni0209
ENCODING 521
SWIDTH 246 0
DWIDTH 5 0
BBX 10 16 -2 0
BITMAP
3EA07E5000
6FF3CFC000
1EF75FF200
06FC0BF600
00BF22FB00
002E307C00
0000000000
0001DE2000
0005FF2000
0009FE0000
000CFB0000
000EF80021
001FF603E7
000FF94EF3
000BFFFF50
0002CEB300
ENDCHAR
STARTCHAR uni020A
ENCODING 522
SWIDTH 495 0
DWIDTH 10 0
BBX 13 23 -1 0
BITMAP
00000000100000
000004CFFEA200
00006FFFFFFE10
0000DF9104FF50
00004500004610
00000000000000
00000000000000
0009EFFFFFFC10
000DFFFFFFFC00
000013FFB11000
000004FF900000
000006FF600000
000009FF300000
00000BFF100000
00000EFD000000
00001FFB000000
00004FF8000000
00006FF6000000
00009FF4000000
0000BFF1000000
0011EFF1100000
1CFFFFFFFA0000
3EFFFFFFF80000
ENDCHAR
STARTCHAR uni020B
ENCODING 523
SWIDTH 246 0
DWIDTH 5 0
BBX 9 16 -1 0
BITMAP
0000100000
007DFFB300
0AFFFFFE20
4FF614EF90
6F90008FA0
1610001620
0000000000
001DE20000
005FF20000
009FE00000
00CFB00000
00EF800210
01FF603E70
00FF94EF30
00BFFFF500
002CEB3000
ENDCHAR
STARTCHAR uni020C
ENCODING 524
SWIDTH 816 0
DWIDTH 16 0
BBX 15 23 1 0
BITMAP
0000064027100000
00004FE1AF900000
00001EF56FE00000
000006F90CF40000
000000BA03E40000
0000000000000000
0000000000000000
000005BEFEB60000
0003CFFFFFFFB100
003EFF9424CFFB00
01EFF400001CFF50
09FF70000005FFA0
1EFE00000001FFD0
5FF900000000FFE0
8FF600000001FFD0
AFF400000002FFC0
BFF400000006FF80
9FF50000000AFF40
7FF80000003FFC00
2FFE200002DFF300
08FFD5237EFF6000
009FFFFFFFE40000
0004ADFEC7100000
ENDCHAR
STARTCHAR uni020D
ENCODING 525
SWIDTH 451 0
DWIDTH 9 0
BBX 12 16 0 0
BITMAP
4E909E400000
7FF1DFB00000
2EF67FF10000
07FB0CF50000
00DF13FA0000
003E209A0000
000000000000
002AEEB20000
03EFFFFE2000
0CFD4EFF7121
2FF60BFFFFFA
4FF302DFFFD5
4FF400DF6000
1FFB28FE0000
08FFFFF50000
007DFC500000
ENDCHAR
STARTCHAR uni020E
ENCODING 526
SWIDTH 816 0
DWIDTH 16 0
BBX 15 23 1 0
BITMAP
0000000001000000
0000005CFFE91000
000007FFFFFFD000
00000EF8106FF300
0000054000045000
0000000000000000
0000000000000000
000005BEFEB60000
0003CFFFFFFFB100
003EFF9424CFFB00
01EFF400001CFF50
09FF70000005FFA0
1EFE00000001FFD0
5FF900000000FFE0
8FF600000001FFD0
AFF400000002FFC0
BFF400000006FF80
9FF50000000AFF40
7FF80000003FFC00
2FFE200002DFF300
08FFD5237EFF6000
009FFFFFFFE40000
0004ADFEC7100000
ENDCHAR
STARTCHAR uni020F
ENCODING 527
SWIDTH 451 0
DWIDTH 9 0
BBX 12 16 0 0
BITMAP
000001000000
0008EFFA2000
00BFFFFFE100
05FF515FF700
08F80009F900
026000016100
000000000000
002AEEB20000
03EFFFFE2000
0CFD4EFF7121
2FF60BFFFFFA
4FF302DFFFD5
4FF400DF6000
1FFB28FE0000
08FFFFF50000
007DFC500000
ENDCHAR
STARTCHAR uni0210
ENCODING 528
SWIDTH 880 0
DWIDTH 18 0
BBX 20 23 1 0
BITMAP
00000271045000000000
00000AF91FF300000000
000007FE0CF800000000
000000CF33FD00000000
0000003E408D00000000
00000000000000000000
00000000000000000000
0000039CEFEC71000000
0002BFFFFFFFFD200000
003EFE84236DFFC00000
01DFB1153002FFF20000
09FD00CFD000DFF20000
1FF401FFB000EFE00000
6FD004FF8008FF700000
AF8007FF74AFFA000000
CF60DFFFFFFC50000000
DF50CFFFFFE500000000
DF500EFC4DFF50000000
CF602FF904FFD1000010
8FA05FF700BFF80005F2
3FF5AFF4003FFF627FD1
08FFFFE00007FFFFFD20
006CED4000006DFD8100
ENDCHAR
STARTCHAR uni0211
ENCODING 529
SWIDTH 455 0
DWIDTH 9 0
BBX 11 16 1 0
BITMAP
9E42DB000000
EFA4FF400000
7FE1DF900000
0DF44FE00000
04F90AF30000
009A01D40000
000000000000
1CE208ED1000
6FE1BFFF3000
9FB8FEFF1000
CFAF97FE19C0
EFEE17FFFFA0
FFF702EFF900
FFF200021000
DFC000000000
7E5000000000
ENDCHAR
STARTCHAR uni0212
ENCODING 530
SWIDTH 880 0
DWIDTH 18 0
BBX 20 23 1 0
BITMAP
00000000011000000000
00000019EFFD60000000
000001DFFFFFF7000000
000005FD401BFC000000
00000162000163000000
00000000000000000000
00000000000000000000
0000039CEFEC71000000
0002BFFFFFFFFD200000
003EFE84236DFFC00000
01DFB1153002FFF20000
09FD00CFD000DFF20000
1FF401FFB000EFE00000
6FD004FF8008FF700000
AF8007FF74AFFA000000
CF60DFFFFFFC50000000
DF50CFFFFFE500000000
DF500EFC4DFF50000000
CF602FF904FFD1000010
8FA05FF700BFF80005F2
3FF5AFF4003FFF627FD1
08FFFFE00007FFFFFD20
006CED4000006DFD8100
ENDCHAR
STARTCHAR uni0213
ENCODING 531
SWIDTH 455 0
DWIDTH 9 0
BBX 11 16 1 0
BITMAP
000001000000
003BFFE70000
03EFFFFF9000
0BFC21AFF100
0EF2001EF300
044000035000
000000000000
1CE208ED1000
6FE1BFFF3000
9FB8FEFF1000
CFAF97FE19C0
EFEE17FFFFA0
FFF702EFF900
FFF200021000
DFC000000000
7E5000000000
ENDCHAR
STARTCHAR uni0214
ENCODING 532
SWIDTH 890 0
DWIDTH 18 0
BBX 21 23 0 0
BITMAP
0000000640171000000000
0000004FE1AFA000000000
0000001EF56FE000000000
00000006FA0CF400000000
00000000BA02E500000000
0000000000000000000000
0000000000000000000000
003AEEB2000000BE500000
06FFFFFA000002FFA00000
6FE63FFD000004FF900000
ED200FFD000007FF700000
72001FFB00000AFF400000
00005FF900000DFF200000
00008FF500002FFE000000
0000CFF100007FFB000000
0000FFD00000CFF9000000
0003FF900003FFF7000000
0007FF60000BEFF4000000
000AFF30005FAFF3000310
000BFF3004EA9FF3006F50
000AFFC7AFE28FFC7AFE20
0004FFFFFE404FFFFFE400
00006CEE920005CEE92000
ENDCHAR
STARTCHAR uni0215
ENCODING 533
SWIDTH 462 0
DWIDTH 9 0
BBX 11 16 1 0
BITMAP
9E41DC100000
DFB3FF500000
6FF1CFA00000
0CF53FE00000
03FA09F40000
008A01D50000
000000000000
0BF303EA0000
4FF10AF90000
8FD00EF60000
CFA05FF30000
EF70CFE00130
FF66FFC01CB0
FFEFDFD3CF80
CFFE6FFFF900
3DD41BEC5000
ENDCHAR
STARTCHAR uni0216
ENCODING 534
SWIDTH 890 0
DWIDTH 18 0
BBX 21 23 0 0
BITMAP
0000000000010000000000
000000005CFFE910000000
00000007FFFFFFD0000000
0000000EF8105FF3000000
0000000540000460000000
0000000000000000000000
0000000000000000000000
003AEEB2000000BE500000
06FFFFFA000002FFA00000
6FE63FFD000004FF900000
ED200FFD000007FF700000
72001FFB00000AFF400000
00005FF900000DFF200000
00008FF500002FFE000000
0000CFF100007FFB000000
0000FFD00000CFF9000000
0003FF900003FFF7000000
0007FF60000BEFF4000000
000AFF30005FAFF3000310
000BFF3004EA9FF3006F50
000AFFC7AFE28FFC7AFE20
0004FFFFFE404FFFFFE400
00006CEE920005CEE92000
ENDCHAR
STARTCHAR uni0217
ENCODING 535
SWIDTH 462 0
DWIDTH 9 0
BBX 11 16 1 0
BITMAP
000001000000
002BFFE80000
02EFFFFF9000
0BFC219FF200
0DF3001EF300
044000036000
000000000000
0BF303EA0000
4FF10AF90000
8FD00EF60000
CFA05FF30000
EF70CFE00130
FF66FFC01CB0
FFEFDFD3CF80
CFFE6FFFF900
3DD41BEC5000
ENDCHAR
STARTCHAR uni0218
ENCODING 536
SWIDTH 693 0
DWIDTH 14 0
BBX 14 21 0 -5
BITMAP
000028CEFEB710
0006FFFFFFFFD1
004FFD63239FF9
00BFF200000CFC
00DFE000000CFB
00BFF6000009E5
005FFFA3000000
0006FFFFC61000
000029EFFFE600
00000005CFFF60
0BE3000006FFE0
4FF5000000BFF1
4FF6000000DFE0
1FFE63225CFF90
06FFFFFFFFFA10
0029CEFED94000
00000000000000
000009E4000000
00000EF7000000
00000EF2000000
00000CA0000000
ENDCHAR
STARTCHAR uni0219
ENCODING 537
SWIDTH 427 0
DWIDTH 9 0
BBX 13 15 -1 -6
BITMAP
00002CF2000000
0000AFC0000000
0002FFB0000000
000AFFF6000000
005F9CFF301700
02EE12FFA1CF10
1DF59AEFEEFC00
2D56FFFFFFE200
0001BFFFE91000
00000000000000
00006E60000000
0000BF90000000
0000CF60000000
0000DF10000000
0000A900000000
ENDCHAR
STARTCHAR uni021A
ENCODING 538
SWIDTH 697 0
DWIDTH 14 0
BBX 18 21 0 -5
BITMAP
000269BDEFFFFFFFD9
019FFFFFFFFFFFFFFE
0BFE8432DFF2112331
3FF40001FFC0000000
4FF20004FF90000000
1FF70007FF60000000
05A2000AFF30000000
0000000DFF00000000
0000001FFC00000000
0000003FFA00000000
0000006FF700000000
0000008FF500000000
000000BFF300000000
000000DFF100000000
000000FFE000000000
000000BF8000000000
000000000000000000
000000CE2000000000
000001FF4000000000
000002FE0000000000
000001D70000000000
ENDCHAR
STARTCHAR uni021B
ENCODING 539
SWIDTH 393 0
DWIDTH 8 0
BBX 11 23 0 -6
BITMAP
000008EC1000
00008FFF8000
0003FD6FA000
000AF73F9000
001FF26F6000
006FD0CE1000
00AFA7F70000
00DFCF900000
CFFFFFFFD000
DFFFFFFF8000
04FF51100000
03FF30000000
03FF40000100
01FF70003E60
00CFE426EF30
005FFFFFE500
0005CFEA2000
000000000000
0004E9000000
0008FC000000
0009F8000000
000AF3000000
0008C0000000
ENDCHAR
STARTCHAR uni022A
ENCODING 554
SWIDTH 816 0
DWIDTH 16 0
BBX 15 25 1 0
BITMAP
0000000111110000
000000AFFFFF7000
0000009FFFFF5000
0000000000000000
000003DE31CE4000
000008FF66FF8000
000004ED22DD3000
0000000000000000
0000000000000000
000005BEFEB60000
0003CFFFFFFFB100
003EFF9424CFFB00
01EFF400001CFF50
09FF70000005FFA0
1EFE00000001FFD0
5FF900000000FFE0
8FF600000001FFD0
AFF400000002FFC0
BFF400000006FF80
9FF50000000AFF40
7FF80000003FFC00
2FFE200002DFF300
08FFD5237EFF6000
009FFFFFFFE40000
0004ADFEC7100000
ENDCHAR
STARTCHAR uni022B
ENCODING 555
SWIDTH 451 0
DWIDTH 9 0
BBX 12 18 0 0
BITMAP
000111110000
003FFFFFE000
003EFFFFC000
000000000000
000000000000
009E807EA000
01FFC0DFF000
00BE609E8000
000000000000
002AEEB20000
03EFFFFE2000
0CFD4EFF7121
2FF60BFFFFFA
4FF302DFFFD5
4FF400DF6000
1FFB28FE0000
08FFFFF50000
007DFC500000
ENDCHAR
STARTCHAR uni022C
ENCODING 556
SWIDTH 816 0
DWIDTH 16 0
BBX 15 26 1 0
BITMAP
0000000111110000
0000008FFFFF9000
0000007FFFFF7000
0000000000000000
000002BE81017200
00000CFFFD4CF600
00004FD3CFFFD100
0000172007ED3000
0000000000000000
0000000000000000
000005BEFEB60000
0003CFFFFFFFB100
003EFF9424CFFB00
01EFF400001CFF50
09FF70000005FFA0
1EFE00000001FFD0
5FF900000000FFE0
8FF600000001FFD0
AFF400000002FFC0
BFF400000006FF80
9FF50000000AFF40
7FF80000003FFC00
2FFE200002DFF300
08FFD5237EFF6000
009FFFFFFFE40000
0004ADFEC7100000
ENDCHAR
STARTCHAR uni022D
ENCODING 557
SWIDTH 451 0
DWIDTH 9 0
BBX 12 18 0 0
BITMAP
000111111000
002EFFFFE100
002EFFFFD100
000000000000
006EC3005400
04FFFF75FC00
0BF67FFFF400
045003CE7000
000000000000
002AEEB20000
03EFFFFE2000
0CFD4EFF7121
2FF60BFFFFFA
4FF302DFFFD5
4FF400DF6000
1FFB28FE0000
08FFFFF50000
007DFC500000
ENDCHAR
STARTCHAR uni0230
ENCODING 560
SWIDTH 816 0
DWIDTH 16 0
BBX 15 25 1 0
BITMAP
0000000111110000
000000AFFFFF7000
0000009FFFFF6000
0000000000000000
00000005DE600000
0000000CFFB00000
00000007ED400000
0000000000000000
0000000000000000
000005BEFEB60000
0003CFFFFFFFB100
003EFF9424CFFB00
01EFF400001CFF50
09FF70000005FFA0
1EFE00000001FFD0
5FF900000000FFE0
8FF600000001FFD0
AFF400000002FFC0
BFF400000006FF80
9FF50000000AFF40
7FF80000003FFC00
2FFE200002DFF300
08FFD5237EFF6000
009FFFFFFFE40000
0004ADFEC7100000
ENDCHAR
STARTCHAR uni0231
ENCODING 561
SWIDTH 451 0
DWIDTH 9 0
BBX 12 18 0 0
BITMAP
000111110000
003FFFFFE000
003EFFFFC000
000000000000
000000000000
0001AEB10000
0005FFF20000
0001CE900000
000000000000
002AEEB20000
03EFFFFE2000
0CFD4EFF7121
2FF60BFFFFFA
4FF302DFFFD5
4FF400DF6000
1FFB28FE0000
08FFFFF50000
007DFC500000
ENDCHAR
STARTCHAR uni0232
ENCODING 562
SWIDTH 851 0
DWIDTH 17 0
BBX 20 28 0 -7
BITMAP
00000000011111000000
00000000EFFFFF300000
00000000DFFFFE200000
00000000000000000000
00000000000000000000
003AEEB2000000AE7000
06FFFFFA000002FFB000
5FE63FFD000004FF9000
EE200FFD000007FF7000
83002FFC00000AFF5000
00004FF900000DFF2000
00008FF600003FFF0000
0000BFF200008FFD0000
0000EFE00001EFFB0000
0001FFB00008EFF80000
0002FFB0004FAFF60000
0000FFE427FC6FF40010
00009FFFFFD27FF9BEF2
000008DFD837DFFFFFB0
000000003AFDFFD63000
00000019FC41FF900000
000001CF7004FF600000
00000AF90009FF100000
00001FF5002EFA000000
00002FF913CFE2000000
00000DFFFFFF50000000
000002BFFEA300000000
00000000100000000000
ENDCHAR
STARTCHAR uni0233
ENCODING 563
SWIDTH 479 0
DWIDTH 10 0
BBX 13 22 -1 -9
BITMAP
00001111110000
0002FFFFFE1000
0002EFFFFD0000
00000000000000
000BF303EA0000
004FF10AFA0000
008FD00EF70000
00CFA05FF50000
00EF70CFF20120
00FF66FFE05EB0
00FFEFEFDAFF50
00CFFEAFFFC300
003DD4BFF70000
00001AFF500000
0001CFFF100000
001CFAFD000000
00BF59F9000000
07F80DF4000000
0DF14FD0000000
1FE3DF60000000
0EFFFC00000000
04DEA100000000
ENDCHAR
STARTCHAR uni0237
ENCODING 567
SWIDTH 254 0
DWIDTH 5 0
BBX 13 18 -5 -9
BITMAP
0000002DE20000
0000006FF20000
0000008FF00000
0000009FD00000
000000BFA00200
000000DF819F30
000000FF9DFC10
000002FFFF8000
000004FFD30000
00002DFD000000
0004EFFA000000
005FCDF6000000
03FC2FF2000000
0DE25FC0000000
5F90BF70000000
8F96FE10000000
6FFFF600000000
0AED6000000000
ENDCHAR
STARTCHAR uni0259
ENCODING 601
SWIDTH 458 0
DWIDTH 9 0
BBX 9 9 0 0
BITMAP
03BDFEA200
0BFFFFFD10
045227FF70
001111DFA0
0CFFFFFFB0
3FFFFFFF90
1FF625FF40
0AFFFFFA00
018DFD7000
ENDCHAR
STARTCHAR uni02BC
ENCODING 700
SWIDTH 600 0
DWIDTH 12 0
BBX 3 5 5 10
BITMAP
4E90
8FC0
9F80
AF40
8C00
ENDCHAR
STARTCHAR circumflex
ENCODING 710
SWIDTH 600 0
DWIDTH 12 0
BBX 8 7 2 10
BITMAP
00016500
000BFF40
005FEF90
01DF6FD0
08FB0FF1
2FF30DF5
3E9008E3
ENDCHAR
STARTCHAR caron
ENCODING 711
SWIDTH 600 0
DWIDTH 12 0
BBX 8 7 3 10
BITMAP
17200360
6FB01EF3
4FD08FB0
1FF1EF20
0CF9F800
08FFE100
02DD4000
ENDCHAR
STARTCHAR uni02C9
ENCODING 713
SWIDTH 600 0
DWIDTH 12 0
BBX 8 3 2 10
BITMAP
00111110
1EFFFFF3
0DFFFFE2
ENDCHAR
STARTCHAR breve
ENCODING 728
SWIDTH 600 0
DWIDTH 12 0
BBX 9 5 2 10
BITMAP
3600001610
BF7000BF50
9FE528FF20
2EFFFFF800
02AEEC5000
ENDCHAR
STARTCHAR dotaccent
ENCODING 729
SWIDTH 600 0
DWIDTH 12 0
BBX 4 3 4 10
BITMAP
2CE9
8FFE
3DE6
ENDCHAR
STARTCHAR ring
ENCODING 730
SWIDTH 600 0
DWIDTH 12 0
BBX 6 7 3 10
BITMAP
000100
03DFC2
0EFFFC
4FA1DF
4FA3DF
1EFFFA
04DEA1
ENDCHAR
STARTCHAR ogonek
ENCODING 731
SWIDTH 600 0
DWIDTH 12 0
BBX 6 7 2 -5
BITMAP
000100
01BC00
0AF600
2FC000
4FE311
1EFFFE
04CEE7
ENDCHAR
STARTCHAR tilde
ENCODING 732
SWIDTH 600 0
DWIDTH 12 0
BBX 9 4 2 10
BITMAP
09EA100620
7FFFE58F80
EF49FFFE20
54005DE400
ENDCHAR
STARTCHAR hungarumlaut
ENCODING 733
SWIDTH 600 0
DWIDTH 12 0
BBX 8 6 3 10
BITMAP
00CD14E9
05FF4BFD
0AFC1FF7
0EF35FC0
4F90AF30
5D10A900
ENDCHAR
STARTCHAR gravecomb
ENCODING 768
SWIDTH 0 0
DWIDTH 0 0
BBX 5 6 -10 10
BITMAP
4E8000
8FF200
2EF900
04FE10
007F80
000A90
ENDCHAR
STARTCHAR acutecomb
ENCODING 769
SWIDTH 0 0
DWIDTH 0 0
BBX 5 6 -7 10
BITMAP
007E60
01EFA0
07FF30
0DF600
5F9000
7B0000
ENDCHAR
STARTCHAR uni0302
ENCODING 770
SWIDTH 0 0
DWIDTH 0 0
BBX 8 7 -10 10
BITMAP
00016500
000BFF40
005FEF90
01DF6FD0
08FB0FF1
2FF30DF5
3E9008E3
ENDCHAR
STARTCHAR tildecomb
ENCODING 771
SWIDTH 0 0
DWIDTH 0 0
BBX 9 4 -10 10
BITMAP
09EA100620
7FFFE58F80
EF49FFFE20
54005DE400
ENDCHAR
STARTCHAR uni0304
ENCODING 772
SWIDTH 0 0
DWIDTH 0 0
BBX 8 3 -10 10
BITMAP
00111110
1EFFFFF3
0DFFFFE2
ENDCHAR
STARTCHAR uni0306
ENCODING 774
SWIDTH 0 0
DWIDTH 0 0
BBX 9 5 -10 10
BITMAP
3600001610
BF7000BF50
9FE528FF20
2EFFFFF800
02AEEC5000
ENDCHAR
STARTCHAR uni0307
ENCODING 775
SWIDTH 0 0
DWIDTH 0 0
BBX 4 3 -8 10
BITMAP
2CE9
8FFE
3DE6
ENDCHAR
STARTCHAR uni0308
ENCODING 776
SWIDTH 0 0
DWIDTH 0 0
BBX 8 3 -10 10
BITMAP
1BE50AE7
4FF91FFB
1DE40CE5
ENDCHAR
STARTCHAR hookabovecomb
ENCODING 777
SWIDTH 0 0
DWIDTH 0 0
BBX 5 7 -8 10
BITMAP
001000
6FFD30
9FFFC0
001DF0
003EE0
0DFF80
0CE800
ENDCHAR
STARTCHAR uni030A
ENCODING 778
SWIDTH 0 0
DWIDTH 0 0
BBX 6 7 -9 10
BITMAP
000100
03DFC2
0EFFFC
4FA1DF
4FA3DF
1EFFFA
04DEA1
ENDCHAR
STARTCHAR uni030B
ENCODING 779
SWIDTH 0 0
DWIDTH 0 0
BBX 8 6 -9 10
BITMAP
00CD14E9
05FF4BFD
0AFC1FF7
0EF35FC0
4F90AF30
5D10A900
ENDCHAR
STARTCHAR uni030C
ENCODING 780
SWIDTH 0 0
DWIDTH 0 0
BBX 8 7 -9 10
BITMAP
17200360
6FB01EF3
4FD08FB0
1FF1EF20
0CF9F800
08FFE100
02DD4000
ENDCHAR
STARTCHAR uni030F
ENCODING 783
SWIDTH 0 0
DWIDTH 0 0
BBX 8 6 -11 10
BITMAP
7E60CD20
BFD1FF70
4FF3AFC0
0AF72EF2
02EC07F6
006C00C7
ENDCHAR
STARTCHAR uni0311
ENCODING 785
SWIDTH 0 0
DWIDTH 0 0
BBX 9 6 -10 10
BITMAP
0000100000
01AFFE9100
1DFFFFFB00
8FE318FF40
BF5000CF60
3500002600
ENDCHAR
STARTCHAR uni0312
ENCODING 786
SWIDTH 0 0
DWIDTH 0 0
BBX 3 5 -7 10
BITMAP
4E90
8FC0
9F80
AF40
8C00
ENDCHAR
STARTCHAR uni031B
ENCODING 795
SWIDTH 0 0
DWIDTH 0 0
BBX 5 5 -7 7
BITMAP
002600
00BF30
05FF10
3FF900
6D7000
ENDCHAR
STARTCHAR dotbelowcomb
ENCODING 803
SWIDTH 0 0
DWIDTH 0 0
BBX 5 3 -10 -4
BITMAP
1BEB00
5FFF20
2DE900
ENDCHAR
STARTCHAR uni0324
ENCODING 804
SWIDTH 0 0
DWIDTH 0 0
BBX 8 3 -12 -4
BITMAP
0AE708E9
2FFB0EFD
0CE50AE7
ENDCHAR
STARTCHAR uni0326
ENCODING 806
SWIDTH 0 0
DWIDTH 0 0
BBX 3 5 -9 -6
BITMAP
6E70
BFA0
CF60
CF10
A900
ENDCHAR
STARTCHAR uni0327
ENCODING 807
SWIDTH 0 0
DWIDTH 0 0
BBX 6 6 -11 -5
BITMAP
07FE91
09FFFA
0015FD
0126FC
BFFFF5
8EFC50
ENDCHAR
STARTCHAR uni0328
ENCODING 808
SWIDTH 0 0
DWIDTH 0 0
BBX 6 7 -10 -5
BITMAP
000100
01BC00
0AF600
2FC000
4FE311
1EFFFE
04CEE7
ENDCHAR
STARTCHAR uni032E
ENCODING 814
SWIDTH 0 0
DWIDTH 0 0
BBX 9 5 -12 -6
BITMAP
3600001610
CF6000BF40
AFE429FF20
3FFFFFF700
03BEEC5000
ENDCHAR
STARTCHAR uni0331
ENCODING 817
SWIDTH 0 0
DWIDTH 0 0
BBX 7 3 -11 -3
BITMAP
01111100
8FFFFF80
8FFFFF70
ENDCHAR
STARTCHAR uni0394
ENCODING 916
SWIDTH 700 0
DWIDTH 14 0
BBX 13 17 0 0
BITMAP
00000007E50000
0000001FFB0000
0000008FFE0000
000000EFFF1000
000006FECF4000
00000DF79F7000
00004FF17FA000
0000BFA04FD000
0002FF302FF100
0009FC000FF400
001FF5000CF700
007FE0000AFA00
00EF800007FD00
06FF200005FF10
0CFC555557FF40
3FFFFFFFFFFF70
3EFFFFFFFFFF50
ENDCHAR
STARTCHAR uni03A9
ENCODING 937
SWIDTH 816 0
DWIDTH 16 0
BBX 17 17 -1 0
BITMAP
00000005AEFEB50000
000002CFFFFFFFA100
00002EFFD869EFFA00
0000CFF900003EFF30
0007FFA0000007FF90
000DFF20000003FFC0
004FFB00000000FFE0
007FF700000000FFE0
009FF500000001FFC0
00AFF400000003FFA0
00AFF400000007FF60
009FF60000000DFF10
006FFA0000007FF800
001EFF200003FFD100
036BFFD1004EFF9620
4FFFFFF901EFFFFFD0
4EFFFFF601DFFFFFA0
ENDCHAR
STARTCHAR uni03BC
ENCODING 956
SWIDTH 462 0
DWIDTH 9 0
BBX 12 15 0 -5
BITMAP
00BF303EA000
04FF209FA000
08FE00DF7000
0BFB03FF4000
0DF808FF1000
0FF61EFE006A
2FF68FFB03EB
3FFFFDFD5DF4
4FFFE6FFFF60
5FFD41BEC400
6FF000000000
6FF000000000
6FF000000000
7FF000000000
4EA000000000
ENDCHAR
STARTCHAR pi
ENCODING 960
SWIDTH 496 0
DWIDTH 10 0
BBX 13 10 0 0
BITMAP
6FFFFFFFFFE000
7FFFFFFFFF9000
06FF317FF10000
09FE00AFD00000
0CFC00DFA00000
0EF900FF700520
1FF701FF604F70
3FF600FF96FE20
4FF400BFFFE400
3ED1002CEB3000
ENDCHAR
STARTCHAR uni0400
ENCODING 1024
SWIDTH 686 0
DWIDTH 14 0
BBX 17 23 0 0
BITMAP
000036100000000000
0000EFD20000000000
00009FFE4000000000
000004CFF600000000
00000004BC00000000
000000000000000000
000000000000000000
0000049DEFEB600000
0002CFFFFFFFF90000
000DFFB5324DFF2000
005FFB000007FF3000
006FF9000008FE1000
001EFF620002730000
0002AFFFF700000000
0019EFFFF600000000
03EFFA521000000000
0DFF40000000000000
4FFB00000000000000
5FF900000000000000
3FFE10000000005910
0BFFD7322247AEFF20
01BFFFFFFFFFFFE700
00038CEEFEDB851000
ENDCHAR
STARTCHAR uni0401
ENCODING 1025
SWIDTH 686 0
DWIDTH 14 0
BBX 17 21 0 0
BITMAP
0000007EB05ED10000
000000DFF1BFF40000
0000008E906EB00000
000000000000000000
000000000000000000
0000049DEFEB600000
0002CFFFFFFFF90000
000DFFB5324DFF2000
005FFB000007FF3000
006FF9000008FE1000
001EFF620002730000
0002AFFFF700000000
0019EFFFF600000000
03EFFA521000000000
0DFF40000000000000
4FFB00000000000000
5FF900000000000000
3FFE10000000005910
0BFFD7322247AEFF20
01BFFFFFFFFFFFE700
00038CEEFEDB851000
ENDCHAR
STARTCHAR uni0402
ENCODING 1026
SWIDTH 974 0
DWIDTH 19 0
BBX 22 25 0 -9
BITMAP
000169BDEFFFFFFFD90000
019FFFFFFFFFFFFFFE0000
0BFE8421DFE10012210000
2FF40001FFC00000000000
4FF20004FF900000000000
1FF60008FF600000000000
07C3000BFF300000000000
0000000DFF029DFD910000
0000001FFD5EFFFFFB0000
0000003FFDFB413DFF2000
0000006FFF700009FF4000
0000008FFA00000AFF2185
000000BFF400000CFF4DF9
000000DFF100000EFFFFE3
000000FFE000001FFFFA10
000000BF8000006FFE5000
00000000000009FFF50000
000000000001BFFFF10000
00000000001CFEEFC00000
0000000000AFE4FF800000
0000000003FF45FF200000
0000000009FA0BFB000000
000000000BF95FF3000000
0000000009FFFF80000000
0000000001BED600000000
ENDCHAR
STARTCHAR uni0403
ENCODING 1027
SWIDTH 635 0
DWIDTH 13 0
BBX 18 23 0 0
BITMAP
000000000003710000
00000000006FF80000
0000000009FFF40000
00000001BFF9200000
00000003E920000000
000000000000000000
000000000000001110
00038BDEFFFFFFFFF1
01BFFFFFFFFFFFEDA0
0CFE95BFF300000000
3FF500DFE000000000
4FF201FFB000000000
1FF704FF9000000000
069207FF6000000000
00000AFF3000000000
00000DFF0000000000
00000FFD0000000000
00003FFA0000000000
00005FF80000000000
00008FF60000000000
0000AFF40000000000
0000CFF20000000000
00008FB00000000000
ENDCHAR
STARTCHAR uni0404
ENCODING 1028
SWIDTH 687 0
DWIDTH 14 0
BBX 16 16 1 0
BITMAP
000006BEFEB50000
0002DFFFFFFF6000
003EFF8313EFE000
01DFF40000AFF000
09FF700000BFD000
1EFE0000006B4000
5FF9000000000000
8FFFFFFFFA000000
AFFFFFFFFB000000
AFF4000000000000
8FF6000000000000
5FFB000000000000
0EFF600000000250
04FFFA421137BFF3
004DFFFFFFFFFF90
00016ADEEDCA6100
ENDCHAR
STARTCHAR uni0405
ENCODING 1029
SWIDTH 693 0
DWIDTH 14 0
BBX 14 16 0 0
BITMAP
000028CEFEB710
0006FFFFFFFFD1
004FFD63239FF9
00BFF200000CFC
00DFE000000CFB
00BFF6000009E5
005FFFA3000000
0006FFFFC61000
000029EFFFE600
00000005CFFF60
0BE3000006FFE0
4FF5000000BFF1
4FF6000000DFE0
1FFE63225CFF90
06FFFFFFFFFA10
0029CEFED94000
ENDCHAR
STARTCHAR uni0406
ENCODING 1030
SWIDTH 495 0
DWIDTH 10 0
BBX 13 16 -1 0
BITMAP
0009EFFFFFFC10
000DFFFFFFFC00
000013FFB11000
000004FF900000
000006FF600000
000009FF300000
00000BFF100000
00000EFD000000
00001FFB000000
00004FF8000000
00006FF6000000
00009FF4000000
0000BFF1000000
0011EFF1100000
1CFFFFFFFA0000
3EFFFFFFF80000
ENDCHAR
STARTCHAR uni0407
ENCODING 1031
SWIDTH 495 0
DWIDTH 10 0
BBX 13 21 -1 0
BITMAP
00002DE41BE600
00006FF84FFA00
00003ED31DE400
00000000000000
00000000000000
0009EFFFFFFC10
000DFFFFFFFC00
000013FFB11000
000004FF900000
000006FF600000
000009FF300000
00000BFF100000
00000EFD000000
00001FFB000000
00004FF8000000
00006FF6000000
00009FF4000000
0000BFF1000000
0011EFF1100000
1CFFFFFFFA0000
3EFFFFFFF80000
ENDCHAR
STARTCHAR uni0408
ENCODING 1032
SWIDTH 743 0
DWIDTH 15 0
BBX 15 19 1 -3
BITMAP
00048BDEFFEDA700
03CFFFFFFFFFFF40
1EFD742223AFF800
6FE1000000BFF200
8FD0000000DFF000
6FF2000000EFD000
1CC1000001FFA000
0000000007FF7000
00000018EFFF5000
000006EFFEFF1000
0001AFF91CFD0000
000BFE401FF80000
006FF4006FF30000
00DFB000CFC00000
00FF8005FF500000
00EFB14EFA000000
009FFFFFC1000000
0019EFE810000000
0000010000000000
ENDCHAR
STARTCHAR uni0409
ENCODING 1033
SWIDTH 1158 0
DWIDTH 23 0
BBX 23 16 0 0
BITMAP
000000000009ED1000000000
00000000003FFF4000000000
00000000008FFF3000000000
0000000000DFFF2000000000
0000000004FFFF1000000000
0000000009FFFF1000000000
000000001EFCFF38DFFEA200
000000005FE9FFFFFFFFFE20
00000000CF99FF94213CFFA0
00000004FF4AFF000003FFD0
0000000BFD09FF100001FFD0
2500005FF608FF300003FFA0
BF6001EFC005FF80000AFF50
AFD23CFF3001EFF6139FFB00
3EFFFFF500004FFFFFFFB100
03BEEB30000003AEFEB50000
ENDCHAR
STARTCHAR uni040A
ENCODING 1034
SWIDTH 1182 0
DWIDTH 24 0
BBX 25 16 -1 0
BITMAP
0004BEE90000008E8000000000
009FFFFF600000FFC000000000
0AFB33FFB00003FF8000000000
3FA000DFC00007FF4000000000
2A1000EFC0000AFF1000000000
000000FFB0000DFB0001000000
000002FF90001FFCADFFFC6000
000005FF71138FFFFFFFFFFA00
000CFFFFFFFFFFF941016FFF30
000DFFFFFEDBCFF100000AFF60
00000FFD0000AFF1000008FF50
00004FF900009FF100000BFF30
00007FF500008FF400004FFC00
0000BFF100003FFD4138FFE300
0000FFC0000009FFFFFFFD4000
0000CE400000006CEFDB610000
ENDCHAR
STARTCHAR uni040B
ENCODING 1035
SWIDTH 979 0
DWIDTH 20 0
BBX 23 16 0 0
BITMAP
000169BDEFFFFFFFD9000000
019FFFFFFFFFFFFFFE000000
0BFE8421DFE1001221000000
2FF40001FFC0000000000000
4FF20004FF90000000000000
1FF60008FF60000000000000
07C3000BFF30000000000000
0000000DFF029DFD91000000
0000001FFD5EFFFFFB000000
0000003FFDFB413DFF200000
0000006FFF700009FF400000
0000008FFA00000BFF200200
000000BFF400000DFE005F20
000000DFF100000FFD17FD00
000000FFF000000EFFFFD200
000000BE90000006DFD71000
ENDCHAR
STARTCHAR uni040C
ENCODING 1036
SWIDTH 937 0
DWIDTH 19 0
BBX 22 23 0 0
BITMAP
0000000000000000550000
000000000000001AFF3000
00000000000002CFFC1000
0000000000004EFD600000
0000000000008D60000000
0000000000000000000000
0000000000000000000000
00028CEFED9300003EE200
007FFFFFFFFC0000CFF200
04FFA422EFE40004FFB000
09FD0001FFB0000CFF3000
09FC0004FF80007FF90000
04FF1006FF6006FFB00000
00540009FF55BFF9000000
000002EFFFFFFC40000000
000002FFFFFFC300000000
0000001FFB6EFE30000000
0000003FF906FFC0000000
1810006FF600DFF4000061
6FA000BFF2006FFC0007F4
5FF727FFB0000DFFA59FD1
0BFFFFFE200004FFFFFD20
007DFEA20000004CED9100
ENDCHAR
STARTCHAR uni040D
ENCODING 1037
SWIDTH 890 0
DWIDTH 18 0
BBX 21 23 0 0
BITMAP
0000027200000000000000
00000AFE40000000000000
000006FFF7000000000000
0000002AFFA00000000000
000000002AE20000000000
0000000000000000000000
0000000000000000000000
003AEEB2000000BE500000
06FFFFFA000002FFA00000
6FE63FFD000004FF900000
ED200FFD000007FF700000
72001FFB00000AFF400000
00005FF900000DFF200000
00008FF500002FFE000000
0000CFF100007FFB000000
0000FFD00000CFF9000000
0003FF900003FFF7000000
0007FF60000BEFF4000000
000AFF30005FAFF3000310
000BFF3004EA9FF3006F50
000AFFC7AFE28FFC7AFE20
0004FFFFFE404FFFFFE400
00006CEE920005CEE92000
ENDCHAR
STARTCHAR uni040E
ENCODING 1038
SWIDTH 824 0
DWIDTH 16 0
BBX 19 29 0 -5
BITMAP
00000000000004400000
0000000371001EC00000
0000000BFA01BF800000
00000008FFEFFD100000
000000008DFD91000000
00000000000000000000
00000000000000000000
00000000000000000000
004BEEA1000000CE6000
08FFFFF9000003FF9000
3FD43FFC000007FF7000
17101FFB00000BFF5000
00004FF800001FFF2000
00008FF400008FFE0000
0000CFF10002FFFC0000
0000EFE0001DEFF90000
0000DFF315DF7FF60000
00007FFFFFF65FF40000
000007DFDA307FF68AA0
000000000000AFFFFFF0
00000000039EFFFEB730
00000002BFFFFFA00000
0000006FFD62FF600000
000005FF7005FF300000
00000EF8000AFD000000
00003FF3002FF7000000
00003FF814DFC0000000
00000DFFFFFD20000000
000002AEFD8100000000
ENDCHAR
STARTCHAR uni040F
ENCODING 1039
SWIDTH 890 0
DWIDTH 18 0
BBX 21 20 0 -4
BITMAP
003AEEB2000000BE500000
07FFFFFA000002FFA00000
6FD52FFD000004FF900000
ED100FFD000007FF700000
72002FFB00000AFF400000
00005FF900000DFF200000
00008FF500002FFE000000
0000CFF100007FFB000000
0000FFD00000CFF9000000
0003FF900003FFF7000000
0007FF60000BEFF4000000
000AFF30005FAFF3000310
000BFF3004EA9FF3006F50
000AFFC7AFE18FFC7BFE20
0005FFFFFD303FFFFFE400
00006EFF810005CEE92000
00000AFF00000000000000
00000DFC00000000000000
00000EF900000000000000
0000056100000000000000
ENDCHAR
STARTCHAR uni0410
ENCODING 1040
SWIDTH 786 0
DWIDTH 16 0
BBX 18 16 1 0
BITMAP
00000027BDEFEC9400
00001AFFFFFFFFFB00
0004EFFD8544589300
004FFF700008A40000
01EFF500004FF90000
09FF8000007FF50000
2FFE000000BFF10000
6FF9000000EFD00000
AFF4000004FFA00000
CFF2000009FF700000
DFF100001EFF500000
CFF300007FFF400020
9FF80002EFFF4005F4
3FFF847EE9FFB48FE1
07FFFFFF52EFFFFE30
005BEEB4004CEE9200
ENDCHAR
STARTCHAR uni0411
ENCODING 1041
SWIDTH 917 0
DWIDTH 18 0
BBX 18 18 0 -1
BITMAP
000000000000001110
00027ACEFFFFFFFFF1
01AFFFFFFFFFFFEDA0
0BFE621EFD00000000
2FF4003FFB00000000
4FF2006FF800000000
2FF6009FF500000000
0AE500BFF200000000
000000EFFBDEFEC710
00006EFFFFFFFFFFD1
0000DFFFB42125DFF9
000039FF6000003FFE
000008FF4000000FFE
00000BFF2000003FFC
00000DFF100000BFF7
00000EFE00015DFFC0
00001FFC04BFFFFA10
00000CF707FEB82000
ENDCHAR
STARTCHAR uni0412
ENCODING 1042
SWIDTH 827 0
DWIDTH 17 0
BBX 18 17 0 -1
BITMAP
000037ACEEFEDA6000
028EFFFFFFFFFFFD30
4FFFE96432236CFFD1
7FA40210000000CFF4
01009FF1000000AFF5
0000EFD0000003EFE1
0003FF9000148EFF50
0007FF507FFFFFA300
000AFF10AFFFE70000
000EFD00024BFF9000
001FFB000001EFF100
004FF8000000DFF200
006FF6000006FFD000
008FF62235AFFF4000
00AFFFFFFFFFD40000
00BFFFFEDC94000000
008EB0000000000000
ENDCHAR
STARTCHAR uni0413
ENCODING 1043
SWIDTH 635 0
DWIDTH 13 0
BBX 18 17 0 0
BITMAP
000000000000001110
00038BDEFFFFFFFFF1
01BFFFFFFFFFFFEDA0
0CFE95BFF300000000
3FF500DFE000000000
4FF201FFB000000000
1FF704FF9000000000
069207FF6000000000
00000AFF3000000000
00000DFF0000000000
00000FFD0000000000
00003FFA0000000000
00005FF80000000000
00008FF60000000000
0000AFF40000000000
0000CFF20000000000
00008FB00000000000
ENDCHAR
STARTCHAR uni0414
ENCODING 1044
SWIDTH 964 0
DWIDTH 19 0
BBX 19 16 0 0
BITMAP
00000159CEFEDB610000
00008EFFFFFFFFFE5000
0008FFC8421149FFF500
0005A4002000005FFE10
0000000BFA00000AFF60
0000005FF6000005FFA0
000000CFE0000003FFB0
000002FFA0000002FFC0
000006FF60000003FFB0
000009FF20000005FF90
00000CFE00000009FF50
07DFDEFB0000001EFE10
5FFFFFFB1000009FF700
AFA29FFFE8313AFFC000
8FFFFF76EFFFFFFC1000
1AEEC60018CEEC600000
ENDCHAR
STARTCHAR uni0415
ENCODING 1045
SWIDTH 686 0
DWIDTH 14 0
BBX 17 16 0 0
BITMAP
0000049DEFEB600000
0002CFFFFFFFF90000
000DFFB5324DFF2000
005FFB000007FF3000
006FF9000008FE1000
001EFF620002730000
0002AFFFF700000000
0019EFFFF600000000
03EFFA521000000000
0DFF40000000000000
4FFB00000000000000
5FF900000000000000
3FFE10000000005910
0BFFD7322247AEFF20
01BFFFFFFFFFFFE700
00038CEEFEDB851000
ENDCHAR
STARTCHAR uni0416
ENCODING 1046
SWIDTH 1234 0
DWIDTH 25 0
BBX 27 16 0 0
BITMAP
00018DFD500004ED10001AEEC400
000BFFFFF40009FF3000CFFFFE10
000E824EFD000BFF1007FF44EE10
00000006FF400DFE001EF9001000
00000001FF900FFB009FF2000000
00000000AFD02FF905FF90000000
000000004FF85FF88FFC10000000
0000000006EFFFFFFD7000000000
000000004CFFFFFFFB2000000000
00000007FFD4DFE4EFD100000000
0000004FFC10FFB05FF900000000
000000DFF203FF900DFF20000000
174006FF7005FF6006FFA0001C60
6FE33EFC0007FF4000DFF813CF50
3FFFFFE2000AFF20003EFFFFF700
04CEEA200007FB000003BEEB3000
ENDCHAR
STARTCHAR uni0417
ENCODING 1047
SWIDTH 725 0
DWIDTH 15 0
BBX 13 16 1 0
BITMAP
00017BEFEC6000
003EFFFFFFF800
01DFE6215FFE00
04FF50000AFF00
03FF30000BFD00
008910002FF600
00000003DFA000
00005CEFFFA200
0000BFDA6DFE30
0000000004FFA0
5D80000002FFC0
CFD0000005FFA0
CFF100001DFF50
8FFA3126EFFA00
1CFFFFFFFF9000
006BEFEC830000
ENDCHAR
STARTCHAR uni0418
ENCODING 1048
SWIDTH 890 0
DWIDTH 18 0
BBX 21 16 0 0
BITMAP
003AEEB2000000BE500000
06FFFFFA000002FFA00000
6FE63FFD000004FF900000
ED200FFD000007FF700000
72001FFB00000AFF400000
00005FF900000DFF200000
00008FF500002FFE000000
0000CFF100007FFB000000
0000FFD00000CFF9000000
0003FF900003FFF7000000
0007FF60000BEFF4000000
000AFF30005FAFF3000310
000BFF3004EA9FF3006F50
000AFFC7AFE28FFC7AFE20
0004FFFFFE404FFFFFE400
00006CEE920005CEE92000
ENDCHAR
STARTCHAR uni0419
ENCODING 1049
SWIDTH 890 0
DWIDTH 18 0
BBX 21 24 0 0
BITMAP
0000000000000350000000
0000000172000CF0000000
00000008FD108FB0000000
00000004FFFFFE30000000
000000006CFEA200000000
0000000000000000000000
0000000000000000000000
0000000000000000000000
003AEEB2000000BE500000
06FFFFFA000002FFA00000
6FE63FFD000004FF900000
ED200FFD000007FF700000
72001FFB00000AFF400000
00005FF900000DFF200000
00008FF500002FFE000000
0000CFF100007FFB000000
0000FFD00000CFF9000000
0003FF900003FFF7000000
0007FF60000BEFF4000000
000AFF30005FAFF3000310
000BFF3004EA9FF3006F50
000AFFC7AFE28FFC7AFE20
0004FFFFFE404FFFFFE400
00006CEE920005CEE92000
ENDCHAR
STARTCHAR uni041A
ENCODING 1050
SWIDTH 937 0
DWIDTH 19 0
BBX 22 16 0 0
BITMAP
00028CEFED9300003EE200
007FFFFFFFFC0000CFF200
04FFA422EFE40004FFB000
09FD0001FFB0000CFF3000
09FC0004FF80007FF90000
04FF1006FF6006FFB00000
00540009FF55BFF9000000
000002EFFFFFFC40000000
000002FFFFFFC300000000
0000001FFB6EFE30000000
0000003FF906FFC0000000
1810006FF600DFF4000061
6FA000BFF2006FFC0007F4
5FF727FFB0000DFFA59FD1
0BFFFFFE200004FFFFFD20
007DFEA20000004CED9100
ENDCHAR
STARTCHAR uni041B
ENCODING 1051
SWIDTH 861 0
DWIDTH 17 0
BBX 20 16 0 0
BITMAP
000000000008ED200000
00000000003FFF400000
00000000008FFF300000
0000000000DFFF200000
0000000004FFFF100000
0000000009FFFF100000
000000001EFDFF000000
000000005FF9FF000000
00000000CFA9FF000000
00000004FF5AFF100000
0000000BFD09FF200000
1500005FF707FF500013
BF6002EFD004FF9001CB
BFD33DFF4000EFF76DF7
3FFFFFF600007FFFFF90
03BEEB40000007DFC600
ENDCHAR
STARTCHAR uni041C
ENCODING 1052
SWIDTH 1133 0
DWIDTH 23 0
BBX 26 16 0 0
BITMAP
000000001BFC10000AEC100000
000000006FFF30006FFF300000
000000009FFF3000DFFF200000
00000000DFFF2005FFFF000000
00000001FFFF200CFEFE000000
00000004FFFF203FFBFD000000
00000008FCFF309FBBFC000000
0000000CF9FF41EF6CFB000000
0000001FF5FF56FE1DFB000000
0000005FF1EF6BF90EFB000000
000000AFC0DF8FF40DFC000000
150001FF70BFEFD00CFE000040
BF6008FF108FFF800AFF2006F3
BFE57FF8006FFF3006FFB49FD1
4FFFFFC1002FFC0001DFFFFD20
05CFE9100009E500002BFD9100
ENDCHAR
STARTCHAR uni041D
ENCODING 1053
SWIDTH 873 0
DWIDTH 17 0
BBX 21 18 -1 0
BITMAP
0000000000000000010000
0000000000000001AFE400
0004BEE90000000CFFFC00
00AFFFFF7000008FE3CF00
0AFB44FFB00001EF70BF00
3FA000EFC00006FF10DD00
191000EFC0000BFC03F800
000000FFB0001FF81CE100
000002FF90004FF9DE3000
000016FF71128FFFC20000
000DFFFFFFFFFFF4000000
000DFFFFFECAEFE0000000
00000FFC0000CFE0000000
00004FF90000CFF0000000
00007FF500009FF30006E0
0000BFF100005FFC339FC0
0000FFC000000BFFFFFD20
0000CE400000018DFD7000
ENDCHAR
STARTCHAR uni041E
ENCODING 1054
SWIDTH 816 0
DWIDTH 16 0
BBX 15 16 1 0
BITMAP
000005BEFEB60000
0003CFFFFFFFB100
003EFF9424CFFB00
01EFF400001CFF50
09FF70000005FFA0
1EFE00000001FFD0
5FF900000000FFE0
8FF600000001FFD0
AFF400000002FFC0
BFF400000006FF80
9FF50000000AFF40
7FF80000003FFC00
2FFE200002DFF300
08FFD5237EFF6000
009FFFFFFFE40000
0004ADFEC7100000
ENDCHAR
STARTCHAR uni041F
ENCODING 1055
SWIDTH 892 0
DWIDTH 18 0
BBX 21 16 0 0
BITMAP
000158BCEEFFFEEDCA8610
008EFFFFFFFFFFFFFFFF60
0AFFA69FF60000EFD57810
2FF600AFF30001FFB00000
4FF200DFF00004FF900000
1FF601FFC00007FF600000
07B204FF90000AFF300000
000007FF60000DFE000000
00000AFF30001FFB000000
00000CFF10005FF8000000
00000FFD00007FF4000000
00002FFB0000AFF2000100
00005FF90000AFF1002D50
00007FF700008FF814EF30
00009FF500002FFFFFF500
00005EC2000003BEEA3000
ENDCHAR
STARTCHAR uni0420
ENCODING 1056
SWIDTH 805 0
DWIDTH 16 0
BBX 17 19 0 -3
BITMAP
00000017BEFEC71000
000007EFFFFFFFD200
0000AFFA4235DFFC00
0008FE4000001EFF40
004FF505ED0009FF60
00CFA00CFF0008FF50
03FF200EFD000CFF30
08FC002FFA005FFB00
0BF8005FF728FFE200
0EF54EEFFFFFFC2000
0FF43EFFFEDA500000
1FF300DFE000000000
1FF301FFB000000000
0FF404FF8000000000
0CF806FF6000000000
07FE3BFF3000000000
01DFFFFE0000000000
002DFFF60000000000
000046300000000000
ENDCHAR
STARTCHAR uni0421
ENCODING 1057
SWIDTH 686 0
DWIDTH 14 0
BBX 16 16 1 0
BITMAP
000006BEFEB40000
0002DFFFFFFF4000
003EFF9425FFC000
01DFF50000AFF000
09FF700000BFE000
1FFD000000CF9000
5FF9000000140000
8FF5000000000000
AFF4000000000000
AFF4000000000000
9FF6000000000000
5FFB000000000000
0EFF700000000360
04FFFB522248CFF3
004DFFFFFFFFFF80
00016ADEFEC96100
ENDCHAR
STARTCHAR uni0422
ENCODING 1058
SWIDTH 697 0
DWIDTH 14 0
BBX 18 16 0 0
BITMAP
000269BDEFFFFFFFD9
019FFFFFFFFFFFFFFE
0BFE8432DFF2112331
3FF40001FFC0000000
4FF20004FF90000000
1FF70007FF60000000
05A2000AFF30000000
0000000DFF00000000
0000001FFC00000000
0000003FFA00000000
0000006FF700000000
0000008FF500000000
000000BFF300000000
000000DFF100000000
000000FFE000000000
000000BF8000000000
ENDCHAR
STARTCHAR uni0423
ENCODING 1059
SWIDTH 824 0
DWIDTH 16 0
BBX 19 21 0 -5
BITMAP
004BEEA1000000CE6000
08FFFFF9000003FF9000
3FD43FFC000007FF7000
17101FFB00000BFF5000
00004FF800001FFF2000
00008FF400008FFE0000
0000CFF10002FFFC0000
0000EFE0001DEFF90000
0000DFF315DF7FF60000
00007FFFFFF65FF40000
000007DFDA307FF68AA0
000000000000AFFFFFF0
00000000039EFFFEB730
00000002BFFFFFA00000
0000006FFD62FF600000
000005FF7005FF300000
00000EF8000AFD000000
00003FF3002FF7000000
00003FF814DFC0000000
00000DFFFFFD20000000
000002AEFD8100000000
ENDCHAR
STARTCHAR uni0424
ENCODING 1060
SWIDTH 977 0
DWIDTH 20 0
BBX 19 24 1 -5
BITMAP
00150000000000000000
009FC621000000000000
009FFFFFFFFEA0000000
0005ADFFFFFFB0000000
000000000CF900000000
0004BEEB4FF52AEE9000
006FFFFFFFF4EFFFF800
04FFD42AFFFDE62DFE00
0CFF2000CFFF400AFF20
3FFA0000CFF7000AFF20
7FF50000EFC0000BFF10
AFF20002FF50000DFF00
CFF00007FF30001FFC00
DFF0003FFF20005FF800
CFF001DFFF1000CFF200
9FF43DFEFFC42AFF8000
3FFFFF7DFFFFFFFB0000
06DFC40FF98DFC700000
0000003FF50000000000
0251007FF10000000000
0AF800CFA00000000000
09FE36FF300000000000
02EFFFF8000000000000
003BED70000000000000
ENDCHAR
STARTCHAR uni0425
ENCODING 1061
SWIDTH 712 0
DWIDTH 14 0
BBX 18 16 -1 0
BITMAP
0007DFD8000004DE40
01CFFFFF90003FFE20
0BF925EFF202EFE300
0960007FF82DFF4000
0000001FFDCFF50000
0000000BFFFF600000
00000007FFF7000000
00000008FFC0000000
0000007FFFF1000000
000006FFFFF5000000
00005FFD5FF9000000
0004FFE20EFD000001
003EFE300AFF3000AB
03EFF50004FFC33BF9
1DFF700000AFFFFFA0
2EE800000018DFC600
ENDCHAR
STARTCHAR uni0426
ENCODING 1062
SWIDTH 890 0
DWIDTH 18 0
BBX 21 22 0 -6
BITMAP
003AEEB2000000BE500000
06FFFFFA000002FFA00000
5FD52FFD000004FF900000
ED200FFD000007FF700000
83002FFC000009FF500000
00005FF900000DFF200000
00008FF600001FFE000000
0000CFF200006FFC000000
0000FFE00000BFF9000000
0003FFA00002FFF7000000
0007FF700009FFF5000000
000AFF40002FBFF3000000
000BFF2001CC8FF3000000
000AFF714DE38FFDA28E30
0004FFFFFE402BEFFEFC10
00006CEEA200019FFD6000
0000000000007EFFE00000
00000000002DFCBFB00000
0000000000DFA0DF700000
0000000004FF57FF200000
0000000003FFFFF8000000
00000000007EFD70000000
ENDCHAR
STARTCHAR uni0427
ENCODING 1063
SWIDTH 773 0
DWIDTH 15 0
BBX 13 16 2 0
BITMAP
08FA0000008E70
0DFF000000EFB0
0EFE000002FFA0
1FFD000004FF80
3FFA000008FF60
6FF700000DFF40
9FF400005FFF20
BFF20002EFFF00
BFF9116EFDFD00
6FFFFFFF8CFB00
09FFFFE70EF900
002565102FF700
000000005FF500
000000007FF300
000000009FF200
000000006FB000
ENDCHAR
STARTCHAR uni0428
ENCODING 1064
SWIDTH 1272 0
DWIDTH 25 0
BBX 28 16 0 0
BITMAP
003AEEB2000003ED100002ED1000
07FFFFFA000008FF400007FF4000
6FD52FFD00000AFF30000AFF4000
ED100FFD00000DFF00000CFF2000
72002FFB00001FFB00000FFE0000
00005FF900004FF700003FFC0000
00008FF500008FF400007FF90000
0000CFF10000DFE00000CFF60000
0000FFD00003FFB00002FFF40000
0003FF900009FF800008FFF10000
0007FF60002FFF50001EEFE00000
000AFF3000AEEF3000ADCFC00003
000BFF3008F7FF3007F6DFD001AF
000AFFC7BFC1FFC7BFB0DFFA8DFB
0005FFFFFD20CFFFFD108FFFFFC1
00007DFD81002BED810008DFD700
ENDCHAR
STARTCHAR uni0429
ENCODING 1065
SWIDTH 1272 0
DWIDTH 25 0
BBX 28 22 0 -6
BITMAP
003AEEB2000003ED100002ED1000
07FFFFFA000008FF400007FF4000
6FD52FFD00000AFF30000AFF4000
ED100FFD00000DFF00000CFF1000
62002FFB00001FFB00000FFE0000
00005FF900004FF700003FFB0000
00008FF500008FF400007FF80000
0000CFF10000DFE00000CFF60000
0000FFD00003FFB00002FFF30000
0003FF900009FF800008FFF10000
0007FF60002FFF50001EEFE00000
000AFF3000ADFF3000ADCFC00000
000BFF3008F7FF3007F6EFD20025
000AFFC7BFB2FFC7BFB0DFFFC7ED
0005FFFFFD10DFFFFD105DFFFFD4
00007DFD81003CED810003CFE700
00000000000000000002AFFF8000
0000000000000000006EFAEF5000
000000000000000004FF53FF1000
00000000000000000AFE1BFA0000
000000000000000009FFFFE20000
000000000000000001AEFC300000
ENDCHAR
STARTCHAR uni042A
ENCODING 1066
SWIDTH 863 0
DWIDTH 17 0
BBX 15 16 2 0
BITMAP
021136AEB0000000
AFFFFFFFC0000000
7EEFEFFC00000000
00003FF400000000
0000AFD000000000
0001FFCBDFED9200
0008FFFFFFFFFE30
04EFFE73113BFFB0
07FFFC000001FFF0
001FFA000000EFF0
000FFA000000EFE0
000EFB000003FFA0
000BFE00000BFF40
0006FF9214CFF800
0000CFFFFFFF7000
000017DFEC820000
ENDCHAR
STARTCHAR uni042B
ENCODING 1067
SWIDTH 1078 0
DWIDTH 22 0
BBX 21 16 0 0
BITMAP
0000BE6000000000008FA0
0004FF800000000000EFD0
0007FF400000000001FFC0
000BFE000000000003FF90
000EFA000000000005FF70
003FFBADEFDA300008FF40
007FFFFFFFFFF5000AFF20
3DFFF84213AFFD000DFE00
5FFFE000000EFF201FFB00
01CFD000000BFF303FF900
00CFD000000CFF106FF600
00CFE000001FFC009FF400
009FF20000AFF600BFF200
004FFC314BFFA000DFF000
0009FFFFFFF91000FFD000
00006CEED9300000BF7000
ENDCHAR
STARTCHAR uni042C
ENCODING 1068
SWIDTH 721 0
DWIDTH 14 0
BBX 15 16 0 0
BITMAP
0000BE6000000000
0004FF8000000000
0007FF4000000000
000BFE0000000000
000EFA0000000000
003FFBADEFDA3000
007FFFFFFFFFF500
3DFFF84213AFFD00
5FFFE000000EFF20
01CFD000000BFF30
00CFD000000CFF10
00CFE000001FFC00
009FF20000AFF600
004FFC314BFFA000
0009FFFFFFF91000
00006CEED9300000
ENDCHAR
STARTCHAR uni042D
ENCODING 1069
SWIDTH 755 0
DWIDTH 15 0
BBX 15 16 0 0
BITMAP
000049DEED930000
001BFFFFFFFF8000
00BFE83126EFF700
00EC2000003FFF10
002000000009FF60
000000000005FF90
000000000004FFA0
00009FFFFFFFFFA0
0000BFFFFFFFFF90
000000000008FF60
03710000000CFF20
0EF80000004FFA00
1FF9000002EFE200
0EFE41127EFF5000
05FFFFFFFFD30000
0039DFFEB6100000
ENDCHAR
STARTCHAR uni042E
ENCODING 1070
SWIDTH 1246 0
DWIDTH 25 0
BBX 26 16 -1 0
BITMAP
0005BEE90000004DE41DEB4000
01BFFFFF600005FFFA1EFFF800
0BFD67FFB0001EF7FA004CFF50
3FB100EFC0009FB8F70002FFD0
160000EFC001FFAFE10000AFF4
000000FFA006FFFF5000007FF6
000002FF800BFFF60000006FF8
000005FF97BFFE300000007FF8
000CFFFFFFFFFC000000008FF6
000DFFFFA86FFC00000000CFF3
00000FFC001FFE00000002FFD0
00004FF8000DFF3000000BFF60
00008FF40009FFC000009FFB00
0000BFF10002EFFC657DFFD200
0000FFC000004EFFFFFFFB1000
0000CE400000028DEFDA400000
ENDCHAR
STARTCHAR uni042F
ENCODING 1071
SWIDTH 850 0
DWIDTH 17 0
BBX 20 16 0 0
BITMAP
0000005BEFEC99E80000
00000AFFFFFFFFFD0000
00008FFB31237FFB0000
0000EFD000004FF90000
0003FF8000008FF70000
0004FF800000DFF40000
0003FFB00005FFF10000
0000DFF9311CFFD00000
00003EFFFFFFFFB00000
0000029DFFFFFF800000
000000000BFBDF600000
12000000AFD2FF500011
BE20001BFE31FF6002D8
CFB216DFE300FFD57EF5
5FFFFFFC2000BFFFFF70
04BEEC6000002BEEB300
ENDCHAR
STARTCHAR uni0430
ENCODING 1072
SWIDTH 470 0
DWIDTH 9 0
BBX 12 9 0 0
BITMAP
0003AEB21000
006FFFFFA000
03FFC4DF9000
0BFD11FF6000
2FF704FF3001
4FF408FF009E
3FF74EFF3AFB
0DFFFDDFFFC1
03CEB24DE810
ENDCHAR
STARTCHAR uni0431
ENCODING 1073
SWIDTH 473 0
DWIDTH 9 0
BBX 13 18 0 0
BITMAP
00000001610000
000059CFF50000
002CFFFFB20000
009FE631000000
009FC000000000
003FF900000000
0007FF80000000
00008FF6000000
00000AFE200000
002AEDFF900000
02EFFFFFD00000
0AFF47FFD12400
1EF903FFFFFF10
2FF600DFFEC800
3FF504FF500000
1FF92CFE000000
0AFFFFF4000000
018DFC40000000
ENDCHAR
STARTCHAR uni0432
ENCODING 1074
SWIDTH 473 0
DWIDTH 9 0
BBX 12 18 1 0
BITMAP
0002BEA00000
001EFFF50000
009F98F80000
02FF16F70000
08FB08F50000
0DF70DE10000
2FF45F800000
5FF1CD100000
8FE6F4000000
BFDEFF900000
CFFECFF80000
DFF27FFE1250
DFB03FFFFFF1
DF9007FFFEA0
BFB007FC1000
7FF54EF60000
1EFFFFB00000
02BEE9100000
ENDCHAR
STARTCHAR uni0433
ENCODING 1075
SWIDTH 380 0
DWIDTH 8 0
BBX 11 9 0 0
BITMAP
03ADFD800000
0CFFFFF50000
05724FF50000
0003CFB00000
01AFE7000100
0CFA10007F20
3FF6125CFD00
1FFFFFFFC200
04BEFEB50000
ENDCHAR
STARTCHAR uni0434
ENCODING 1076
SWIDTH 479 0
DWIDTH 10 0
BBX 12 18 0 -9
BITMAP
0003AEB21000
006FFFFF9000
03FFC4DF8000
0BFD11FF5000
2FF704FF3012
4FF408FF05EB
3FF74EFEBFF6
0DFFFFFFFD30
03CEACFF8000
0001BFF60000
002CFFF20000
01DFAFD00000
0BF58F900000
6F80DF400000
DF14FE000000
FF3DF7000000
DFFFC0000000
4DEA10000000
ENDCHAR
STARTCHAR uni0435
ENCODING 1077
SWIDTH 393 0
DWIDTH 8 0
BBX 11 9 0 0
BITMAP
0029EEA10000
02EFFFF80000
0BFD39FA0000
2FF50AF70000
4FF7CFC00210
4FFFC6006F60
1FFC325BFE30
08FFFFFFD400
006CEEC71000
ENDCHAR
STARTCHAR uni0436
ENCODING 1078
SWIDTH 717 0
DWIDTH 14 0
BBX 17 9 0 0
BITMAP
008ED50AE32BED5000
04FFFE4FF2DFFFE000
03FA7FCFD8FB2FF100
00204FFFBEF31EA000
04405FEFDFF0000140
5FC08FAFFFF1001BD0
9FC3EE6FFBFA23CF90
7FFFF65FC3EFFFFA00
1AED603E503BED7000
ENDCHAR
STARTCHAR uni0437
ENCODING 1079
SWIDTH 435 0
DWIDTH 9 0
BBX 12 18 -1 -9
BITMAP
0006CEEB2000
006FFFFFB000
005B614FE000
0000003FC000
000005EF5000
0027DFE5018A
00CFD7104DFB
00AFFA2AFF81
0006DFFFB200
0000AFF70000
001CFFF60000
01CF8DF50000
0BF71FF30000
5FB06FE00000
AF40DF800000
CF49FE100000
BFFFF4000000
3CFC40000000
ENDCHAR
STARTCHAR uni0438
ENCODING 1080
SWIDTH 462 0
DWIDTH 9 0
BBX 11 9 1 0
BITMAP
0BF303EA0000
4FF10AF90000
8FD00EF60000
CFA05FF30000
EF70CFE00130
FF66FFC01CB0
FFEFDFD3CF80
CFFE6FFFF900
3DD41BEC5000
ENDCHAR
STARTCHAR uni0439
ENCODING 1081
SWIDTH 462 0
DWIDTH 9 0
BBX 11 15 1 0
BITMAP
000000042000
0470002F9000
0DF814DF5000
0AFFFFFA0000
019EEC600000
000000000000
0BF303EA0000
4FF10AF90000
8FD00EF60000
CFA05FF30000
EF70CFE00130
FF66FFC01CB0
FFEFDFD3CF80
CFFE6FFFF900
3DD41BEC5000
ENDCHAR
STARTCHAR uni043A
ENCODING 1082
SWIDTH 465 0
DWIDTH 9 0
BBX 11 9 1 0
BITMAP
1CE23BED4000
6FE3EFFFD000
9FBBFB3FF000
CFAFF21FA000
EFDFF0020020
FFFFF1001BC0
FFFEFA23CF90
DFC5FFFFFA00
7E504CFD7000
ENDCHAR
STARTCHAR uni043B
ENCODING 1083
SWIDTH 549 0
DWIDTH 11 0
BBX 14 9 0 0
BITMAP
0000009FC10000
000004FFF30000
00000BFFF20000
00003FFFF10000
2940AFBFF10030
CF63FF5FF205F4
EF8CFA2FF76FE1
CFFFD10EFFFE30
3DEA2005DEA200
ENDCHAR
STARTCHAR uni043C
ENCODING 1084
SWIDTH 734 0
DWIDTH 15 0
BBX 18 9 0 0
BITMAP
000004ED202CE40000
00000CFF40DFF80000
00002FFF46FFF70000
00008FDF5DFBF60000
3A50DF9FAFABF60030
CF74FD6FFF3CF604F3
EF8CF75FFC0BFA4EE1
CFFFD12FF609FFFE30
3DEB200BC102CEA200
ENDCHAR
STARTCHAR uni043D
ENCODING 1085
SWIDTH 475 0
DWIDTH 10 0
BBX 12 9 1 0
BITMAP
1CE201DE0000
6FE006FD0000
9FB00AFA0000
CFFEEFF70000
EFFFFFF40180
FF503FF10AF1
FF504FF39FA0
DF402FFFFB10
7E2009ED7000
ENDCHAR
STARTCHAR uni043E
ENCODING 1086
SWIDTH 451 0
DWIDTH 9 0
BBX 12 9 0 0
BITMAP
002AEEB20000
03EFFFFE2000
0CFD4EFF7121
2FF60BFFFFFA
4FF302DFFFD5
4FF400DF6000
1FFB28FE0000
08FFFFF50000
007DFC500000
ENDCHAR
STARTCHAR uni043F
ENCODING 1087
SWIDTH 496 0
DWIDTH 10 0
BBX 12 9 1 0
BITMAP
1CE208ED1000
6FE1BFFF3000
9FB8FFFF1000
CFAF98FD0000
EFEE1AFA0021
FFF70DF703E7
FFF20FF95EF3
DFC00EFFFF50
7E5006EEB300
ENDCHAR
STARTCHAR uni0440
ENCODING 1088
SWIDTH 481 0
DWIDTH 10 0
BBX 16 18 -3 -9
BITMAP
00006E94CE910000
0000BFDEFFF80000
0000BFFA2CFC0000
0000BFD00AFD0000
0000BFB00CFA0020
0001DFB04FF506F2
0007FFB2DFD28FD1
001EFFEFFFFFFD20
008FDFFD89ED9100
01EACF9000000000
06F4DF7000000000
0BE0EF5000000000
0EB1FF3000000000
3F83FE0000000000
5F66FB0000000000
5F9BF60000000000
2FFFD00000000000
08EC300000000000
ENDCHAR
STARTCHAR uni0441
ENCODING 1089
SWIDTH 368 0
DWIDTH 7 0
BBX 10 9 0 0
BITMAP
0029EE8000
02DFFFF400
0BFE3BF500
2FF70BE200
4FF4011002
5FF40001BD
2FFC326DFA
09FFFFFFA0
007DFEA400
ENDCHAR
STARTCHAR uni0442
ENCODING 1090
SWIDTH 744 0
DWIDTH 15 0
BBX 17 9 1 0
BITMAP
1CE219EB019ED10000
6FE1CFFE1CFFF20000
9FB9FFFC9FFFF10000
CFAF7AFBF99FC00000
EFED0BFFD0BF900310
FFF70DFF70EF603E60
FFF20FFF21FF85EF30
DFC00EFB00EFFFE500
7E5008E5006EEA3000
ENDCHAR
STARTCHAR uni0443
ENCODING 1091
SWIDTH 479 0
DWIDTH 10 0
BBX 13 18 -1 -9
BITMAP
000BF303EA0000
004FF10AFA0000
008FD00EF70000
00CFA05FF50000
00EF70CFF20120
00FF66FFE05EB0
00FFEFEFDAFF50
00CFFEAFFFC300
003DD4BFF70000
00001AFF500000
0001CFFF100000
001CFAFD000000
00BF59F9000000
07F80DF4000000
0DF14FD0000000
1FE3DF60000000
0EFFFC00000000
04DEA100000000
ENDCHAR
STARTCHAR uni0444
ENCODING 1092
SWIDTH 721 0
DWIDTH 14 0
BBX 17 23 0 -7
BITMAP
000000006500000000
00000005FF00000000
00000009FC00000000
0000000CF800000000
0000000FF500000000
0000003FF100000000
0000005FD000000000
0003AEFFA6EE700000
006FFEEFCFDFF40000
03FF91DFF40EF80000
0BFC01FFC00EF90000
2FF604FF902FF70030
4FF408FF608FF209E0
3FF63EFF36FFA2AFB0
0DFFFCFFEFFFFFFB10
03CEA5FFEC7BED7000
000005FD0000000000
000007FC0000000000
000008FC0000000000
000008FC0000000000
000008FC0000000000
000008FB0000000000
000001630000000000
ENDCHAR
STARTCHAR uni0445
ENCODING 1093
SWIDTH 529 0
DWIDTH 11 0
BBX 14 9 0 0
BITMAP
009EE706DE8000
04FFFFCFFFC000
03E98FFE4E7000
00004FF8000000
05505FF6000060
6FC08FF50009F2
9FC3EFFC22AFC0
7FFFFDFFFFFC10
1AED608DFD7000
ENDCHAR
STARTCHAR uni0446
ENCODING 1094
SWIDTH 501 0
DWIDTH 10 0
BBX 11 15 1 -6
BITMAP
0BE304EA0000
4FF20AF90000
8FD00EF60000
CFA05FF20000
EF70CFE00000
FF66FFB00150
FFEFDFD45EF0
CFFE5FFFFF70
3DD40AFFB200
0002CFF90000
004EDCF50000
02ED1DF10000
07F87FA00000
07FFFE200000
01BEB3000000
ENDCHAR
STARTCHAR uni0447
ENCODING 1095
SWIDTH 555 0
DWIDTH 11 0
BBX 15 11 -1 0
BITMAP
0000047100000000
00003FFC10000000
00008FEFFFFF4000
0000DF3DFFFF2000
0004FB01AFE40000
000CF52DFC200000
007FB0CFC1000340
04FE23FF40004EA0
1EE305FF614AFF40
1B3001EFFFFFE500
0000004BEEC81000
ENDCHAR
STARTCHAR uni0448
ENCODING 1096
SWIDTH 693 0
DWIDTH 14 0
BBX 16 9 1 0
BITMAP
0BF305E8008F5000
4FF10BF801FF4000
8FD01FF605FF1000
CFA06FF30BFC0000
EF70CFF13FF90031
FF65FFF0BFF603E6
FFEFDFFEEEF74EE2
CFFF4FFF9BFFFE40
3DD509EA14DEA200
ENDCHAR
STARTCHAR uni0449
ENCODING 1097
SWIDTH 732 0
DWIDTH 15 0
BBX 16 15 1 -6
BITMAP
0BF305E8008F5000
4FF20BF801FF4000
8FD01FF605FF1000
CFA06FF30BFC0000
EF70CFF13FF80000
FF65FFF0BFF50033
FFEFDFFEEEFA28FA
CFFF4FFF9AFFFFD3
3DD509EA12EFF810
000000005EFF3000
00000008FBFE0000
0000006F84FA0000
000000DF3CF40000
000000DFFFA00000
0000004DE8100000
ENDCHAR
STARTCHAR uni044A
ENCODING 1098
SWIDTH 542 0
DWIDTH 11 0
BBX 14 9 0 0
BITMAP
1DFFFF70000000
038FF910000000
00CFC9EE800000
03FFFFFFF50000
06FFC32EFA0072
06FF300DFA06F6
04FF927FF87FE1
00CFFFFFFFFE30
001AEFDAEEA200
ENDCHAR
STARTCHAR uni044B
ENCODING 1099
SWIDTH 702 0
DWIDTH 14 0
BBX 16 9 1 0
BITMAP
1BF5000000CE4000
5FF3000006FF3000
9FE5CFC21EFF1000
CFFFFFFABFFC0000
DFF618FFFFF90054
EFA005FFDEF803F9
CFE33CFE3DFA4EF3
5FFFFFE309FFFF50
04CED92001BEC400
ENDCHAR
STARTCHAR uni044C
ENCODING 1100
SWIDTH 517 0
DWIDTH 10 0
BBX 12 9 1 0
BITMAP
1BF500000000
5FF300000000
9FE5CEC30000
CFFFFFFD0000
DFF618FF2027
EFA005FF21DD
CFE33CFE3CF8
5FFFFFFFFF90
04CEEBCEC600
ENDCHAR
STARTCHAR uni044D
ENCODING 1101
SWIDTH 466 0
DWIDTH 9 0
BBX 12 9 0 0
BITMAP
019DEEC50000
06FFFFFF7000
013213CFE134
0003EFFFFFFE
0973FFFFFFE8
3FB0009FD000
4FF415FF8000
0DFFFFFD1000
029EFD810000
ENDCHAR
STARTCHAR uni044E
ENCODING 1102
SWIDTH 676 0
DWIDTH 14 0
BBX 16 9 1 0
BITMAP
1CE2007DED700000
6FE00BFFFFF80000
9FB06FF87FFE1130
CFFFFFD03FFFFFF2
EFFFFFA007FFFEA0
FF61CFB006FD1000
FF508FF42DF70000
DF401EFFFFC00000
7E2002BEE9100000
ENDCHAR
STARTCHAR uni044F
ENCODING 1103
SWIDTH 543 0
DWIDTH 11 0
BBX 14 9 0 0
BITMAP
00019DFDAE3000
0009FFFFFF2000
000DF713FE0000
000BF609FB0000
5E63DFFFF80073
DF7006FCF605F6
EFB05EC8F74EE1
AFFFFD16FFFE30
1AED9101CEA200
ENDCHAR
STARTCHAR uni0450
ENCODING 1104
SWIDTH 393 0
DWIDTH 8 0
BBX 11 16 0 0
BITMAP
01DC10000000
03FF60000000
00BFD0000000
001DF5000000
0003FC000000
00006D000000
000000000000
0029EEA10000
02EFFFF80000
0BFD39FA0000
2FF50AF70000
4FF7CFC00210
4FFFC6006F60
1FFC325BFE30
08FFFFFFD400
006CEEC71000
ENDCHAR
STARTCHAR uni0451
ENCODING 1105
SWIDTH 393 0
DWIDTH 8 0
BBX 11 13 0 0
BITMAP
008E906EB000
00EFD0CFF100
00AE708E9000
000000000000
0029EEA10000
02EFFFF80000
0BFD39FA0000
2FF50AF70000
4FF7CFC00210
4FFFC6006F60
1FFC325BFE30
08FFFFFFD400
006CEEC71000
ENDCHAR
STARTCHAR uni0452
ENCODING 1106
SWIDTH 514 0
DWIDTH 10 0
BBX 13 25 0 -9
BITMAP
0005EB00000000
000DFC00000000
002FF800000000
0BFFFFFFB00000
08EFFFFEA00000
00DFB000000000
01FF8000000000
04FF407EE20000
07FF1AFFF50000
09FD6FFFF30000
0AFBEB6FF10000
0CFEF28FD00310
0DFF90AFB19F60
0DFF40CFBDFD20
0BFE00EFFF9100
06E701FFD40000
00002CFF200000
0003DFFD000000
003EDCF9000000
02EE2DF5000000
0AF42FE1000000
2FC08FA0000000
5FB3EF30000000
3FFFF800000000
07EE8000000000
ENDCHAR
STARTCHAR uni0453
ENCODING 1107
SWIDTH 380 0
DWIDTH 8 0
BBX 11 16 0 0
BITMAP
000003EA0000
00000BFE0000
00003FF70000
00009FA00000
0001FD100000
0003D2000000
000000000000
03ADFD800000
0CFFFFF50000
05724FF50000
0003CFB00000
01AFE7000100
0CFA10007F20
3FF6125CFD00
1FFFFFFFC200
04BEFEB50000
ENDCHAR
STARTCHAR uni0454
ENCODING 1108
SWIDTH 379 0
DWIDTH 8 0
BBX 11 9 0 0
BITMAP
003AEEC30000
03EFFFFD0000
0CFB32DC0000
2FFFFE100000
4FFFFE101900
4FF50001BF20
1FFD315DFB00
08FFFFFFB100
006CEEB50000
ENDCHAR
STARTCHAR uni0455
ENCODING 1109
SWIDTH 427 0
DWIDTH 9 0
BBX 13 9 -1 0
BITMAP
00002CF2000000
0000AFC0000000
0002FFB0000000
000AFFF6000000
005F9CFF301700
02EE12FFA1CF10
1DF59AEFEEFC00
2D56FFFFFFE200
0001BFFFE91000
ENDCHAR
STARTCHAR uni0456
ENCODING 1110
SWIDTH 246 0
DWIDTH 5 0
BBX 8 13 0 0
BITMAP
008ED300
01FFF600
00AFC100
00000000
01DE2000
05FF2000
09FE0000
0CFB0000
0EF80021
1FF603E7
0FF94EF3
0BFFFF50
02CEB300
ENDCHAR
STARTCHAR uni0457
ENCODING 1111
SWIDTH 246 0
DWIDTH 5 0
BBX 8 13 0 0
BITMAP
8E906EB0
EFE0CFF1
AE708E90
00000000
01DE2000
05FF2000
09FE0000
0CFB0000
0EF80021
1FF603E7
0FF94EF3
0BFFFF50
02CEB300
ENDCHAR
STARTCHAR uni0458
ENCODING 1112
SWIDTH 254 0
DWIDTH 5 0
BBX 13 22 -5 -9
BITMAP
0000002CE90000
0000008FFE0000
0000003DE60000
00000000000000
0000002DE20000
0000006FF20000
0000008FF00000
0000009FD00000
000000BFA00200
000000DF819F30
000000FF9DFC10
000002FFFF8000
000004FFD30000
00002DFD000000
0004EFFA000000
005FCDF6000000
03FC2FF2000000
0DE25FC0000000
5F90BF70000000
8F96FE10000000
6FFFF600000000
0AED6000000000
ENDCHAR
STARTCHAR uni0459
ENCODING 1113
SWIDTH 794 0
DWIDTH 16 0
BBX 19 9 0 0
BITMAP
0000009FD10000000000
000004FFF30000000000
00000BFFF49EE8000000
00003FEFFEFFFF600000
5E60AF9FFC32EFA00620
DF63FF3FF300CFA05F60
EF8CF80FF937FF87FE20
BFFFC10AFFFFFFFFE300
3CEA10019EFDAEEA2000
ENDCHAR
STARTCHAR uni045A
ENCODING 1114
SWIDTH 751 0
DWIDTH 15 0
BBX 17 9 1 0
BITMAP
1CE202DE1000000000
6FE008FD0000000000
9FB00CFA8DE9100000
CFFFFFFFFFFF800000
EFFFFFFD31CFC00540
FF500FF500AFC03F80
FF500DFA14EF94EF30
DF4006FFFFFFFFE500
7E20007DFEADEB3000
ENDCHAR
STARTCHAR uni045B
ENCODING 1115
SWIDTH 502 0
DWIDTH 10 0
BBX 12 16 1 0
BITMAP
005EB0000000
00DFC0000000
02FF80000000
BFFFFFFB0000
8EFFEEE90000
0DFB00000000
1FF800000000
4FF407EE2000
7FF1AFFF5000
9FD6FFFF3000
AFBEB6FF0000
CFEF29FC0022
DFF90BF902E9
DFF40DFA4DF5
BFE00CFFFF70
6E7004DEB400
ENDCHAR
STARTCHAR uni045C
ENCODING 1116
SWIDTH 465 0
DWIDTH 9 0
BBX 11 16 1 0
BITMAP
000000AE3000
000003FF6000
00000AFD1000
00002FF30000
00009F600000
0000B9000000
000000000000
1CE23BED4000
6FE3EFFFD000
9FBBFB3FF000
CFAFF21FA000
EFDFF0020020
FFFFF1001BC0
FFFEFA23CF90
DFC5FFFFFA00
7E504CFD7000
ENDCHAR
STARTCHAR uni045D
ENCODING 1117
SWIDTH 462 0
DWIDTH 9 0
BBX 11 16 1 0
BITMAP
06E600000000
0AFE10000000
03FF70000000
006FD0000000
0009F5000000
0000B7000000
000000000000
0BF303EA0000
4FF10AF90000
8FD00EF60000
CFA05FF30000
EF70CFE00130
FF66FFC01CB0
FFEFDFD3CF80
CFFE6FFFF900
3DD41BEC5000
ENDCHAR
STARTCHAR uni045E
ENCODING 1118
SWIDTH 479 0
DWIDTH 10 0
BBX 13 24 -1 -9
BITMAP
00000000042000
000470002F9000
000DF814DF5000
000AFFFFFA0000
00019EEC600000
00000000000000
000BF303EA0000
004FF10AFA0000
008FD00EF70000
00CFA05FF50000
00EF70CFF20120
00FF66FFE05EB0
00FFEFEFDAFF50
00CFFEAFFFC300
003DD4BFF70000
00001AFF500000
0001CFFF100000
001CFAFD000000
00BF59F9000000
07F80DF4000000
0DF14FD0000000
1FE3DF60000000
0EFFFC00000000
04DEA100000000
ENDCHAR
STARTCHAR uni045F
ENCODING 1119
SWIDTH 600 0
DWIDTH 12 0
BBX 11 11 1 -2
BITMAP
0BF303EA0000
4FF10AF90000
8FD00EF60000
CFA05FF30000
EF70CFE00130
FF66FFC01CB0
FFEFDFD3CF80
CFFD6FFFF900
3FF41BEC5000
0FE000000000
0C8000000000
ENDCHAR
STARTCHAR uni0462
ENCODING 1122
SWIDTH 721 0
DWIDTH 14 0
BBX 15 16 0 0
BITMAP
0002DE7000000000
08FFFFFFD0000000
0AFFFFFFA0000000
000DFE0000000000
001FFA0000000000
004FFBADEFDA3000
019FFFFFFFFFF500
4FFFF84213AFFD00
5FFFE000000EFF20
01CFD000000BFF30
00CFD000000CFF10
00CFE000001FFC00
009FF20000AFF600
004FFC314BFFA000
0009FFFFFFF91000
00006CEED9300000
ENDCHAR
STARTCHAR uni0463
ENCODING 1123
SWIDTH 517 0
DWIDTH 10 0
BBX 13 13 0 0
BITMAP
00066000000000
007FF100000000
00DFC000000000
7FFFFFD0000000
6EFFFFD1000000
09FE0000000000
0CFC5CEC300000
0EFEFFFFD00000
0FFF718FF20270
0EFA005FF21CD0
0CFD22CFD2BF80
04FFFFFFFFF900
005CFEBCEC6000
ENDCHAR
STARTCHAR uni046A
ENCODING 1130
SWIDTH 1234 0
DWIDTH 25 0
BBX 27 16 0 0
BITMAP
0000BFFFFFFFFFFFFFFFFFFFC100
0001EFFFFFFFFFFFFFFFFFFFB000
0000002CFF200000000AFF300000
00000005FF600000002FF9000000
00000000EF90000000AFF2000000
00000000AFE0000007FF90000000
000000003FF80013AFFB10000000
0000000006EFFFFFFD7000000000
000000004CFFFFFFFB2000000000
00000007FFD4DFE4EFD100000000
0000004FFC10FFB05FF900000000
000000DFF203FF900DFF20000000
174006FF7005FF6006FFA0001C60
6FE33EFC0007FF4000DFF813CF50
3FFFFFE2000AFF20003EFFFFF700
04CEEA200007FB000003BEEB3000
ENDCHAR
STARTCHAR uni046B
ENCODING 1131
SWIDTH 788 0
DWIDTH 16 0
BBX 19 16 0 0
BITMAP
0000000000AEA0000000
0000000006FFE0000000
000000000BFFC0000000
000000001FDFB0000000
000000006FBF90000000
00000000BF9F80000000
00000001FF7F80000000
00004EDAFB8F9BEA0000
00007FFFF69FFFFA0000
000001AFE19FF6100000
000000AFB09F80000000
022004FFC2EF80000200
4FC01DFFD8FFC0004F50
9FC3CFCEEECEF825EE20
8FFFFD2DFF57FFFFF400
1AED8108FA007DEB3000
ENDCHAR
STARTCHAR uni0472
ENCODING 1138
SWIDTH 816 0
DWIDTH 16 0
BBX 15 16 1 0
BITMAP
000005BEFEB60000
0003CFFFFFFFB100
003EFE7213BFFB00
01EFE200000BFF50
09FF50000004FFA0
1EFD00000001FFD0
5FFDDFD83013FFE0
8FFFFFFFFFFFFFD0
AFF72139DFEDFFC0
BFF400000008FF80
9FF50000000DFF40
7FF90000005FFC00
2FFF200002EFF300
08FFD5126EFF6000
009FFFFFFFE40000
0004ADFEC7100000
ENDCHAR
STARTCHAR uni0473
ENCODING 1139
SWIDTH 451 0
DWIDTH 9 0
BBX 12 9 0 0
BITMAP
002AEEA20000
03EFFFFC0000
0CFD33FF5000
2FF600AFB7A6
4FFFFFFFFFFA
4FFFFFFFFEB3
1FF926FF4000
08FFFFFA0000
007DFD600000
ENDCHAR
STARTCHAR uni0474
ENCODING 1140
SWIDTH 797 0
DWIDTH 16 0
BBX 18 16 2 0
BITMAP
08FA00000005EFFEB3
0FFD0000000CFFFFFB
3FFC0000000FFE1373
4FFA0000004FFA0000
6FF80000007FF60000
7FF7000000BFF20000
8FF6000001FFC00000
8FF5000006FF700000
8FF500000CFF100000
7FF600003FF9000000
5FF80000BFF2000000
2FFC0005FF90000000
0DFF303EFD10000000
07FFEAFFE300000000
01DFFFFE4000000000
002BEE920000000000
ENDCHAR
STARTCHAR uni0475
ENCODING 1141
SWIDTH 420 0
DWIDTH 8 0
BBX 10 9 1 0
BITMAP
BE4003DFD8
FF600AFEDC
FF701FF600
EF708FD000
EF82EF6000
DF9AFD0000
BFDFF40000
8FFF900000
2CE9000000
ENDCHAR
STARTCHAR uni048A
ENCODING 1162
SWIDTH 890 0
DWIDTH 18 0
BBX 21 26 0 -4
BITMAP
00000001720009D0000000
00000008FD217FD0000000
00000005FFFFFF50000000
000000006DFEB400000000
0000000000000000000000
0000000000000000000000
003AEEB2000000BE500000
07FFFFFA000002FFA00000
6FD52FFD000004FF900000
ED100FFD000007FF700000
72002FFB00000AFF400000
00005FF900000DFF200000
00008FF500002FFE000000
0000CFF100007FFB000000
0000FFD00000CFF9000000
0003FF900003FFF7000000
0007FF60000BEFF4000000
000AFF30005FAFF3000310
000BFF3004EA9FF3006F50
000AFFC7AFE28FFC7BFE20
0004FFFFFE304FFFFFE300
00006CEE920005CFFE3000
000000000000006FF40000
00000000000002EF900000
0000000000000BFD100000
0000000000000BE3000000
ENDCHAR
STARTCHAR uni048B
ENCODING 1163
SWIDTH 462 0
DWIDTH 9 0
BBX 11 19 1 -4
BITMAP
000000043000
0AE2002F9000
0DF914DF3000
08FFFFF80000
008EEC500000
000000000000
0BF303EA0000
4FF10AF90000
8FD00EF60000
CFA05FF30000
EF70CFE00130
FF66FFC01CB0
FFEFDFD3CF80
CFFE6FFFFA00
3DD41CFFA000
00000BFC0000
00006FE20000
0000DF600000
000045000000
ENDCHAR
STARTCHAR uni048C
ENCODING 1164
SWIDTH 721 0
DWIDTH 14 0
BBX 15 16 0 0
BITMAP
0002DE7000000000
08FFFFFFD0000000
0AFFFFFFA0000000
000DFE0000000000
001FFA0000000000
004FFBADEFDA3000
019FFFFFFFFFF500
4FFFF84213AFFD00
5FFFE000000EFF20
01CFD000000BFF30
00CFD000000CFF10
00CFE000001FFC00
009FF20000AFF600
004FFC314BFFA000
0009FFFFFFF91000
00006CEED9300000
ENDCHAR
STARTCHAR uni048D
ENCODING 1165
SWIDTH 517 0
DWIDTH 10 0
BBX 13 13 0 0
BITMAP
00066000000000
007FF100000000
00DFC000000000
7FFFFFD0000000
6EFFFFD1000000
09FE0000000000
0CFC5CEC300000
0EFEFFFFD00000
0FFF718FF20270
0EFA005FF21CD0
0CFD22CFD2BF80
04FFFFFFFFF900
005CFEBCEC6000
ENDCHAR
STARTCHAR uni048E
ENCODING 1166
SWIDTH 805 0
DWIDTH 16 0
BBX 18 19 0 -3
BITMAP
00000017BEFEC71000
000007EFFFFFFFD200
0000AFF93124CFFC00
0008FE3000001EFF30
004FF405ED0009FF60
00CF900CFF0359FF60
03FF200EFD0AFFFF30
08FC002FFA008FFFC4
0BF8005FF717EFE9EA
0EF54EEFFEFFFC2000
0FF43DFFFEDA500000
1FF300DFE000000000
1FF301FFB000000000
0FF404FF8000000000
0CF806FF6000000000
07FE3BFF3000000000
01DFFFFE0000000000
002DFFF60000000000
000046300000000000
ENDCHAR
STARTCHAR uni048F
ENCODING 1167
SWIDTH 481 0
DWIDTH 10 0
BBX 16 18 -3 -9
BITMAP
00006E94CE900000
0000BFEFFFF70000
0000BFFA1CFC0000
0000BFD00AFD0000
0000BFB00CFA0000
0000DFB9BFF504D2
0006FFB8FFD16FE1
001EFFEFFFFFFE30
007FDFFD8AEE9200
00DACF9000000000
05F4DF7000000000
0AE0EF5000000000
0EB1FF3000000000
3F83FE0000000000
5F65FB0000000000
5F8AF60000000000
2FFFD00000000000
08EC300000000000
ENDCHAR
STARTCHAR uni0490
ENCODING 1168
SWIDTH 645 0
DWIDTH 13 0
BBX 18 21 0 0
BITMAP
0000000000000004E7
0000000000000007FC
0000000000000009FB
000000000000000CF9
000000000000001EF6
00038BDEFFFFFFFFF3
01BFFFFFFFFFFFED70
0CFE95BFF300000000
3FF500DFE000000000
4FF201FFB000000000
1FF704FF9000000000
058207FF6000000000
00000AFF3000000000
00000DFF0000000000
00000FFD0000000000
00003FFA0000000000
00005FF80000000000
00008FF60000000000
0000AFF40000000000
0000CFF20000000000
00008FB00000000000
ENDCHAR
STARTCHAR uni0491
ENCODING 1169
SWIDTH 394 0
DWIDTH 8 0
BBX 8 12 1 0
BITMAP
000004E4
000007F7
00012CF6
1CFFFFF2
6FFFED60
9FC00000
CF900000
EF700000
FF600000
EF500000
DF500000
7E200000
ENDCHAR
STARTCHAR uni0492
ENCODING 1170
SWIDTH 635 0
DWIDTH 13 0
BBX 18 17 0 0
BITMAP
000000000000001110
00038BDEFFFFFFFFF1
02BFFFFFFFFFFFEDA0
0CFF96CFF300000000
3FF500DFE000000000
4FF201FFB000000000
1FF705FF8000000000
047208FF5000000000
000AFFFFFFA0000000
000DFFFFFF90000000
00001FFD0000000000
00002FFB0000000000
00005FF80000000000
00007FF60000000000
0000AFF40000000000
0000CFF30000000000
00008FB00000000000
ENDCHAR
STARTCHAR uni0493
ENCODING 1171
SWIDTH 380 0
DWIDTH 8 0
BBX 11 9 0 0
BITMAP
03ADFD800000
0CFFFFF50000
05724FF50000
2304CFD10000
7FEFFA100100
0DFDEE207F20
3FF6125CFD00
1FFFFFFFC200
04BEFEB50000
ENDCHAR
STARTCHAR uni0494
ENCODING 1172
SWIDTH 884 0
DWIDTH 18 0
BBX 20 26 0 -9
BITMAP
00000000000000111000
00037BCEFFFFFFFFF100
01AFFFFFFFFFFFEDA000
0BFF95BFF30000000000
2FF500DFE00000000000
4FF201FFC00000000000
2FF604FF900000000000
08B407FF600000000000
00000AFF318DEEA20000
00000DFF3DFFFFFD1000
00000FFEDC512CFF4000
00003FFF900006FF6000
00005FFC000007FF5068
00008FF6000009FF5CFC
0000AFF400000BFFFFF6
0000CFF200000DFFFC30
00008FB000003FFF7000
000000000007FFF80000
00000000009FFFF40000
000000000AFFDFF10000
000000007FF4DFB00000
00000001EF62FF500000
00000006FD08FD000000
00000008FC3EF6000000
00000006FFFFA0000000
000000009EE800000000
ENDCHAR
STARTCHAR uni0495
ENCODING 1173
SWIDTH 441 0
DWIDTH 9 0
BBX 11 15 0 -6
BITMAP
03ADFD800000
0CFFFFF50000
05724FF50000
0003BFB00000
01AFE7000000
0CFA10000130
3FF612547EC0
2FFFFFFFFE50
06DEDFFFA200
0005EFF70000
007FBDF20000
04FA2FD00000
0AF5AF700000
0AFFFC100000
02CEA1000000
ENDCHAR
STARTCHAR uni0496
ENCODING 1174
SWIDTH 1234 0
DWIDTH 25 0
BBX 28 22 0 -6
BITMAP
00018DFD500004ED10001AEEC400
000BFFFFF40009FF3000CFFFFE10
000E824EFD000BFF1007FF44EE10
00000006FF400DFE001EF9001000
00000001FF900FFB009FF2000000
00000000AFD02FF905FF90000000
000000004FF85FF88FFB10000000
0000000005EFFFFFFD7000000000
000000005DFFFFFFFC3000000000
00000007FFC3DFD3DFE200000000
0000004FFC10FFB04FFA00000000
000000DFE203FF800DFF30000000
1A6006FF7005FF6006FFB0000040
6FF33EFC0007FF4000CFFC985DF1
2FFFFFE2000AFF20002DFFFFFF80
04CEEA200007FB0000019FFFA200
00000000000000000019FFFC0000
000000000000000003DFCCFA0000
00000000000000001EF91EF50000
00000000000000006FF38FE10000
00000000000000005FFFFF600000
000000000000000008EFD6000000
ENDCHAR
STARTCHAR uni0497
ENCODING 1175
SWIDTH 803 0
DWIDTH 16 0
BBX 19 15 0 -6
BITMAP
008ED50AE32BED500000
04FFFE4FF2DFFFE00000
03FA7FCFD8FB2FF10000
00204FFFBEF31EA00000
04405FEFDFF000000000
5FC08FAFFFF100001600
9FC3EE6FFBFA2354DF10
7FFFF65FC3FFFFFFF700
1AED603E505EFFFB3000
00000000001AFFA00000
0000000003EECF600000
000000001DD2CF100000
000000006F87FA000000
000000006FFFE2000000
000000001BEB30000000
ENDCHAR
STARTCHAR uni0498
ENCODING 1176
SWIDTH 725 0
DWIDTH 15 0
BBX 13 22 1 -6
BITMAP
00017BEFEC6000
003EFFFFFFF800
01DFE6215FFE00
04FF50000AFF00
03FF30000BFD00
008910002FF600
00000003DFA000
00005CEFFFA300
0000BFDA6DFE30
0000000004FFA0
5D80000002FFC0
CFD0000005FFA0
CFF100001DFF40
8FFA3126EFF900
1CFFFFFFFE7000
017CEFFFF80000
00005EFFF50000
0009FE4FF20000
006FE25FD00000
00BFC2DF700000
00BFFFFD100000
002BFEA2000000
ENDCHAR
STARTCHAR uni0499
ENCODING 1177
SWIDTH 445 0
DWIDTH 9 0
BBX 11 15 0 -6
BITMAP
006CEEC40000
07FFFFFF1000
0CF516FF2000
03402AFA0000
0009FFB10000
04125CFB0480
5FA129FCAFF0
3FFFFFFFFE40
05CFEFFF9100
0003CFF50000
005FCFF00000
02FC3FB00000
07F79F600000
07FFFD100000
01BEB2000000
ENDCHAR
STARTCHAR uni049A
ENCODING 1178
SWIDTH 937 0
DWIDTH 19 0
BBX 22 22 0 -6
BITMAP
00028CEFEDA300003EE200
007FFFFFFFFB0000CFF200
04FFA311EFE30004FFB000
09FC0001FFB0000CFF3000
09FC0004FF80007FF90000
04FF1006FF6006FFB00000
00540009FF45BFF9000000
000002EFFFFFFB40000000
000002EFFFFFC400000000
0000001FFB5EFF30000000
0000003FF806FFC0000000
1A10006FF600DFF4000000
7FA000BFF2006FFB000391
5FF716FFB0000DFFDC8FF2
0BFFFFFE200003FFFFFD40
007DFEA20000006FFF7000
00000000000019FFFC0000
000000000004EFCBF90000
00000000001EF90DF50000
00000000005FF47FE10000
00000000004FFFFF600000
000000000008EFD6000000
ENDCHAR
STARTCHAR uni049B
ENCODING 1179
SWIDTH 531 0
DWIDTH 11 0
BBX 12 15 1 -6
BITMAP
1CE23BED4000
6FF3EFFFD000
9FBBFB2FF000
CFAFF21FB000
EFDFF0020000
FFFFF0000022
FFFEF80327F9
DFD7FFEFEFE3
7E605CFFF910
00005DFF4000
0008FBFE0000
006F84FA0000
00CF3CF40000
00DFFFA00000
004DE8000000
ENDCHAR
STARTCHAR uni049C
ENCODING 1180
SWIDTH 937 0
DWIDTH 19 0
BBX 22 16 0 0
BITMAP
00028CEFEDA300003EE200
007FFFFFFFFB0000CFF200
04FFA311EFE30004FFB000
09FC0001FFB0000CFF3000
09FC0004FF8BA07FF90000
04FF1006FF6EC6FFB00000
00540009FF5FFFF9000000
000002EFFFFFFB40000000
000002EFFFFFC300000000
0000001FFB9FFE30000000
0000003FF8AFFFC0000000
1810006FF6BFEFF4000071
6F9000BFF2BD8FFC0007F4
5FF716FFB0451EFFB59FD1
0BFFFFFE200005FFFFFD20
007DFEA20000005CED9100
ENDCHAR
STARTCHAR uni049D
ENCODING 1181
SWIDTH 485 0
DWIDTH 10 0
BBX 12 9 1 0
BITMAP
1CE208EE9000
6FE06FFFF500
9FC8DE3AF500
CFDCF9058000
EFFEF6000081
FFFFF70008F4
FFFFFE318FC0
DFA8EFFFFD20
7E303BEEA100
ENDCHAR
STARTCHAR uni049E
ENCODING 1182
SWIDTH 937 0
DWIDTH 19 0
BBX 22 16 0 0
BITMAP
00028CEFED9300003EE200
006FFFFFFFFB0000CFF200
04FFA411EFE30004FFB000
09FD0001FFB0000CFF3000
09FC07EFFFFF707FF90000
06FF1AFFFFFF66FFB00000
00870008FF65BFF9000000
000002EFFFFFFB40000000
000002EFFFFFC300000000
0000001FFB5EFE30000000
0000003FF806FFC0000000
1810006FF600DFF4000071
6F9000BFF2006FFC0007F4
5FF716FFB0000DFFB59FD1
0BFFFFFE200004FFFFFD20
007DFEA20000004CED9100
ENDCHAR
STARTCHAR uni049F
ENCODING 1183
SWIDTH 473 0
DWIDTH 9 0
BBX 11 16 1 0
BITMAP
005EB0000000
00DFC0000000
03FF90000000
CFFFFFFB0000
8EFFFFFA0000
0DFC00000000
1FF800000000
4FF42AEE6000
6FF2DFFFF100
9FD9FC2DF200
BFBEF50EC000
CFEFF2010030
CFFFF30009F0
CFFEFB22AFB0
BFE4FFFFFC10
5E803BEE8100
ENDCHAR
STARTCHAR uni04A0
ENCODING 1184
SWIDTH 937 0
DWIDTH 19 0
BBX 22 16 0 0
BITMAP
00111112456200003EE200
02FFFFFFFFFA0000CFF200
01CEFFEEFFE30004FFB000
00000001FFB0000CFF3000
00000004FF80007FF90000
00000007FF6006FFB00000
00000009FF45BFF9000000
000002EFFFFFFB40000000
000002EFFFFFC300000000
0000001FFB5EFE30000000
0000003FF806FFC0000000
1810006FF600DFF4000071
6F9000BFF2006FFC0007F4
5FF716FFB0000DFFB59FD1
0BFFFFFE200004FFFFFD20
007DFEA20000004CED9100
ENDCHAR
STARTCHAR uni04A1
ENCODING 1185
SWIDTH 555 0
DWIDTH 11 0
BBX 14 9 0 0
BITMAP
1DFFFE04CFC200
1BFFFC4FFFFA00
000CF9DF84FC00
000EFAFE04F800
002FFDFC003001
003FFFFD0001C9
003FFEFF714DF6
001FF99FFFFF80
000AE307DFC500
ENDCHAR
STARTCHAR uni04A2
ENCODING 1186
SWIDTH 907 0
DWIDTH 18 0
BBX 22 23 -1 -6
BITMAP
0000000000000001AFD300
0004BEE90000000BFFFC00
009FFFFF6000007FE3CF00
0AFB33FFB00001EF70BF00
3FA000EFC00006FF10DD00
191000EFC0000BFB03F800
000000FFB0001FF71CE100
000002FF90004FF9DE4000
000005FF70017FFFC30000
000CFFFFFFFFFFF4000000
001EFFFFFECAEFE0000000
00001FFC0000CFE0000000
00004FF90000CFF0000000
00007FF50000AFF4000011
0000BFF100006FFE8637E8
0000FFC000000CFFFFFFD3
0000CE400000007EFFE700
00000000000005DFFF4000
000000000000AFE9FF2000
000000000009FE27FD0000
00000000000EFA3EF70000
00000000000DFFFFC00000
000000000004CFEA100000
ENDCHAR
STARTCHAR uni04A3
ENCODING 1187
SWIDTH 515 0
DWIDTH 10 0
BBX 12 15 1 -6
BITMAP
1CE201DE0000
6FE006FD0000
9FB00BFA0000
CFFEEFF60000
EFFFFFF30000
FF504FF00192
FF504FFA4DF4
DF401EFFFF70
7E2006FFB300
0001AFFC0000
001CFBF90000
00CF48F40000
03FC3EE00000
03FFFF500000
008EC5000000
ENDCHAR
STARTCHAR uni04A4
ENCODING 1188
SWIDTH 873 0
DWIDTH 17 0
BBX 24 17 -1 0
BITMAP
00000000000000019EFFDB80
0004BEE90000000BFFFFFFF3
00AFFFFF6000007FF5124760
0AFB33FFB00001EFB0000000
3FA000DFC00006FF40000000
190000EFC0000BFD00000000
000000FFB0001FF900000000
000002FF90004FF500000000
000005FF70118FF200000000
000CFFFFFFFFFFF000000000
000DFFFFFECAEFE000000000
00000FFC0000CFE000000000
00004FF90000CFF000000000
00007FF500009FF30005D000
0000BFF100005FFC228FD000
0000FFC000000BFFFFFD2000
0000CE400000018DFD710000
ENDCHAR
STARTCHAR uni04A5
ENCODING 1189
SWIDTH 475 0
DWIDTH 10 0
BBX 12 10 1 0
BITMAP
000000026300
1CE201DFFC00
6FE006FE6200
9FB00BFA0000
CFFEEFF70000
EFFFFFF40180
FF503FF10AF1
FF504FF39FA0
DF402FFFFB10
7E2009ED7000
ENDCHAR
STARTCHAR uni04A8
ENCODING 1192
SWIDTH 997 0
DWIDTH 20 0
BBX 22 16 1 0
BITMAP
000018CFC0000000000000
0003EFFFD028CEEA300000
004EFFA515EFFFFFF60000
01EFF5004FFE858FFF3000
09FF7001EFF30006FFA000
1FFD0006FF900001EFF000
5FF9000AFF400000DFF100
8FF5000CFF100000CFF200
AFF4000DFF000000EFE000
AFF4000CFF100003FFA000
9FF60009FF50000BFF3000
6FFA0004FFC0009FF70000
1EFF5000AFFA4CFFA00383
05FFFB756FFFFFFC69DFF5
005EFFFFFFFFFFFFFFFF80
00017BDFEDB88CEFDA6100
ENDCHAR
STARTCHAR uni04A9
ENCODING 1193
SWIDTH 574 0
DWIDTH 11 0
BBX 14 9 0 0
BITMAP
002AEB00000000
02EFEA3CEC3000
0BFD12EFEFC000
2FF60AF71EF000
4FF30DF20EE004
5FF30EF27F80AF
2FF90CFBFD6CFB
09FFEFFFFFFFA1
007DFEBDFEA400
ENDCHAR
STARTCHAR uni04AA
ENCODING 1194
SWIDTH 781 0
DWIDTH 16 0
BBX 17 25 1 -9
BITMAP
000005AEFEB4000000
0002CFFFFFFF400000
003EFF9314EFC00000
01DFE40000AFF00000
08FF700000BFE00000
1EFE000000BF900000
5FF900000014000000
8FF600000000000000
AFF400000000000000
AFF400000000000000
9FF500000000000000
6FF900000000300000
1FFE2000001BF02AA0
07FFD62137EFE5EF80
008FFFFFFFFFFFE600
00039DEED9DFFB2000
0000000008FF800000
00000001BFFF300000
0000001BFAFE000000
000000AF68FB000000
000005F90CF6000000
00000CF23FE1000000
00000EF2CF80000000
00000DFFFD10000000
000003DEB200000000
ENDCHAR
STARTCHAR uni04AB
ENCODING 1195
SWIDTH 431 0
DWIDTH 9 0
BBX 11 15 0 -6
BITMAP
0019EE800000
02DFFFF40000
0BFD3AF50000
2FF70BE20000
4FF401100000
5FF400000330
2FFC21638FA0
0AFFFFFFFD30
019EFFFF8100
0005DFF30000
008FBFE00000
06F83FA00000
0CF3CF400000
0DFFFA000000
04EE80000000
ENDCHAR
STARTCHAR uni04AC
ENCODING 1196
SWIDTH 697 0
DWIDTH 14 0
BBX 18 23 0 -7
BITMAP
000169BDEFFFFFFFD9
019FFFFFFFFFFFFFFE
0BFE8421DFE1001221
3FF40001FFC0000000
4FF20004FF90000000
1FF70007FF60000000
07B3000AFF30000000
0000000DFF10000000
0000000FFD00000000
0000003FFA00000000
0000005FF800000000
0000008FF600000000
000000AFF400000000
000000CFF200000000
000000EFFA60000000
000000EFFFB0000000
0000009FFF90000000
00001BFDDF60000000
0000CFC1EF30000000
0006FF24FE00000000
000AFE2CF800000000
0008FFFFD100000000
0001AEEA2000000000
ENDCHAR
STARTCHAR uni04AD
ENCODING 1197
SWIDTH 784 0
DWIDTH 16 0
BBX 17 15 1 -6
BITMAP
1CE219EB019ED10000
6FE1CFFE1CFFF20000
9FB9FFFC9FFFF10000
CFAF7AFBF99FC00000
EFED0BFFD0BF900000
FFF70DFF70DF600330
FFF20FFF20FFA28FA0
DFC00EFB00CFFEFD30
7E5008E5002EFF8100
0000000005EFF40000
000000008FBFE00000
00000006F93FB00000
0000000CF3BF500000
0000000CFFFB000000
00000004DE91000000
ENDCHAR
STARTCHAR uni04AE
ENCODING 1198
SWIDTH 677 0
DWIDTH 14 0
BBX 13 16 2 0
BITMAP
1DE5000001BEA0
2FFE000009FF70
0BFF50003FFC00
04FFC000DFF200
00CFF308FF7000
006FFA2FFC0000
000EFFCFE20000
0008FFFF700000
0001FFFB000000
00009FF3000000
00008FF1000000
00009FF0000000
0000AFE0000000
0000BFD0000000
0000CFC0000000
00009E90000000
ENDCHAR
STARTCHAR uni04AF
ENCODING 1199
SWIDTH 472 0
DWIDTH 9 0
BBX 12 16 1 -7
BITMAP
BE3005EC0000
EF701EFF3000
CFA05FFF2000
AFB04FFE2460
8FD02FFFFFF1
6FF09FEEFD70
4FF4FE200000
3FFDF6000000
2FFF90000000
0FFB00000000
0EF900000000
0DFA00000000
0CFB00000000
0AFC00000000
09FC00000000
026300000000
ENDCHAR
STARTCHAR uni04B0
ENCODING 1200
SWIDTH 677 0
DWIDTH 14 0
BBX 13 16 2 0
BITMAP
1DE5000001BEA0
1FFE000009FF60
0AFF60004FFB00
03FFD001DFE200
00BFF409FF5000
004FFB4FFA0000
000CFFEFD10000
0005FFFF400000
0001DFF8000000
01DFFFFFF70000
02EFFFFFE50000
00009FF0000000
0000AFE0000000
0000BFD0000000
0000CFC0000000
00009E90000000
ENDCHAR
STARTCHAR uni04B1
ENCODING 1201
SWIDTH 472 0
DWIDTH 9 0
BBX 13 16 0 -7
BITMAP
0BE3005EC00000
0EF701EFF30000
0CFA05FFF20000
0AFB04FFE24600
08FD02FFFFFF10
06FF09FEEFD700
04FF4FE2000000
03FFDF60000000
02FFF900000000
8FFFFFE1000000
7EFFFFC1000000
00DFA000000000
00CFB000000000
00BFC000000000
009FC000000000
00263000000000
ENDCHAR
STARTCHAR uni04B2
ENCODING 1202
SWIDTH 716 0
DWIDTH 14 0
BBX 18 22 -1 -6
BITMAP
0007DFD8000004DE40
02CFFFFF90004FFE20
0BF824EFF203EFE300
0850006FF82EFE4000
0000001EFDDFF40000
0000000AFFFF500000
00000006FFF6000000
00000009FFC0000000
0000008FFFF1000000
000007FFEFF5000000
00005FFC4FF9000000
0004FFD10EFE000000
004EFE200AFF500024
03EFF40004FFD968FB
1DFF600000AFFFFFC3
2DE70000001CFFE600
0000000003CFFF7000
000000007FF9FF4000
00000006FF45FE1000
0000000BFC2CF90000
0000000AFFFFE20000
00000002BFFB200000
ENDCHAR
STARTCHAR uni04B3
ENCODING 1203
SWIDTH 601 0
DWIDTH 12 0
BBX 14 15 0 -6
BITMAP
009EE807DE8000
04FFFFDFFFC000
03E87FFE3E7000
00004FF8000000
05405FF6000000
6FC08FF5000015
9FC1EFFB1143DF
7FFFFFFFFFEFF7
1AED73CEFFFC30
00000019FFA000
000003DECF5000
00001ED2CF1000
00006F76FA0000
00007FFFE20000
00001CFC300000
ENDCHAR
STARTCHAR uni04B4
ENCODING 1204
SWIDTH 1040 0
DWIDTH 21 0
BBX 24 22 0 -6
BITMAP
00026ACDEFFFDC700BE50000
019FFFFFFFFFFFD02FFA0000
0BFE84219FF500004FF90000
2FF50000CFF100007FF70000
4FF20001FFC000009FF40000
1FF60005FF800000DFF20000
07C30009FF400001FFE00000
0000000CFF100006FFB00000
0000001FFD00000BFF900000
0000004FFA00002FFF700000
0000007FF600009FFF500000
000000AFF30002FBFF400000
000000BFF2001CC8FF300000
000000AFF814DE38FFDB28E3
0000004FFFFFE402BEFFEFC1
00000005CEEA200019FFD600
0000000000000007EFFE0000
00000000000002DFCBFB0000
0000000000000DFA0DF70000
0000000000004FF57FF20000
0000000000003FFFFF800000
00000000000007EFD7000000
ENDCHAR
ENDFONT
